<svg xmlns="http://www.w3.org/2000/svg" width="30" height="30" fill="none" viewBox="0 0 30 30"><linearGradient id="a" x1="3" x2="27" y1="15" y2="15" gradientUnits="userSpaceOnUse"><stop offset="0" stop-color="#41bf97"/><stop offset="1" stop-color="#71efc7"/></linearGradient><path fill="#f9eb08" d="M16.057 8.634c-1.695-.207-3.404.087-4.837 1.048-1.705 1.142-2.656 3.021-2.59 5.074q.02.665.227 1.352c.205.68.64 1.435 1.317 1.704.245.097.65.121.88-.03a.76.76 0 0 0 .248-.264.03.03 0 0 0-.004-.034q-.761-.893-.88-2.115c-.141-1.487.32-2.926 1.47-3.873.974-.8 2.307-1.089 3.564-.981 1.86.158 3.275 1.34 3.637 3.175q.3 1.521-.218 3.018c-.312.904-.969 1.777-1.908 2.075a2.36 2.36 0 0 1-1.356.035c-1.004-.272-1.31-1.207-1.035-2.148q.116-.394.471-1.555c.153-.496.236-.996.132-1.508-.165-.818-.869-1.203-1.657-.978-.737.21-1.143.958-1.255 1.688-.12.776-.013 1.555.212 2.308a.26.26 0 0 1 .005.13q-.176.787-.709 3.06-.42 1.788-.467 2.192-.135 1.16-.03 2.24l.005.054q.363.146.739.263l.016-.025a9.8 9.8 0 0 0 1.071-2.146q.15-.421.405-1.467.33-1.36.369-1.477a.02.02 0 0 1 .006-.009.02.02 0 0 1 .024.003q.274.363.69.642.958.645 2.164.544c2.094-.178 3.685-1.865 4.323-3.77.656-1.96.403-4.229-.854-5.895-1.007-1.335-2.527-2.128-4.175-2.33z"/><path fill="url(#a)" d="M15 4.983c5.532 0 10.017 4.485 10.017 10.017S20.532 25.017 15 25.017 4.983 20.532 4.983 15 9.468 4.983 15 4.983M15 3a11.96 11.96 0 0 0-8.486 3.515 12 12 0 0 0-2.57 3.813C3.318 11.81 3 13.381 3 15s.318 3.19.944 4.672a12 12 0 0 0 2.57 3.814 12 12 0 0 0 3.814 2.57C11.81 26.682 13.381 27 15 27s3.19-.318 4.672-.944a12 12 0 0 0 3.814-2.57 12 12 0 0 0 2.57-3.814C26.682 18.19 27 16.619 27 15s-.318-3.19-.944-4.672a12 12 0 0 0-2.57-3.814 12 12 0 0 0-3.814-2.57A11.9 11.9 0 0 0 15 3"/></svg>