<svg xmlns="http://www.w3.org/2000/svg" xmlns:xlink="http://www.w3.org/1999/xlink" width="30" height="30" fill="none" viewBox="0 0 30 30"><linearGradient id="a"><stop offset="0" stop-color="#41bf97"/><stop offset="1" stop-color="#71efc7"/></linearGradient><linearGradient xlink:href="#a" id="b" x1="4.321" x2="23.721" y1="10.574" y2="28.251" gradientUnits="userSpaceOnUse"/><linearGradient xlink:href="#a" id="c" x1="4.321" x2="23.721" y1="10.574" y2="28.251" gradientUnits="userSpaceOnUse"/><g fill-rule="evenodd" clip-rule="evenodd"><path fill="#f9eb08" d="M13.522 2a5.987 5.987 0 0 0-3.51 10.837h7.02A5.987 5.987 0 0 0 13.523 2m4.072 6.694-3.52 3.375a.795.795 0 0 1-1.103 0l-3.52-3.375a.79.79 0 0 1-.188-.872.79.79 0 0 1 .739-.499h1.188v-2.81h4.665v2.81h1.188a.793.793 0 0 1 .796.798c0 .212-.085.42-.245.573z"/><path fill="#000" d="M22.234 17.998a2.95 2.95 0 0 0 0 5.9h3.245a.787.787 0 0 0 .787-.787v-4.326a.787.787 0 0 0-.787-.787h-2.26zm1.508 2.95a.967.967 0 1 1-1.934 0 .967.967 0 0 1 1.934 0"/><path fill="#000" d="M22.23 16.792h2.412v-1.659c0-.682-.555-1.236-1.237-1.236h-1.087V11c0-.654-.532-1.186-1.186-1.186h-1.907a6 6 0 0 1-.54 1.206h2.397c.015 0 .03.016.03.032v2.845H6.737a1.8 1.8 0 0 1-1.794-1.717 1.23 1.23 0 0 1 1.226-1.16H8.36a6 6 0 0 1-.54-1.205h-1.8a2.29 2.29 0 0 0-2.286 2.286l.002.074-.002.074v13.13A2.624 2.624 0 0 0 6.354 28h17.05c.683 0 1.237-.554 1.237-1.236v-1.658H22.23a4.13 4.13 0 0 1-2.934-1.23 4.13 4.13 0 0 1-1.205-2.943c.004-1.104.436-2.142 1.217-2.922s1.818-1.213 2.922-1.217zm-9.487 8.648H6.839a.603.603 0 0 1 0-1.205h5.904a.603.603 0 0 1 0 1.205"/></g><path fill="url(#b)" d="M22.234 17.998a2.95 2.95 0 0 0 0 5.9h3.245a.787.787 0 0 0 .787-.787v-4.326a.787.787 0 0 0-.787-.787h-2.26zm1.508 2.95a.967.967 0 1 1-1.934 0 .967.967 0 0 1 1.934 0"/><path fill="url(#c)" d="M22.23 16.792h2.412v-1.659c0-.682-.555-1.236-1.237-1.236h-1.087V11c0-.654-.532-1.186-1.186-1.186h-1.907a6 6 0 0 1-.54 1.206h2.397c.015 0 .03.016.03.032v2.845H6.737a1.8 1.8 0 0 1-1.794-1.717 1.23 1.23 0 0 1 1.226-1.16H8.36a6 6 0 0 1-.54-1.205h-1.8a2.29 2.29 0 0 0-2.286 2.286l.002.074-.002.074v13.13A2.624 2.624 0 0 0 6.354 28h17.05c.683 0 1.237-.554 1.237-1.236v-1.658H22.23a4.13 4.13 0 0 1-2.934-1.23 4.13 4.13 0 0 1-1.205-2.943c.004-1.104.436-2.142 1.217-2.922s1.818-1.213 2.922-1.217zm-9.487 8.648H6.839a.603.603 0 0 1 0-1.205h5.904a.603.603 0 0 1 0 1.205"/></svg>