<svg xmlns="http://www.w3.org/2000/svg" width="30" height="30" fill="none" viewBox="0 0 30 30"><linearGradient id="a" x1="3" x2="27" y1="15" y2="15" gradientUnits="userSpaceOnUse"><stop offset="0" stop-color="#41bf97"/><stop offset="1" stop-color="#71efc7"/></linearGradient><path fill="#f9eb08" d="M20.5 17.382c-.298-.149-1.768-.869-2.04-.967-.273-.098-.473-.148-.673.149-.2.296-.772.966-.946 1.165s-.35.224-.647.076c-.299-.149-1.262-.463-2.401-1.477-.887-.789-1.487-1.762-1.662-2.059s-.018-.459.13-.608c.135-.133.299-.347.448-.52s.2-.297.298-.497c.099-.199.051-.372-.025-.52-.076-.15-.673-1.611-.92-2.208-.244-.58-.488-.5-.673-.51-.175-.008-.375-.011-.57-.011s-.525.076-.797.372c-.273.297-1.044 1.017-1.044 2.48s1.069 2.876 1.218 3.072c.149.199 2.106 3.199 5.102 4.487.713.308 1.27.489 1.702.626.717.228 1.368.196 1.88.12.576-.087 1.769-.72 2.016-1.412.247-.694.247-1.288.174-1.411s-.273-.195-.57-.347z"/><path fill="url(#a)" d="M15.05 3C8.462 3 3.097 8.334 3.097 14.892c0 2.095.55 4.143 1.597 5.946L3 27l6.336-1.654a11.97 11.97 0 0 0 5.71 1.448h.003c6.587 0 11.947-5.335 11.951-11.892a11.77 11.77 0 0 0-3.495-8.414A11.92 11.92 0 0 0 15.049 3m.003 21.785h-.004a9.94 9.94 0 0 1-5.055-1.379l-.364-.213-3.76.98 1.004-3.647-.237-.373a9.84 9.84 0 0 1-1.52-5.262c.003-5.45 4.459-9.883 9.94-9.883 2.655 0 5.146 1.032 7.023 2.899s2.91 4.353 2.906 6.992c0 5.453-4.459 9.886-9.933 9.886z"/></svg>