<svg xmlns="http://www.w3.org/2000/svg" width="30" height="30" fill="none" viewBox="0 0 30 30"><linearGradient id="a" x1="2" x2="28" y1="12.148" y2="12.148" gradientUnits="userSpaceOnUse"><stop offset="0" stop-color="#41bf97"/><stop offset="1" stop-color="#71efc7"/></linearGradient><path fill="url(#a)" d="M3.592 19.314 2.011 9.034c-.117-.76.747-1.278 1.362-.817l4.928 3.695c.54.406 1.311.274 1.686-.288l4.102-6.154a1.095 1.095 0 0 1 1.822 0l4.102 6.153a1.177 1.177 0 0 0 1.686.289l4.928-3.696c.615-.46 1.48.057 1.362.817l-1.581 10.28z"/><path fill="#f9eb08" d="M25.218 25.018H4.782a1.19 1.19 0 0 1-1.19-1.19v-2.613h22.816v2.613a1.19 1.19 0 0 1-1.189 1.19z"/></svg>