<svg xmlns="http://www.w3.org/2000/svg" xmlns:xlink="http://www.w3.org/1999/xlink" width="30" height="30" fill="none" viewBox="0 0 30 30"><linearGradient id="a"><stop offset="0" stop-color="#41bf97"/><stop offset="1" stop-color="#71efc7"/></linearGradient><linearGradient xlink:href="#a" id="b" x1="9.801" x2="26.195" y1="6.561" y2="21.472" gradientUnits="userSpaceOnUse"/><linearGradient xlink:href="#a" id="c" x1="9.802" x2="26.195" y1="6.561" y2="21.472" gradientUnits="userSpaceOnUse"/><path fill="#f9eb08" d="M8.617 7.664a19.2 19.2 0 0 1 5.243-4.168c-2.934-2.172-6.242-1.775-6.398-1.755l-1.339.177.87 1.035c.02.022 1.602 1.944 1.624 4.71z"/><path fill="#fff" d="M26.143 7.26c1.264-2.49.97-4.294.97-4.294S15.426.266 8.26 10.6c-3.385 1.176-5.402 3.6-5.402 3.6s1.482-.336 3.727-.222c-.497 2.748.12 4.778 1.235 6.281l-.148.318-.012.03c-.914 2.215 1.084 4.277 1.17 4.364l.988 1.005.262-1.385c.002-.008.174-.855.774-1.723l.032-.047c1.765.96 3.578 1.394 4.458 1.605 1.647 3.525 3.719 3.75 4.642 3.875-3.893-3.825 2.47-8.45 3.943-9.175-4.891-.75-7.736 3.275-7.736 3.275s-3.203-1.097-3.274-4.673c1.41-1.754 3.82-2.456 5.112-3.127 2.424-1.27 4.208-2.6 5.52-3.887-1.677-1.937-5.278-1.697-5.278-1.697s4.597-4.246 7.872-1.756zm-11.342 3.29-.04.046a.17.17 0 0 1-.151.058 1.2 1.2 0 0 1-.324-.077c-.544-.216-.929-.675-1.081-1.294-.179-.728.005-1.547.469-2.085.154-.181.303-.309.468-.4a.17.17 0 0 1 .159-.004l.056.028a.17.17 0 0 1 .082.217c-.28.692-.532 1.7-.147 2.581q.16.372.498.694a.17.17 0 0 1 .012.235zm1.64-.646-.041.047a.17.17 0 0 1-.15.057 1.2 1.2 0 0 1-.324-.077c-.544-.215-.93-.675-1.081-1.293-.18-.729.004-1.548.468-2.087.155-.18.304-.308.469-.4a.17.17 0 0 1 .158-.003l.056.028c.08.04.115.134.082.216-.28.692-.531 1.701-.146 2.582.106.246.273.48.498.693a.17.17 0 0 1 .011.236z"/><path fill="#fff" d="M22.934 12.777c-1.258 1.016-2.722 1.964-4.377 2.831l-.22.11c2.915.51 4.486 2.143 4.501 2.16l.016.016.784.846.3-.764.13-.331c.043-.11.92-2.448-1.133-4.868z"/><path fill="url(#b)" d="M26.143 7.26c1.264-2.49.97-4.294.97-4.294S15.426.266 8.26 10.6c-3.385 1.176-5.402 3.6-5.402 3.6s1.482-.336 3.727-.222c-.497 2.748.12 4.778 1.235 6.281l-.148.318-.012.03c-.914 2.215 1.084 4.277 1.17 4.364l.988 1.005.262-1.385c.002-.008.174-.855.774-1.723l.032-.047c1.765.96 3.578 1.394 4.458 1.605 1.647 3.525 3.719 3.75 4.642 3.875-3.893-3.825 2.47-8.45 3.943-9.175-4.891-.75-7.736 3.275-7.736 3.275s-3.203-1.097-3.274-4.673c1.41-1.754 3.82-2.456 5.112-3.127 2.424-1.27 4.208-2.6 5.52-3.887-1.677-1.937-5.278-1.697-5.278-1.697s4.597-4.246 7.872-1.756zm-11.342 3.29-.04.046a.17.17 0 0 1-.151.058 1.2 1.2 0 0 1-.324-.077c-.544-.216-.929-.675-1.081-1.294-.179-.728.005-1.547.469-2.085.154-.181.303-.309.468-.4a.17.17 0 0 1 .159-.004l.056.028a.17.17 0 0 1 .082.217c-.28.692-.532 1.7-.147 2.581q.16.372.498.694a.17.17 0 0 1 .012.235zm1.64-.646-.041.047a.17.17 0 0 1-.15.057 1.2 1.2 0 0 1-.324-.077c-.544-.215-.93-.675-1.081-1.293-.18-.729.004-1.548.468-2.087.155-.18.304-.308.469-.4a.17.17 0 0 1 .158-.003l.056.028c.08.04.115.134.082.216-.28.692-.531 1.701-.146 2.582.106.246.273.48.498.693a.17.17 0 0 1 .011.236z"/><path fill="url(#c)" d="M22.934 12.777c-1.258 1.016-2.722 1.964-4.377 2.831l-.22.11c2.915.51 4.486 2.143 4.501 2.16l.016.016.784.846.3-.764.13-.331c.043-.11.92-2.448-1.133-4.868z"/></svg>