<svg xmlns="http://www.w3.org/2000/svg" width="30" height="30" fill="none" viewBox="0 0 30 30"><linearGradient id="a" x1="2" x2="28" y1="15" y2="15" gradientUnits="userSpaceOnUse"><stop offset="0" stop-color="#41bf97"/><stop offset="1" stop-color="#71efc7"/></linearGradient><path fill="url(#a)" d="M15 24.47c-.78 0-7.667-.015-9.609-.538a4.06 4.06 0 0 1-2.856-2.873C2.006 19.074 2 15.165 2 14.999s.006-4.073.535-6.058a4.06 4.06 0 0 1 2.857-2.873C7.332 5.545 14.22 5.53 15 5.53s7.667.015 9.61.538a4.06 4.06 0 0 1 2.855 2.873c.53 1.985.535 5.894.535 6.059s-.006 4.073-.535 6.059a4.06 4.06 0 0 1-2.856 2.872c-1.942.524-8.83.539-9.609.539zm0-16.833c-2.947 0-7.793.124-9.06.466-.667.18-1.19.708-1.37 1.38-.38 1.43-.463 4.467-.463 5.518 0 1.05.084 4.09.463 5.517.18.672.703 1.2 1.368 1.38 1.419.383 7.022.466 9.062.466 2.947 0 7.793-.124 9.06-.466a1.95 1.95 0 0 0 1.369-1.38c.38-1.43.464-4.467.464-5.518 0-1.05-.084-4.09-.464-5.517a1.95 1.95 0 0 0-1.368-1.38c-1.268-.342-6.114-.466-9.061-.466"/><path fill="#f9eb08" d="M12.556 18.553 18.801 15l-6.245-3.553z"/></svg>