<svg xmlns="http://www.w3.org/2000/svg" xmlns:xlink="http://www.w3.org/1999/xlink" width="30" height="30" fill="none" viewBox="0 0 30 30"><linearGradient id="a"><stop offset="0" stop-color="#41bf97"/><stop offset="1" stop-color="#71efc7"/></linearGradient><linearGradient xlink:href="#a" id="b" x1="17.663" x2="24.909" y1="9.51" y2="9.51" gradientUnits="userSpaceOnUse"/><linearGradient xlink:href="#a" id="c" x1="3.159" x2="19.241" y1="19.007" y2="19.007" gradientUnits="userSpaceOnUse"/><linearGradient xlink:href="#a" id="d" x1="19.167" x2="26.841" y1="17.472" y2="17.472" gradientUnits="userSpaceOnUse"/><linearGradient xlink:href="#a" id="e" x1="5.968" x2="16.492" y1="7.442" y2="7.442" gradientUnits="userSpaceOnUse"/><linearGradient xlink:href="#a" id="f" x1="3.16" x2="26.842" y1="13.133" y2="13.133" gradientUnits="userSpaceOnUse"/><linearGradient xlink:href="#a" id="g" x1="3.159" x2="26.842" y1="13.133" y2="13.133" gradientUnits="userSpaceOnUse"/><linearGradient xlink:href="#a" id="h" x1="3.159" x2="26.841" y1="13.133" y2="13.133" gradientUnits="userSpaceOnUse"/><linearGradient xlink:href="#a" id="i" x1="3.159" x2="26.841" y1="13.133" y2="13.133" gradientUnits="userSpaceOnUse"/><path fill="#f9eb08" d="M18.23 18.955a5.522 5.522 0 1 0 0 11.045 5.522 5.522 0 0 0 0-11.045m3.707 6.36h-2.87v2.87h-1.674v-2.87h-2.87V23.64h2.87v-2.87h1.674v2.87h2.87z"/><path fill="url(#b)" d="M21.286 13.133a3.623 3.623 0 1 0 0-7.245 3.623 3.623 0 0 0 0 7.245"/><path fill="url(#c)" d="M13.212 19.46a7.05 7.05 0 0 1 5.018-2.08q.513 0 1.011.072a4.235 4.235 0 0 0-4.175-3.527H7.394A4.235 4.235 0 0 0 3.16 18.16v5.927h7.985a7.04 7.04 0 0 1 2.067-4.628z"/><path fill="url(#d)" d="M22.606 13.974h-2.642q-.41.001-.797.076a5.8 5.8 0 0 1 1.701 3.836 7.1 7.1 0 0 1 2.38 1.574 7.1 7.1 0 0 1 1.154 1.51h2.44v-2.76a4.235 4.235 0 0 0-4.236-4.235z"/><path fill="url(#e)" d="M14.951 11.163A5.262 5.262 0 1 0 7.509 3.72a5.262 5.262 0 0 0 7.442 7.442"/><path fill="url(#f)" d="M21.286 13.133a3.623 3.623 0 1 0 0-7.245 3.623 3.623 0 0 0 0 7.245"/><path fill="url(#g)" d="M13.212 19.46a7.05 7.05 0 0 1 5.018-2.08q.513 0 1.011.072a4.235 4.235 0 0 0-4.175-3.527H7.394A4.235 4.235 0 0 0 3.16 18.16v5.927h7.985a7.04 7.04 0 0 1 2.067-4.628z"/><path fill="url(#h)" d="M22.606 13.974h-2.642q-.41.001-.797.076a5.8 5.8 0 0 1 1.701 3.836 7.1 7.1 0 0 1 2.38 1.574 7.1 7.1 0 0 1 1.154 1.51h2.44v-2.76a4.235 4.235 0 0 0-4.236-4.235z"/><path fill="url(#i)" d="M14.951 11.163A5.262 5.262 0 1 0 7.509 3.72a5.262 5.262 0 0 0 7.442 7.442"/></svg>