<svg xmlns="http://www.w3.org/2000/svg" xmlns:xlink="http://www.w3.org/1999/xlink" width="30" height="30" fill="none" viewBox="0 0 30 30"><linearGradient id="a"><stop offset="0" stop-color="#41bf97"/><stop offset="1" stop-color="#71efc7"/></linearGradient><linearGradient xlink:href="#a" id="b" x1="3.772" x2="9.184" y1="21.13" y2="26.061" gradientUnits="userSpaceOnUse"/><linearGradient xlink:href="#a" id="c" x1="14.784" x2="23.763" y1="6.565" y2="14.747" gradientUnits="userSpaceOnUse"/><path fill="#fff" d="m10.839 21.237-.708.685c-.611.592-1.999.778-2.868.816.038-.87.223-2.257.816-2.869l.684-.707-.97-.169c-.761-.133-1.932-.029-3.182 1.222C2.825 22 3 26.312 3.008 26.495l.022.475.475.022c.032.001.197.008.456.008 1.189 0 4.358-.144 5.824-1.61 1.25-1.251 1.354-2.422 1.222-3.183z"/><path fill="url(#b)" d="m10.839 21.237-.708.685c-.611.592-1.999.778-2.868.816.038-.87.223-2.257.816-2.869l.684-.707-.97-.169c-.761-.133-1.932-.029-3.182 1.222C2.825 22 3 26.312 3.008 26.495l.022.475.475.022c.032.001.197.008.456.008 1.189 0 4.358-.144 5.824-1.61 1.25-1.251 1.354-2.422 1.222-3.183z"/><path fill="#f9eb08" d="m13.298 21.57-.37.015-.41-.408a13 13 0 0 1-.295 3.407l-.247 1.145 1.164-.124c2.822-.299 5.156-1.208 6.937-2.702 1.623-1.36 2.803-3.223 3.513-5.534q-.66.61-1.396 1.149c-2.55 1.868-5.626 2.924-8.896 3.053zM8.825 17.482l-.41-.409.016-.37c.129-3.27 1.185-6.347 3.055-8.898q.539-.736 1.15-1.396c-2.314.711-4.178 1.894-5.54 3.517-1.493 1.781-2.401 4.114-2.699 6.935l-.123 1.163 1.144-.247a13 13 0 0 1 3.407-.296z"/><path fill="#fff" d="M13.598 19.859c2.794-.177 5.413-1.11 7.596-2.71 4.318-3.157 6.447-8.47 5.638-13.98-5.509-.809-10.823 1.32-13.98 5.637-1.6 2.183-2.532 4.803-2.71 7.598zm3.677-11.422a3.033 3.033 0 1 1 4.29 4.29 3.033 3.033 0 0 1-4.29-4.29"/><path fill="url(#c)" d="M13.598 19.859c2.794-.177 5.413-1.11 7.596-2.71 4.318-3.157 6.447-8.47 5.638-13.98-5.509-.809-10.823 1.32-13.98 5.637-1.6 2.183-2.532 4.803-2.71 7.598zm3.677-11.422a3.033 3.033 0 1 1 4.29 4.29 3.033 3.033 0 0 1-4.29-4.29"/></svg>