<svg xmlns="http://www.w3.org/2000/svg" xmlns:xlink="http://www.w3.org/1999/xlink" width="30" height="30" fill="none" viewBox="0 0 30 30"><linearGradient id="a"><stop offset="0" stop-color="#41bf97"/><stop offset="1" stop-color="#71efc7"/></linearGradient><linearGradient xlink:href="#a" id="b" x1="6.788" x2="26.005" y1="9.564" y2="27.099" gradientUnits="userSpaceOnUse"/><linearGradient xlink:href="#a" id="c" x1="6.788" x2="26.005" y1="9.564" y2="27.099" gradientUnits="userSpaceOnUse"/><path fill="#fff" d="m22.01 4.134-3.08-.598q.09.251.141.517l2.165 11.119c.107.552.085 1.11-.06 1.64a2.3 2.3 0 0 0 1.023-1.503l1.646-8.456a2.325 2.325 0 0 0-1.836-2.718z"/><path fill="#fff" d="M28.636 15.585q-1.498-2.083-4.07-2.86l-.203-.056-.574 2.949q-.045.226-.116.444.191.13.367.288.13.115.28.22.076.053.226.26c1.408 1.95.365 4.604-1.94 5.164q-.371.09-1.169.079-.31-.005-12.785 0-.905 0-1.263-.081a3.32 3.32 0 0 1-2.55-2.851 3.2 3.2 0 0 1 .216-1.628 3.35 3.35 0 0 1 1.282-1.507l-.649-3.335a7.4 7.4 0 0 0-2.975 1.479 7.37 7.37 0 0 0-1.115 10.292 7.43 7.43 0 0 0 5.808 2.83l1.562-.001a.58.58 0 0 0 .529-.306q.05-.087.069-.37.06-.9.82-1.41.425-.288.872-.296 1.17-.018 7.069-.008.578 0 .826.079.662.21 1.035.82c.204.334.238.658.263 1.023a.2.2 0 0 0 .01.054q.127.414.64.416 1.452.007 1.84-.012a7.43 7.43 0 0 0 5.882-3.404c1.622-2.513 1.575-5.818-.188-8.271z"/><path fill="url(#b)" d="m22.01 4.134-3.08-.598q.09.251.141.517l2.165 11.119c.107.552.085 1.11-.06 1.64a2.3 2.3 0 0 0 1.023-1.503l1.646-8.456a2.325 2.325 0 0 0-1.836-2.718z"/><path fill="url(#c)" d="M28.636 15.585q-1.498-2.083-4.07-2.86l-.203-.056-.574 2.949q-.045.226-.116.444.191.13.367.288.13.115.28.22.076.053.226.26c1.408 1.95.365 4.604-1.94 5.164q-.371.09-1.169.079-.31-.005-12.785 0-.905 0-1.263-.081a3.32 3.32 0 0 1-2.55-2.851 3.2 3.2 0 0 1 .216-1.628 3.35 3.35 0 0 1 1.282-1.507l-.649-3.335a7.4 7.4 0 0 0-2.975 1.479 7.37 7.37 0 0 0-1.115 10.292 7.43 7.43 0 0 0 5.808 2.83l1.562-.001a.58.58 0 0 0 .529-.306q.05-.087.069-.37.06-.9.82-1.41.425-.288.872-.296 1.17-.018 7.069-.008.578 0 .826.079.662.21 1.035.82c.204.334.238.658.263 1.023a.2.2 0 0 0 .01.054q.127.414.64.416 1.452.007 1.84-.012a7.43 7.43 0 0 0 5.882-3.404c1.622-2.513 1.575-5.818-.188-8.271z"/><path fill="#f9eb08" d="M19.646 15.48 17.482 4.36a2.03 2.03 0 0 0-2.374-1.598L7.75 4.19a2.03 2.03 0 0 0-1.6 2.37l2.164 11.12a2.03 2.03 0 0 0 2.373 1.598l7.358-1.428a2.03 2.03 0 0 0 1.6-2.37m-4.801-2.496c-.444.086-.885-.053-1.237-.232.317.61.725 1.285 1.167 1.732a6.8 6.8 0 0 0-2.32.45c.245-.58.371-1.359.436-2.044-.26.298-.618.593-1.063.679-1.118.217-2.05-.41-2.267-1.524-.24-1.228.576-2.21 1.365-3.16.373-.448.758-.912 1.029-1.396a.32.32 0 0 1 .215-.156l.018-.003a.32.32 0 0 1 .258.064c.433.348.965.634 1.478.91 1.087.585 2.212 1.19 2.45 2.419.217 1.113-.412 2.043-1.53 2.26z"/></svg>