<svg xmlns="http://www.w3.org/2000/svg" width="30" height="30" fill="none" viewBox="0 0 30 30"><linearGradient id="a" x1="5.391" x2="24.609" y1="6.244" y2="23.755" gradientUnits="userSpaceOnUse"><stop offset="0" stop-color="#41bf97"/><stop offset="1" stop-color="#71efc7"/></linearGradient><path fill="url(#a)" d="M24.192 5.807C21.737 3.352 18.472 2 15 2S8.263 3.352 5.808 5.807 2 11.527 2 15s1.352 6.737 3.808 9.192S11.528 28 15 28s6.737-1.352 9.192-3.808S28 18.472 28 15s-1.352-6.737-3.808-9.192zm-12.307 10.69c-1.145-1.819-1.58-3.938-1.225-5.965.36-2.056 1.486-3.773 3.171-4.834 1.686-1.061 3.72-1.335 5.73-.771 1.982.556 3.705 1.864 4.85 3.683 2.38 3.78 1.507 8.625-1.946 10.8a6.9 6.9 0 0 1-3.686 1.057c-.674 0-1.36-.095-2.044-.286-1.982-.556-3.704-1.865-4.85-3.684z"/><path fill="#f9eb08" d="M17.457 13.479c.024 1.422-.02 1.924.06 3.386.015.268.52.459.779.18 1.023-1.106 1.396-1.747 2.022-2.778.086-.143.218-.223.352-.197l2.717.522c.29.056.462-.385.253-.661q-.884-1.231-1.953-2.473a.43.43 0 0 1-.107-.374q.35-1.12.553-2.217c.025-.213-.284-.468-.476-.4l-1.959.69c-.098.036-.228 0-.333-.089a54 54 0 0 0-2.297-1.856c-.246-.187-.724.03-.644.274.278.848.488 1.713.627 2.586a.29.29 0 0 1-.15.31c-.9.444-1.632.767-2.567 1.218-.328.158-.342.654-.013.762 1.042.269 1.872.5 2.902.766.137.045.23.183.234.351z"/></svg>