<svg xmlns="http://www.w3.org/2000/svg" xmlns:xlink="http://www.w3.org/1999/xlink" width="30" height="30" fill="none" viewBox="0 0 30 30"><linearGradient id="a"><stop offset="0" stop-color="#41bf97"/><stop offset="1" stop-color="#71efc7"/></linearGradient><linearGradient xlink:href="#a" id="b" x1="9.536" x2="20.463" y1="20.41" y2="30.366" gradientUnits="userSpaceOnUse"/><linearGradient xlink:href="#a" id="c" x1="7.16" x2="22.995" y1="10.3" y2="24.728" gradientUnits="userSpaceOnUse"/><linearGradient xlink:href="#a" id="d" x1="5.708" x2="24.292" y1="1.628" y2="18.562" gradientUnits="userSpaceOnUse"/><path fill="url(#b)" d="M10.94 24.54H5.774v1.697h18.451v-1.698h-5.166z"/><path fill="url(#c)" d="M22.349 11.649v7.821c-1.2.375-2.194 1.245-2.77 2.389h-9.002c-.576-1.144-1.57-2.014-2.77-2.389V11.65H5.931v11.729h18.294v-11.73h-1.877z"/><path fill="url(#d)" d="M24.851 3.763H5.15A3.16 3.16 0 0 0 2 6.913v6.365a3.16 3.16 0 0 0 2.634 3.107v-4.8c0-.854.693-1.547 1.547-1.547h17.795c.854 0 1.546.693 1.546 1.547v4.77A3.16 3.16 0 0 0 28 13.279V6.912a3.16 3.16 0 0 0-3.15-3.15z"/><path fill="#f9eb08" d="M19.765 15.35a.888.888 0 0 1-.21.975l-3.938 3.776a.89.89 0 0 1-1.234 0l-3.938-3.775a.89.89 0 0 1-.21-.976.89.89 0 0 1 .827-.558h1.329v-3.143h5.219v3.143h1.329c.365 0 .69.219.827.558z"/></svg>