<svg xmlns="http://www.w3.org/2000/svg" xmlns:xlink="http://www.w3.org/1999/xlink" width="30" height="30" fill="none" viewBox="0 0 30 30"><linearGradient id="a"><stop offset="0" stop-color="#41bf97"/><stop offset="1" stop-color="#71efc7"/></linearGradient><linearGradient xlink:href="#a" id="b" x1="7.559" x2="17.817" y1="5.419" y2="5.419" gradientUnits="userSpaceOnUse"/><linearGradient xlink:href="#a" id="c" x1="2.999" x2="22.377" y1="15.678" y2="15.678" gradientUnits="userSpaceOnUse"/><path fill="url(#b)" d="M9.553 8.84h6.27c1.094 0 1.994-.901 1.994-1.995v-1.71a.86.86 0 0 0-.854-.855h-1.254A3.15 3.15 0 0 0 12.688 2a3.15 3.15 0 0 0-3.02 2.28H8.412a.86.86 0 0 0-.854.855v1.71c0 1.094.9 1.994 1.994 1.994"/><path fill="#f9eb08" d="M21.118 19.093h-6.834c-.574 0-1.036.47-1.036 1.036v6.842c0 .566.462 1.029 1.036 1.029h6.879c.633 0 .991-.5.991-1.088V20.13c0-.567-.462-1.036-1.036-1.036zM15.67 22.56c-.566 0-1.029-.462-1.029-1.036a1.032 1.032 0 1 1 2.065 0c0 .574-.462 1.036-1.036 1.036m2.027 2.027a1.037 1.037 0 0 1 0-2.072c.567 0 1.036.462 1.036 1.036s-.462 1.036-1.036 1.036m2.027 2.027a1.037 1.037 0 0 1 0-2.072c.567 0 1.036.462 1.036 1.036s-.461 1.036-1.036 1.036"/><path fill="#f9eb08" d="M26.493 18.998c-2.593-1.53-3.6-2.126-5.886-3.474a1.04 1.04 0 0 0-1.418.365l-1.193 2.02h3.121c1.225 0 2.22.996 2.22 2.22v6.24q.04-.054.074-.112l.36-.61 3.087-5.23a1.04 1.04 0 0 0-.365-1.42"/><path fill="url(#c)" d="M22.373 8.393a3.133 3.133 0 0 0-3.131-2.973h-.086v1.425a3.337 3.337 0 0 1-3.333 3.333h-6.27A3.337 3.337 0 0 1 6.22 6.845V5.42h-.086a3.13 3.13 0 0 0-3.135 3.135v14.248a3.133 3.133 0 0 0 3.135 3.134h5.878v-3.989H7.274a.86.86 0 0 1-.855-.855c0-.407.294-.754.68-.836l.004.004h.011a.3.3 0 0 1 .05-.015 1 1 0 0 1 .11-.008h4.738v-.108c0-.785.4-1.478 1.007-1.887H7.274a.869.869 0 0 1-.75-.45.84.84 0 0 1-.001-.81.87.87 0 0 1 .75-.45h10.1l.752-1.271a2.28 2.28 0 0 1 1.959-1.117c.404 0 .802.11 1.152.315l1.14.674V8.555zm-3.52 5.696a.9.9 0 0 1-.275.302.85.85 0 0 1-.476.148H7.274a.869.869 0 0 1-.75-.45.84.84 0 0 1-.001-.81.87.87 0 0 1 .75-.45h10.83c.174 0 .339.055.475.147a.9.9 0 0 1 .275.303.84.84 0 0 1 0 .81"/></svg>