<svg xmlns="http://www.w3.org/2000/svg" xmlns:xlink="http://www.w3.org/1999/xlink" width="30" height="30" fill="none" viewBox="0 0 30 30"><linearGradient id="a"><stop offset="0" stop-color="#41bf97"/><stop offset="1" stop-color="#71efc7"/></linearGradient><linearGradient xlink:href="#a" id="b" x1="6.477" x2="16.93" y1="8.197" y2="8.197" gradientUnits="userSpaceOnUse"/><linearGradient xlink:href="#a" id="c" x1="4.426" x2="18.98" y1="19.062" y2="19.062" gradientUnits="userSpaceOnUse"/><path fill="url(#b)" d="M11.674 13.395h.06A5.197 5.197 0 1 0 11.732 3h-.06a5.197 5.197 0 1 0 0 10.395"/><path fill="url(#c)" d="M14.782 16.209a7 7 0 0 1 1.83-1.322l-.127-.05-.049-.017-.178-.059-.116-.032-.063-.016a3 3 0 0 0-.294-.06l-.067-.011-.12-.015-.063-.007-.132-.01-.054-.004a4 4 0 0 0-.187-.005H8.244q-.095 0-.188.005l-.054.004-.132.01-.063.007-.12.015-.067.01-.115.02-.065.014a4 4 0 0 0-.35.093q-.06.02-.12.04l-.05.018-.141.056-.023.01q-.166.07-.324.155l-.039.022-.113.065-.05.031-.098.063-.054.037-.09.064-.055.041-.084.066-.054.045-.08.07-.052.046q-.04.037-.079.075l-.048.046q-.043.044-.084.089l-.036.038-.112.129-.044.055-.063.08-.05.068-.052.074-.048.073-.047.072a2 2 0 0 0-.088.15l-.044.082q-.02.034-.037.072l-.042.085-.032.071-.04.09-.027.07-.037.095q-.008.03-.02.058a4 4 0 0 0-.067.22l-.015.05-.024.102-.017.074-.019.098-.01.058q-.053.31-.054.638v3.316a15.26 15.26 0 0 0 7.189 1.789l.087-.001h.088q.668 0 1.322-.056a7 7 0 0 1-.385-2.3 6.97 6.97 0 0 1 2.055-4.959z"/><path fill="#f9eb08" d="M19.741 15.337a5.834 5.834 0 0 0 0 11.663 5.833 5.833 0 0 0 0-11.663zm1.214 9.037q-.45.178-.718.27a1.9 1.9 0 0 1-.623.094q-.545 0-.848-.267a.86.86 0 0 1-.301-.675q0-.158.022-.325.023-.165.072-.374l.376-1.327q0-.008.003-.014a8 8 0 0 0 .081-.347 1.6 1.6 0 0 0 .034-.313.56.56 0 0 0-.074-.316.2.2 0 0 0-.031-.038q-.104-.099-.402-.099-.145 0-.298.045-.154.045-.261.087l.099-.409q.369-.15.706-.257.095-.03.187-.052.235-.056.45-.056.541 0 .835.261a.87.87 0 0 1 .293.68q0 .086-.02.304a2 2 0 0 1-.075.4l-.374 1.324q-.046.159-.082.363-.036.205-.036.309 0 .263.118.36.118.095.408.095.137 0 .31-.048.171-.047.249-.083zm-.066-5.37q-.261.243-.63.243c-.369 0-.456-.08-.631-.243q-.263-.244-.263-.589c0-.345.089-.427.263-.59q.264-.246.631-.245c.367 0 .456.081.63.245q.261.245.261.59c0 .345-.087.427-.261.59"/></svg>