<svg xmlns="http://www.w3.org/2000/svg" width="30" height="30" fill="none" viewBox="0 0 30 30"><linearGradient id="a" x1="11.712" x2="27.366" y1="9.766" y2="19.37" gradientUnits="userSpaceOnUse"><stop offset="0" stop-color="#41bf97"/><stop offset="1" stop-color="#71efc7"/></linearGradient><path fill="url(#a)" d="M25.685 5.508c-.001.147-.02.283-.032.496-.136 2.18-4.178 18.45-4.178 18.45s-.242.952-1.109.984c-.316.012-.7-.052-1.158-.447-.913-.785-3.029-2.286-4.994-3.644a49 49 0 0 0-3.005 2.75c-1.737 1.738-1.514 0-1.514 0l.533-5.67.014.007c.024-.057.063-.105.063-.105S20.54 9.23 20.813 8.276a.06.06 0 0 0-.004-.052l4.577-3.567c.104.06.181.15.25.347.033.096.052.3.05.504"/><path fill="#f9eb08" d="m25.385 4.664-4.587 3.574c-.02-.037-.084-.05-.162-.027-.682.25-12.491 7.708-13.794 8.531-.077.049-.29.018-.29.018l-5.73-1.867s-.684-.278-.464-.908c.046-.13.137-.24.41-.43 1.27-.886 23.498-8.875 23.498-8.875s.628-.211.999-.07a1 1 0 0 1 .12.054"/></svg>