<svg xmlns="http://www.w3.org/2000/svg" xmlns:xlink="http://www.w3.org/1999/xlink" width="30" height="30" fill="none" viewBox="0 0 30 30"><linearGradient id="a"><stop offset="0" stop-color="#41bf97"/><stop offset="1" stop-color="#71efc7"/></linearGradient><linearGradient xlink:href="#a" id="b" x1="10.397" x2="26.298" y1="9.52" y2="24.104" gradientUnits="userSpaceOnUse"/><linearGradient xlink:href="#a" id="c" x1="10.396" x2="26.298" y1="9.521" y2="24.104" gradientUnits="userSpaceOnUse"/><linearGradient xlink:href="#a" id="d" x1="10.397" x2="26.298" y1="9.521" y2="24.104" gradientUnits="userSpaceOnUse"/><g fill="#fff"><path d="M19.717 14.445a6.84 6.84 0 0 0-5.11 2.29 6.74 6.74 0 0 0 0 8.974 6.84 6.84 0 0 0 5.11 2.29c3.762 0 6.822-3.04 6.822-6.777s-3.06-6.777-6.821-6.777zm-.948 3.882a3.05 3.05 0 0 0-1.99 2.028.752.752 0 0 1-1.441-.424 4.55 4.55 0 0 1 2.966-3.024.753.753 0 0 1 .947.48.746.746 0 0 1-.482.94zM10.62 12.894q.513.001 1.013.062c.196-.94.537-2.085 1.136-3.24 1.618-3.124 4.381-5.07 8.23-5.8-2.003 2.701-2.08 5.474-2.05 9.015a8.4 8.4 0 0 1 1.502-.004c-.035-4.112.067-6.69 2.96-9.478L24.915 2l-2.087.168c-2.982.24-5.523 1.072-7.553 2.473-1.638 1.132-2.94 2.628-3.872 4.45a14.3 14.3 0 0 0-1.296 3.82q.256-.016.514-.017z"/><path d="M11.335 21.223a8.28 8.28 0 0 1 2.53-5.96 6.85 6.85 0 0 0-3.244-.818c-3.76 0-6.821 3.04-6.821 6.778S6.86 28 10.62 28a6.86 6.86 0 0 0 3.243-.817 8.286 8.286 0 0 1-2.53-5.96zm-1.661-2.896a3.05 3.05 0 0 0-1.99 2.028.752.752 0 0 1-1.442-.424 4.55 4.55 0 0 1 2.967-3.024.753.753 0 0 1 .947.48.746.746 0 0 1-.483.94z"/></g><path fill="url(#b)" d="M19.717 14.445a6.84 6.84 0 0 0-5.11 2.29 6.74 6.74 0 0 0 0 8.974 6.84 6.84 0 0 0 5.11 2.29c3.762 0 6.822-3.04 6.822-6.777s-3.06-6.777-6.821-6.777zm-.948 3.882a3.05 3.05 0 0 0-1.99 2.028.752.752 0 0 1-1.441-.424 4.55 4.55 0 0 1 2.966-3.024.753.753 0 0 1 .947.48.746.746 0 0 1-.482.94z"/><path fill="url(#c)" d="M10.62 12.894q.513.001 1.013.062c.196-.94.537-2.085 1.136-3.24 1.618-3.124 4.381-5.07 8.23-5.8-2.003 2.701-2.08 5.474-2.05 9.015a8.4 8.4 0 0 1 1.502-.004c-.035-4.112.067-6.69 2.96-9.478L24.915 2l-2.087.168c-2.982.24-5.523 1.072-7.553 2.473-1.638 1.132-2.94 2.628-3.872 4.45a14.3 14.3 0 0 0-1.296 3.82q.256-.016.514-.017z"/><path fill="url(#c)" d="M10.62 12.894q.513.001 1.013.062c.196-.94.537-2.085 1.136-3.24 1.618-3.124 4.381-5.07 8.23-5.8-2.003 2.701-2.08 5.474-2.05 9.015a8.4 8.4 0 0 1 1.502-.004c-.035-4.112.067-6.69 2.96-9.478L24.915 2l-2.087.168c-2.982.24-5.523 1.072-7.553 2.473-1.638 1.132-2.94 2.628-3.872 4.45a14.3 14.3 0 0 0-1.296 3.82q.256-.016.514-.017z"/><path fill="url(#c)" d="M10.62 12.894q.513.001 1.013.062c.196-.94.537-2.085 1.136-3.24 1.618-3.124 4.381-5.07 8.23-5.8-2.003 2.701-2.08 5.474-2.05 9.015a8.4 8.4 0 0 1 1.502-.004c-.035-4.112.067-6.69 2.96-9.478L24.915 2l-2.087.168c-2.982.24-5.523 1.072-7.553 2.473-1.638 1.132-2.94 2.628-3.872 4.45a14.3 14.3 0 0 0-1.296 3.82q.256-.016.514-.017z"/><path fill="url(#d)" d="M11.335 21.223a8.28 8.28 0 0 1 2.53-5.96 6.85 6.85 0 0 0-3.244-.818c-3.76 0-6.821 3.04-6.821 6.778S6.86 28 10.62 28a6.86 6.86 0 0 0 3.243-.817 8.286 8.286 0 0 1-2.53-5.96zm-1.661-2.896a3.05 3.05 0 0 0-1.99 2.028.752.752 0 0 1-1.442-.424 4.55 4.55 0 0 1 2.967-3.024.753.753 0 0 1 .947.48.746.746 0 0 1-.483.94z"/><path fill="url(#d)" d="M11.335 21.223a8.28 8.28 0 0 1 2.53-5.96 6.85 6.85 0 0 0-3.244-.818c-3.76 0-6.821 3.04-6.821 6.778S6.86 28 10.62 28a6.86 6.86 0 0 0 3.243-.817 8.286 8.286 0 0 1-2.53-5.96zm-1.661-2.896a3.05 3.05 0 0 0-1.99 2.028.752.752 0 0 1-1.442-.424 4.55 4.55 0 0 1 2.967-3.024.753.753 0 0 1 .947.48.746.746 0 0 1-.483.94z"/><path fill="url(#d)" d="M11.335 21.223a8.28 8.28 0 0 1 2.53-5.96 6.85 6.85 0 0 0-3.244-.818c-3.76 0-6.821 3.04-6.821 6.778S6.86 28 10.62 28a6.86 6.86 0 0 0 3.243-.817 8.286 8.286 0 0 1-2.53-5.96zm-1.661-2.896a3.05 3.05 0 0 0-1.99 2.028.752.752 0 0 1-1.442-.424 4.55 4.55 0 0 1 2.967-3.024.753.753 0 0 1 .947.48.746.746 0 0 1-.483.94z"/><path fill="#f9eb08" d="M9.696 9.044q.15-.333.316-.657a13.8 13.8 0 0 1 2.086-3.023c-2.496-1.415-5.834-1.135-7.994.844l-.644.59.643.589c1.517 1.389 3.614 1.94 5.593 1.657"/></svg>