<svg xmlns="http://www.w3.org/2000/svg" xmlns:xlink="http://www.w3.org/1999/xlink" width="30" height="30" fill="none" viewBox="0 0 30 30"><linearGradient id="a"><stop offset="0" stop-color="#41bf97"/><stop offset="1" stop-color="#71efc7"/></linearGradient><linearGradient xlink:href="#a" id="b" x1="7.625" x2="18.031" y1="5.266" y2="5.266" gradientUnits="userSpaceOnUse"/><linearGradient xlink:href="#a" id="c" x1="3" x2="22.657" y1="15.672" y2="15.672" gradientUnits="userSpaceOnUse"/><path fill="url(#b)" d="M9.648 8.735h6.36c1.11 0 2.023-.914 2.023-2.023V4.977a.873.873 0 0 0-.867-.867h-1.271c-.382-1.33-1.608-2.313-3.065-2.313s-2.682.983-3.064 2.313H8.492a.873.873 0 0 0-.867.867v1.735c0 1.11.914 2.023 2.023 2.023"/><path fill="url(#b)" d="M9.648 8.735h6.36c1.11 0 2.023-.914 2.023-2.023V4.977a.873.873 0 0 0-.867-.867h-1.271a3.195 3.195 0 0 0-3.065-2.313A3.195 3.195 0 0 0 9.764 4.11H8.492a.873.873 0 0 0-.867.867v1.735c0 1.11.914 2.023 2.023 2.023"/><path fill="url(#c)" d="M12.396 22.032h-5.06a.873.873 0 0 1-.867-.867c0-.413.298-.765.69-.848l.003.004h.012a.3.3 0 0 1 .05-.015 1 1 0 0 1 .112-.009h5.137c.11-.71.315-1.389.6-2.023H7.335a.867.867 0 0 1 0-1.734h6.805a8 8 0 0 1 2.444-2.024H7.336a1 1 0 0 1-.16-.015l-.022-.005-.08-.02-.015-.006-.066-.026-.02-.009-.072-.038-.013-.008a1 1 0 0 1-.097-.07q-.016-.012-.03-.025l-.045-.043-.026-.028-.043-.052-.02-.026a.857.857 0 0 1 0-.992l.02-.024.043-.053.026-.028.044-.042.03-.027a1 1 0 0 1 .098-.07l.012-.007a.8.8 0 0 1 .158-.073l.014-.005q.04-.012.081-.022l.022-.004a1 1 0 0 1 .16-.016h10.984a1 1 0 0 1 .16.016l.021.004a1 1 0 0 1 .082.022l.014.005.067.026.018.008.073.038.013.008a1 1 0 0 1 .097.07l.032.026q.023.02.043.043l.027.028q.023.024.043.052l.02.026q.029.04.053.084a.86.86 0 0 1 .105.412v.014a8 8 0 0 1 3.47.271V8.447q0-.083-.005-.164a3.18 3.18 0 0 0-3.175-3.016h-.088V6.71a3.385 3.385 0 0 1-3.38 3.381h-6.36q-.175 0-.346-.017a3.386 3.386 0 0 1-3.036-3.364V5.266H6.18A3.18 3.18 0 0 0 3 8.446V22.9a3.18 3.18 0 0 0 3.18 3.18h7.644a7.9 7.9 0 0 1-1.427-4.047z"/><path fill="#f9eb08" d="M20.316 14.836a6.683 6.683 0 1 0 0 13.367 6.683 6.683 0 0 0 0-13.367m3.84 8.804H19.31l.76.89-.992.848-2.602-3.044h7.679zm-7.68-2.935v-1.306h4.845l-.76-.89.992-.849 2.602 3.044z"/></svg>