<svg xmlns="http://www.w3.org/2000/svg" width="30" height="30" fill="none" viewBox="0 0 30 30"><linearGradient id="a" x1="6.039" x2="23.773" y1="9.64" y2="25.723" gradientUnits="userSpaceOnUse"><stop offset="0" stop-color="#41bf97"/><stop offset="1" stop-color="#71efc7"/></linearGradient><path fill="#f9eb08" d="M15 16.783a2.56 2.56 0 0 0-2.553 2.564v6.197h5.105v-6.197a2.56 2.56 0 0 0-2.553-2.564"/><path fill="url(#a)" d="M26.675 12.656 15.94 4.766a1.58 1.58 0 0 0-1.88 0l-10.735 7.89a.798.798 0 0 0 .469 1.442h2.27v11.446h4.999v-6.196c0-2.181 1.766-3.956 3.937-3.956s3.937 1.775 3.937 3.956v6.196h4.998V14.098h2.271a.797.797 0 0 0 .469-1.441z"/></svg>