<svg xmlns="http://www.w3.org/2000/svg" xmlns:xlink="http://www.w3.org/1999/xlink" width="30" height="30" fill="none" viewBox="0 0 30 30"><linearGradient id="a"><stop offset="0" stop-color="#41bf97"/><stop offset="1" stop-color="#71efc7"/></linearGradient><linearGradient xlink:href="#a" id="b" x1="6.996" x2="23.093" y1="12.667" y2="27.244" gradientUnits="userSpaceOnUse"/><linearGradient xlink:href="#a" id="c" x1="6.997" x2="23.094" y1="12.668" y2="27.244" gradientUnits="userSpaceOnUse"/><linearGradient xlink:href="#a" id="d" x1="6.997" x2="23.094" y1="12.668" y2="27.244" gradientUnits="userSpaceOnUse"/><linearGradient xlink:href="#a" id="e" x1="6.997" x2="23.094" y1="12.668" y2="27.244" gradientUnits="userSpaceOnUse"/><path fill="#f9eb08" d="M15 13.68c2.93 0 5.307-2.39 5.307-5.34S17.93 3 15 3 9.693 5.39 9.693 8.34 12.07 13.68 15 13.68zm0-9.005c2.008 0 3.642 1.644 3.642 3.665 0 .375-.303.68-.676.68s-.675-.305-.675-.68A2.3 2.3 0 0 0 15 6.035a.68.68 0 0 1-.676-.68c0-.375.303-.68.676-.68"/><g fill="#fff"><path d="M18.694 21.02c-.997.644-2.309 1-3.694 1s-2.697-.356-3.694-1c-1.089-.704-1.688-1.671-1.688-2.724q0-.291.06-.572c-.568.554-.892 1.193-.892 1.855 0 1.976 2.846 3.646 6.214 3.646s6.213-1.67 6.213-3.646c0-.662-.324-1.301-.892-1.855q.06.28.061.572c0 1.053-.6 2.02-1.689 2.724z"/><path d="M17.72 16.57v1.373c0 .532-.223 1.048-.63 1.454-.503.504-1.238.797-2.023.813L15 20.21h-.022c-.686-.005-1.337-.22-1.835-.61-.548-.424-.863-1.029-.863-1.658V16.57c-.818.447-1.311 1.077-1.311 1.726 0 1.282 1.845 2.364 4.03 2.364s4.032-1.082 4.032-2.364c0-.65-.494-1.279-1.312-1.726"/><path d="M15 15.092q-.705-.001-1.368-.142v2.993c0 .28.211.486.338.583.262.205.632.323 1.018.326H15c.45 0 .875-.156 1.138-.42.105-.104.23-.275.23-.489V14.95q-.665.14-1.368.142z"/><path d="M21.262 13.011H19.84a6.7 6.7 0 0 1-2.121 1.5v.39c2.92.73 4.846 2.565 4.846 4.678 0 1.399-.83 2.69-2.336 3.636-1.407.884-3.265 1.37-5.23 1.37s-3.82-.487-5.228-1.37c-1.507-.946-2.336-2.237-2.336-3.636 0-2.113 1.924-3.947 4.845-4.677v-.39a6.7 6.7 0 0 1-2.12-1.5H8.738C6.303 13.01 4.32 14.855 4.32 17.12v5.77C4.32 25.155 6.303 27 8.74 27h12.522c2.436 0 4.418-1.844 4.418-4.11v-5.77c0-2.265-1.982-4.109-4.418-4.109"/></g><path fill="url(#b)" d="M18.694 21.02c-.997.644-2.309 1-3.694 1s-2.697-.356-3.694-1c-1.089-.704-1.688-1.671-1.688-2.724q0-.291.06-.572c-.568.554-.892 1.193-.892 1.855 0 1.976 2.846 3.646 6.214 3.646s6.213-1.67 6.213-3.646c0-.662-.324-1.301-.892-1.855q.06.28.061.572c0 1.053-.6 2.02-1.689 2.724z"/><path fill="url(#c)" d="M17.72 16.57v1.373c0 .532-.223 1.048-.63 1.454-.503.504-1.238.797-2.023.813L15 20.21h-.022c-.686-.005-1.337-.22-1.835-.61-.548-.424-.863-1.029-.863-1.658V16.57c-.818.447-1.311 1.077-1.311 1.726 0 1.282 1.845 2.364 4.03 2.364s4.032-1.082 4.032-2.364c0-.65-.494-1.279-1.312-1.726"/><path fill="url(#d)" d="M15 15.092q-.705-.001-1.368-.142v2.993c0 .28.211.486.338.583.262.205.632.323 1.018.326H15c.45 0 .875-.156 1.138-.42.105-.104.23-.275.23-.489V14.95q-.665.14-1.368.142z"/><path fill="url(#e)" d="M21.262 13.011H19.84a6.7 6.7 0 0 1-2.121 1.5v.39c2.92.73 4.846 2.565 4.846 4.678 0 1.399-.83 2.69-2.336 3.636-1.407.884-3.265 1.37-5.23 1.37s-3.82-.487-5.228-1.37c-1.507-.946-2.336-2.237-2.336-3.636 0-2.113 1.924-3.947 4.845-4.677v-.39a6.7 6.7 0 0 1-2.12-1.5H8.738C6.303 13.01 4.32 14.855 4.32 17.12v5.77C4.32 25.155 6.303 27 8.74 27h12.522c2.436 0 4.418-1.844 4.418-4.11v-5.77c0-2.265-1.982-4.109-4.418-4.109"/></svg>