<svg xmlns="http://www.w3.org/2000/svg" width="30" height="30" fill="none" viewBox="0 0 30 30"><linearGradient id="a" x1="4.549" x2="25.45" y1="20.582" y2="20.582" gradientUnits="userSpaceOnUse"><stop offset="0" stop-color="#41bf97"/><stop offset="1" stop-color="#71efc7"/></linearGradient><path fill="url(#a)" d="M4.549 16.874v7.417A2.71 2.71 0 0 0 7.258 27h15.484a2.71 2.71 0 0 0 2.709-2.71v-7.416a2.71 2.71 0 0 0-2.702-2.709H7.251a2.71 2.71 0 0 0-2.702 2.71M20.15 20.92l-1.648-.459.423-1.248 1.573.668-.104-1.714h1.32l-.12 1.7 1.584-.653.427 1.247-1.642.438 1.137 1.284-1.046.815-.99-1.473-1.01 1.472-1.046-.814zm-5.911 0-1.648-.459.423-1.248 1.573.668-.104-1.714h1.32l-.12 1.7 1.584-.653.427 1.247-1.642.438 1.137 1.284-1.046.815-.988-1.473-1.011 1.472-1.046-.814zm-6.606.118-1.527-.426.575-1.697 1.462.62-.096-1.59h1.795l-.112 1.578 1.47-.606.582 1.697-1.524.407 1.055 1.191-1.422 1.107-.939-1.398-.96 1.397-1.421-1.107z"/><path fill="#f9eb08" d="M20.06 14.165V10.75c0-2.791-2.27-5.062-5.06-5.062s-5.062 2.27-5.062 5.062v3.415H7.25V10.75C7.25 6.476 10.727 3 15 3s7.749 3.476 7.749 7.75v3.415z"/></svg>