<svg xmlns="http://www.w3.org/2000/svg" width="30" height="30" fill="none" viewBox="0 0 30 30"><linearGradient id="a" x1="6.025" x2="23.975" y1="15" y2="15" gradientUnits="userSpaceOnUse"><stop offset="0" stop-color="#41bf97"/><stop offset="1" stop-color="#71efc7"/></linearGradient><path fill="#f9eb08" d="M24.236.549 20.751 6.08c2.925 1.892 4.865 5.183 4.865 8.919 0 2.856-1.134 5.451-2.975 7.361a5.69 5.69 0 0 0 4.859-5.62V9.698H30z"/><path fill="url(#a)" d="M6.025 15a8.975 8.975 0 1 0 17.95 0 8.975 8.975 0 0 0-17.95 0m5.558-1.459c0-1.268.92-2.334 2.761-2.592V9.725h1.582v1.201c.83.078 1.638.292 2.278.651l-.797 1.919c-.774-.393-1.504-.584-2.188-.584-.774 0-1.021.224-1.021.494 0 .942 4.342.157 4.342 3.053 0 1.212-.875 2.266-2.614 2.57v1.246h-1.582v-1.19c-1.123-.068-2.21-.37-2.884-.785l.853-1.93c.74.437 1.728.718 2.592.718.752 0 1.021-.157 1.021-.426 0-.988-4.342-.191-4.342-3.12z"/><path fill="#f9eb08" d="M4.384 15c0-2.856 1.134-5.452 2.975-7.362a5.69 5.69 0 0 0-4.858 5.62v7.046H0l5.764 9.147 3.485-5.532C6.324 22.026 4.384 18.736 4.384 15z"/></svg>