<svg xmlns="http://www.w3.org/2000/svg" xmlns:xlink="http://www.w3.org/1999/xlink" width="30" height="30" fill="none" viewBox="0 0 30 30"><linearGradient id="a"><stop offset="0" stop-color="#41bf97"/><stop offset="1" stop-color="#71efc7"/></linearGradient><linearGradient xlink:href="#a" id="b" x1="3.019" x2="26.98" y1="15" y2="15" gradientUnits="userSpaceOnUse"/><linearGradient xlink:href="#a" id="c" x1="20.012" x2="22.94" y1="8.503" y2="8.503" gradientUnits="userSpaceOnUse"/><path fill="url(#b)" d="m14.083 5.033 2.194.003h.277c.778 0 1.556.006 2.334.031.733.023 1.468.034 2.193.16 1.148.201 2.136.684 2.855 1.64.427.57.659 1.223.795 1.914.136.7.164 1.408.172 2.117.023 1.925.034 3.85.043 5.774q.009 1.085-.029 2.173c-.022.78-.037 1.564-.184 2.334-.223 1.155-.752 2.123-1.734 2.809-.543.38-1.155.587-1.797.714-.699.138-1.409.16-2.116.175-1.365.028-2.723.042-4.086.062v-.02c-.55 0-1.1.005-1.652.005q-.497 0-.994-.008c-.9-.016-1.8-.045-2.696-.096-.835-.048-1.641-.225-2.374-.646-1.067-.615-1.692-1.552-1.969-2.74a9 9 0 0 1-.206-1.784c-.017-.595-.04-1.19-.043-1.786-.011-1.846-.02-3.694-.009-5.543a52 52 0 0 1 .097-2.66c.05-.849.229-1.673.668-2.415.582-.99 1.454-1.603 2.558-1.897a8 8 0 0 1 1.728-.242 84 84 0 0 1 3.975-.074m0-2.033c-1.277 0-2.654.01-4.067.076-.799.035-1.504.136-2.156.308-1.648.439-2.957 1.417-3.79 2.829-.559.947-.868 2.035-.946 3.327v.005a53 53 0 0 0-.099 2.762 455 455 0 0 0 .009 5.569c.002.486.017.97.031 1.439l.012.392c.023.83.105 1.525.258 2.184v.004c.415 1.775 1.43 3.171 2.934 4.04h.002l.002.002c.944.542 2.014.84 3.269.912a73 73 0 0 0 3.426.106V27l2.062-.03 1.146-.016c.966-.012 1.964-.026 2.953-.046.814-.017 1.617-.045 2.468-.213 1.013-.2 1.853-.541 2.568-1.043 1.36-.95 2.223-2.326 2.564-4.087v-.002l.001-.003c.17-.884.194-1.75.215-2.515l.004-.136c.026-.726.035-1.482.03-2.248a795 795 0 0 0-.043-5.788c-.009-.774-.04-1.61-.21-2.48V8.39c-.213-1.084-.594-1.98-1.163-2.74-.977-1.302-2.367-2.116-4.132-2.424-.802-.14-1.557-.163-2.286-.184l-.19-.006a75 75 0 0 0-2.4-.032h-.277l-1.093-.001z"/><path fill="#f9eb08" d="M15.004 10.94a4.037 4.037 0 0 1 4.035 4.03 4.046 4.046 0 0 1-4.041 4.042h-.005c-2.224 0-4.03-1.809-4.03-4.036s1.812-4.036 4.041-4.036m0-2.033c-3.348 0-6.073 2.722-6.073 6.068s2.72 6.068 6.062 6.068h.005a6.08 6.08 0 0 0 6.073-6.073 6.07 6.07 0 0 0-6.067-6.063"/><path fill="url(#c)" d="M22.94 8.502c0 .81-.65 1.462-1.457 1.464a1.476 1.476 0 0 1-1.47-1.47 1.46 1.46 0 0 1 1.479-1.457c.823 0 1.449.644 1.449 1.462z"/></svg>