<svg xmlns="http://www.w3.org/2000/svg" xmlns:xlink="http://www.w3.org/1999/xlink" width="30" height="30" fill="none" viewBox="0 0 30 30"><linearGradient id="a"><stop offset="0" stop-color="#41bf97"/><stop offset="1" stop-color="#71efc7"/></linearGradient><linearGradient xlink:href="#a" id="b" x1="5.396" x2="24.634" y1="6.212" y2="23.711" gradientUnits="userSpaceOnUse"/><linearGradient xlink:href="#a" id="c" x1="5.397" x2="24.635" y1="6.212" y2="23.711" gradientUnits="userSpaceOnUse"/><linearGradient xlink:href="#a" id="d" x1="5.396" x2="24.634" y1="6.212" y2="23.711" gradientUnits="userSpaceOnUse"/><linearGradient xlink:href="#a" id="e" x1="5.396" x2="24.635" y1="6.211" y2="23.711" gradientUnits="userSpaceOnUse"/><linearGradient xlink:href="#a" id="f" x1="5.396" x2="24.634" y1="6.211" y2="23.711" gradientUnits="userSpaceOnUse"/><linearGradient xlink:href="#a" id="g" x1="5.396" x2="24.635" y1="6.211" y2="23.711" gradientUnits="userSpaceOnUse"/><linearGradient xlink:href="#a" id="h" x1="5.396" x2="24.634" y1="6.212" y2="23.711" gradientUnits="userSpaceOnUse"/><path fill="#f9eb08" d="M23.378 18.097c.072-.717.084-1.206.072-1.373l-.001-.019a17 17 0 0 0-.023-.38 8 8 0 0 1-.78.041c-1.71 0-4.318-.551-7.065-3.17C9.968 9.189 6.22 7.974 4.284 7.617A12.96 12.96 0 0 0 2 14.977q.001.907.122 1.782c3.106 1.747 10.667 4.824 21.256 1.337"/><g fill="#fff"><path d="M19.353 4.412c1.514 1.54 2.744 3.232 3.654 5.028a17.7 17.7 0 0 1 1.679 5.102q.162-.06.302-.125l.006-.003a4.7 4.7 0 0 0 2.063-1.802c.207-.34.368-.703.48-1.08-1.37-4.996-5.642-8.8-10.879-9.471.81.605 1.747 1.386 2.695 2.35M26.402 21.23c.549-1 .97-2.082 1.243-3.22-.992.444-1.971.84-2.924 1.177a28 28 0 0 1-.344 1.956c.755-.136 1.426-.106 2.025.088zM25.604 15.747q-.331.154-.734.281.024.3.04.6c.014.197.008.52-.019.934a41 41 0 0 0 3.046-1.302 13 13 0 0 0 .017-2.375 6.2 6.2 0 0 1-2.351 1.862z"/><path d="m16.475 12.034.043.03.038.037c2.41 2.313 4.642 2.799 6.09 2.799q.301-.001.614-.032c-.552-3.464-2.2-6.617-4.915-9.393A21.6 21.6 0 0 0 13.923 2a12.97 12.97 0 0 0-8.636 4.332c2.229.54 5.97 1.968 11.188 5.702zM22.23 23.482c-.709.351-1.46.769-2.238 1.204l-.092.051c-2.07 1.156-4.33 2.419-6.794 3.124Q14.034 28 15 28c2.122 0 4.126-.512 5.897-1.419.56-1.015.995-2.084 1.332-3.099M24.029 22.731l-.046.017a24 24 0 0 1-.768 2.315 13 13 0 0 0 2.36-2.52c-.435-.055-.942.007-1.546.188zM19.187 23.457l.094-.052c1.229-.686 2.39-1.333 3.48-1.771a27 27 0 0 0 .4-1.929c-3.161.975-6.274 1.464-9.302 1.464a27 27 0 0 1-4.412-.356 24.9 24.9 0 0 1-6.926-2.188 13.08 13.08 0 0 0 7.34 8.313c3.39-.165 6.54-1.924 9.327-3.48z"/></g><path fill="url(#b)" d="M19.353 4.412c1.514 1.54 2.744 3.232 3.654 5.028a17.7 17.7 0 0 1 1.679 5.102q.162-.06.302-.125l.006-.003a4.7 4.7 0 0 0 2.063-1.802c.207-.34.368-.703.48-1.08-1.37-4.996-5.642-8.8-10.879-9.471.81.605 1.747 1.386 2.695 2.35"/><path fill="url(#c)" d="M26.402 21.23c.549-1 .97-2.082 1.243-3.22-.992.444-1.971.84-2.924 1.177a28 28 0 0 1-.344 1.956c.755-.136 1.426-.106 2.025.088z"/><path fill="url(#d)" d="M25.604 15.747q-.331.154-.734.281.024.3.04.6c.014.197.008.52-.019.934a41 41 0 0 0 3.046-1.302 13 13 0 0 0 .017-2.375 6.2 6.2 0 0 1-2.351 1.862z"/><path fill="url(#e)" d="m16.475 12.034.043.03.038.037c2.41 2.313 4.642 2.799 6.09 2.799q.301-.001.614-.032c-.552-3.464-2.2-6.617-4.915-9.393A21.6 21.6 0 0 0 13.923 2a12.97 12.97 0 0 0-8.636 4.332c2.229.54 5.97 1.968 11.188 5.702z"/><path fill="url(#f)" d="M22.23 23.482c-.709.351-1.46.769-2.238 1.204l-.092.051c-2.07 1.156-4.33 2.419-6.794 3.124Q14.034 28 15 28c2.122 0 4.126-.512 5.897-1.419.56-1.015.995-2.084 1.332-3.099"/><path fill="url(#g)" d="m24.029 22.731-.046.017a24 24 0 0 1-.768 2.315 13 13 0 0 0 2.36-2.52c-.435-.055-.942.007-1.546.188z"/><path fill="url(#h)" d="m19.187 23.457.094-.052c1.229-.686 2.39-1.333 3.48-1.771a27 27 0 0 0 .4-1.929c-3.161.975-6.274 1.464-9.302 1.464a27 27 0 0 1-4.412-.356 24.9 24.9 0 0 1-6.926-2.188 13.08 13.08 0 0 0 7.34 8.313c3.39-.165 6.54-1.924 9.327-3.48z"/></svg>