<svg xmlns="http://www.w3.org/2000/svg" width="30" height="30" fill="none" viewBox="0 0 30 30"><linearGradient id="a" x1="5.391" x2="24.612" y1="6.246" y2="23.76" gradientUnits="userSpaceOnUse"><stop offset="0" stop-color="#41bf97"/><stop offset="1" stop-color="#71efc7"/></linearGradient><path fill="url(#a)" d="M2.97 19.912q.013.04.028.082a.3.3 0 0 0 .038.067s0 .01.004.011a12.9 12.9 0 0 0 6.924 6.908q.014.012.038.02a.1.1 0 0 0 .038.02.1.1 0 0 0 .042.013.1.1 0 0 0 .042.012 12.93 12.93 0 0 0 9.824-.029q.021-.004.038-.012.041-.018.076-.038a12.92 12.92 0 0 0 6.955-7.003l.001-.004a12.93 12.93 0 0 0 .008-9.865.4.4 0 0 0-.029-.078q-.002-.015-.012-.028.001-.004-.002-.005a12.95 12.95 0 0 0-7.023-6.997 12.9 12.9 0 0 0-9.862-.015s-.001.004-.005.002q-.04.011-.082.028-.04.017-.077.038c-.001.004-.005.002-.005.002a12.93 12.93 0 0 0-6.943 6.998l-.002.004a12.94 12.94 0 0 0-.013 9.867zm7.809 6.458 1.14-2.764a9.06 9.06 0 0 0 6.183.001l1.147 2.753a12.03 12.03 0 0 1-8.47.01m15.578-15.618a12.06 12.06 0 0 1 .014 8.472L23.6 18.08a9.05 9.05 0 0 0 .002-6.182zm-7.131-7.12-1.142 2.767a9.1 9.1 0 0 0-6.19.005l-1.146-2.756a12.07 12.07 0 0 1 8.478-.017zm-7.405 3.732a8.26 8.26 0 0 1 6.296-.022l.008.003c.01.009.018.012.03.017s.02.009.034.01l.008.003a8.22 8.22 0 0 1 4.431 4.426l.003.006.01.022c.001.006.006.017.005.021.84 2.03.84 4.27 0 6.305a8.25 8.25 0 0 1-4.47 4.489l-.005.002a8.24 8.24 0 0 1-6.286.021l-.008-.003q-.014-.011-.03-.017a.1.1 0 0 0-.034-.01l-.008-.003a8.26 8.26 0 0 1-4.447-4.456 8.24 8.24 0 0 1-.002-6.334 8.2 8.2 0 0 1 4.466-4.481zm-5.42 4.555a9.08 9.08 0 0 0 0 6.193l-2.757 1.145a12.04 12.04 0 0 1-.011-8.48z"/><path fill="#f9eb08" d="M16.932 11.873c-.57-.468-1.162-.951-1.614-1.488a.4.4 0 0 0-.305-.142h-.023a.4.4 0 0 0-.305.142c-.453.536-1.044 1.02-1.614 1.487-1.209.99-2.459 2.014-2.459 3.599 0 1.437 1.006 2.441 2.447 2.441.573 0 1.089-.28 1.483-.588-.246.836-.591 1.774-1.035 2.436.996-.178 2-.17 2.988 0-.44-.662-.784-1.598-1.03-2.434.393.307.906.586 1.479.586 1.44 0 2.446-1.004 2.446-2.44 0-1.585-1.25-2.61-2.458-3.6z"/></svg>