<svg xmlns="http://www.w3.org/2000/svg" xmlns:xlink="http://www.w3.org/1999/xlink" width="30" height="30" fill="none" viewBox="0 0 30 30"><linearGradient id="a"><stop offset="0" stop-color="#41bf97"/><stop offset="1" stop-color="#71efc7"/></linearGradient><linearGradient xlink:href="#a" id="b" x1="4.357" x2="25.057" y1="5.593" y2="25.032" gradientUnits="userSpaceOnUse"/><linearGradient xlink:href="#a" id="c" x1="4.358" x2="25.057" y1="5.593" y2="25.032" gradientUnits="userSpaceOnUse"/><linearGradient xlink:href="#a" id="d" x1="4.358" x2="25.057" y1="5.593" y2="25.032" gradientUnits="userSpaceOnUse"/><path fill="#f9eb08" d="M25.833 5.702 24.48 3.15c-.267-.502-.719-.874-1.273-1.047s-1.146-.125-1.664.133l-6.95 3.467zM4.166 24.3l1.353 2.552A2.19 2.19 0 0 0 7.462 28c.335 0 .675-.075.993-.234l6.95-3.467z"/><g fill="#fff"><path d="M15.15 12.687a.62.62 0 0 0-.631-.612c-.348 0-.631.274-.631.612s.283.612.63.612a.62.62 0 0 0 .632-.612M20.41 17.792c-.349 0-.632.275-.632.612s.283.613.631.613.631-.275.631-.613-.283-.612-.63-.612"/><path d="M28 11.302v-2.59c0-.823-.638-1.49-1.427-1.49H8.321v1.462c0 .404-.337.732-.754.732s-.754-.328-.754-.732V7.222H3.427C2.639 7.222 2 7.889 2 8.712v2.59c1.08.413 1.863 1.638 1.863 3.085S3.08 17.06 2 17.472v3.817c0 .823.638 1.491 1.427 1.491h3.386v-1.463c0-.404.338-.731.754-.731s.754.327.754.731v1.463h18.252c.788 0 1.427-.667 1.427-1.49v-3.818c-1.08-.413-1.863-1.638-1.863-3.085s.783-2.673 1.863-3.085m-19.679 7.49c0 .403-.337.73-.754.73s-.754-.327-.754-.73v-2.527c0-.404.338-.732.754-.732s.754.328.754.732zm0-5.054c0 .404-.337.731-.754.731s-.754-.327-.754-.731V11.21c0-.404.338-.731.754-.731s.754.327.754.731zm4.002-1.051c0-1.176.985-2.132 2.196-2.132s2.197.956 2.197 2.132-.985 2.131-2.197 2.131c-1.211 0-2.196-.956-2.196-2.131m2.203 6.442a.76.76 0 0 1-.533-.215.716.716 0 0 1 0-1.034l5.878-5.703a.77.77 0 0 1 1.066 0 .716.716 0 0 1 0 1.034l-5.878 5.703a.76.76 0 0 1-.533.215m5.884 1.407c-1.212 0-2.197-.956-2.197-2.132s.985-2.13 2.197-2.13c1.21 0 2.196.955 2.196 2.13s-.985 2.132-2.197 2.132"/></g><path fill="url(#b)" d="M15.15 12.687a.62.62 0 0 0-.631-.612c-.348 0-.631.274-.631.612s.283.612.63.612a.62.62 0 0 0 .632-.612"/><path fill="url(#c)" d="M20.41 17.792c-.349 0-.632.275-.632.612s.283.613.631.613.631-.275.631-.613-.283-.612-.63-.612"/><path fill="url(#d)" d="M28 11.302v-2.59c0-.823-.638-1.49-1.427-1.49H8.321v1.462c0 .404-.337.732-.754.732s-.754-.328-.754-.732V7.222H3.427C2.639 7.222 2 7.889 2 8.712v2.59c1.08.413 1.863 1.638 1.863 3.085S3.08 17.06 2 17.472v3.817c0 .823.638 1.491 1.427 1.491h3.386v-1.463c0-.404.338-.731.754-.731s.754.327.754.731v1.463h18.252c.788 0 1.427-.667 1.427-1.49v-3.818c-1.08-.413-1.863-1.638-1.863-3.085s.783-2.673 1.863-3.085m-19.679 7.49c0 .403-.337.73-.754.73s-.754-.327-.754-.73v-2.527c0-.404.338-.732.754-.732s.754.328.754.732zm0-5.054c0 .404-.337.731-.754.731s-.754-.327-.754-.731V11.21c0-.404.338-.731.754-.731s.754.327.754.731zm4.002-1.051c0-1.176.985-2.132 2.196-2.132s2.197.956 2.197 2.132-.985 2.131-2.197 2.131c-1.211 0-2.196-.956-2.196-2.131m2.203 6.442a.76.76 0 0 1-.533-.215.716.716 0 0 1 0-1.034l5.878-5.703a.77.77 0 0 1 1.066 0 .716.716 0 0 1 0 1.034l-5.878 5.703a.76.76 0 0 1-.533.215m5.884 1.407c-1.212 0-2.197-.956-2.197-2.132s.985-2.13 2.197-2.13c1.21 0 2.196.955 2.196 2.13s-.985 2.132-2.197 2.132"/></svg>