<svg xmlns="http://www.w3.org/2000/svg" width="30" height="30" fill="none" viewBox="0 0 30 30"><linearGradient id="a" x1="5.292" x2="18.596" y1="11.452" y2="28.447" gradientUnits="userSpaceOnUse"><stop offset="0" stop-color="#41bf97"/><stop offset="1" stop-color="#71efc7"/></linearGradient><path fill="#f9eb08" d="M16.612 16.47 26.84 6.344a1.5 1.5 0 0 0-.286-.029H3.447a1.4 1.4 0 0 0-.323.037l10.22 10.118a2.33 2.33 0 0 0 3.269 0z"/><path fill="url(#a)" d="M26.85 23.654a1.4 1.4 0 0 1-.297.03H3.446q-.151 0-.296-.03l7.581-7.53 1.493 1.477a3.9 3.9 0 0 0 2.753 1.128c.936 0 1.871-.33 2.61-.991l.144-.137 1.515-1.499zM9.6 15.004l-7.572 7.521A1.5 1.5 0 0 1 2 22.238V7.762q.002-.132.024-.26zm18.37-7.538q.03.144.03.296v14.476q0 .147-.028.287l-7.595-7.543z"/></svg>