<svg xmlns="http://www.w3.org/2000/svg" width="30" height="30" fill="none" viewBox="0 0 30 30"><linearGradient id="a" x1="3" x2="27" y1="15" y2="15" gradientUnits="userSpaceOnUse"><stop offset="0" stop-color="#41bf97"/><stop offset="1" stop-color="#71efc7"/></linearGradient><path fill="#f9eb08" d="M18.9 17.895 19.343 15h-2.779v-1.88c0-.791.388-1.564 1.633-1.564h1.263V9.091s-1.147-.195-2.242-.195c-2.289 0-3.784 1.387-3.784 3.897V15h-2.543v2.895h2.543v7a10 10 0 0 0 3.13 0v-7z"/><path fill="url(#a)" d="M15 4.983c5.532 0 10.017 4.485 10.017 10.017S20.532 25.017 15 25.017 4.983 20.532 4.983 15 9.468 4.983 15 4.983M15 3a11.957 11.957 0 0 0-8.485 3.515A11.96 11.96 0 0 0 3 15a11.957 11.957 0 0 0 3.515 8.485A11.96 11.96 0 0 0 15 27a11.958 11.958 0 0 0 8.485-3.515A11.96 11.96 0 0 0 27 15a11.958 11.958 0 0 0-3.515-8.485A11.96 11.96 0 0 0 15 3"/></svg>