<svg xmlns="http://www.w3.org/2000/svg" width="48" height="48" viewBox="0 0 48 48"><title>icon-set/icon-speaker</title><g fill="none" fill-rule="evenodd"><path d="M0 0h48v48H0z"/><path fill="#6f87d6" fill-rule="nonzero" d="m26.683 32.804 1.287 1.286a4.076 4.076 0 0 1 0 5.79l-1.93 1.929 1.608 1.608c.965.965.965 2.895 0 3.86s-2.894.964-3.86 0l-6.431-6.111 3.86-3.86 3.215 2.895 1.93-1.93q.965-.964 0-1.93l-1.93-1.929c.965-.643 1.608-1.286 2.251-1.608m-16.08-8.683 10.291 10.291-7.397 7.397c-1.608 1.608-4.502 1.608-6.11 0l-4.181-4.18c-1.608-1.609-1.608-4.503 0-6.111zm2.894 7.397c-.321-.644-1.286-.644-1.93 0l-1.929 1.93c-.643.642-.643 1.607 0 1.929.643.643 1.608.643 1.93 0l1.93-1.93c.643-.643.643-1.608 0-1.93m5.468-22.835L36.332 26.05h-.644c-4.824.965-9.648 3.538-13.185 6.754L12.21 22.513q4.824-5.79 6.754-13.508zM19.93.965c.964-.965 2.894-.965 3.859 0l18.653 18.331c.965.965.965 2.895 0 3.86s-2.894.965-3.86 0L19.93 4.824c-.965-1.286-.965-2.894 0-3.86m23.799 9.326c.643 0 1.286.644 1.286 1.608s-.643 1.93-1.286 1.93h-2.573c-.643 0-1.287-.643-1.287-1.608s.644-1.608 1.287-1.608h2.573zM39.226 3.86q.965-.965 1.93 0 .965.966 0 1.93l-2.573 2.573q-.965.965-1.93 0t0-1.93zM31.186 0c.965 0 1.608.643 1.608 1.286V3.86c0 .644-.643 1.287-1.608 1.287s-1.608-.643-1.608-1.287V1.286C29.578.643 30.22 0 31.186 0"/></g></svg>