<svg xmlns="http://www.w3.org/2000/svg" xmlns:xlink="http://www.w3.org/1999/xlink" viewBox="0 0 30 30"><title>leftmenu/sports/color/icon-cricket</title><defs><path id="a" d="M14.459 3.31c-.555.616-.006 2.014 1.226 3.123 1.23 1.109 2.679 1.508 3.233.893.554-.616.005-2.014-1.226-3.123-.84-.755-1.779-1.181-2.468-1.181-.322 0-.589.093-.765.289"/></defs><g fill="none" fill-rule="evenodd" transform="translate(3 3)"><path fill="#fff5e3" d="M10.543.091q-.227.222-.444.457-.222.24-.431.488a15.7 15.7 0 0 0-1.506 2.135c-.958 1.623-1.649 3.41-2.088 5.241-.49 2.042-.645 4.13-.596 6.225.044 1.836.207 3.696.672 5.478q.628.352 1.301.627a12 12 0 0 1-.125-.385 16.6 16.6 0 0 1-.505-2.286q-.023-.153-.045-.307l-.003-.024-.002-.011-.002-.018-.023-.178a30.177 30.177 0 0 1-.175-2.168 30 30 0 0 1 .01-3.187q.023-.369.06-.738l.037-.354.021-.176.01-.088c.002-.006.005-.032.008-.057l.001-.01.003-.018.002-.015.003-.02.012-.088.026-.174q.028-.184.059-.368.062-.364.136-.725a19.621 19.621 0 0 1 1.009-3.375l.061-.151.025-.061.008-.019q.062-.148.128-.294.271-.608.588-1.194.313-.578.67-1.13.17-.263.352-.518.086-.122.175-.243l.09-.12.042-.054c.027-.036.035-.044.03-.036l.116-.137.123-.157.125-.155q.2-.235.411-.46.205-.22.42-.43.212-.207.434-.404l.018-.015q.208-.182.423-.356l.034-.032C12.161.005 12.081 0 12 0c-.494 0-.979.033-1.457.091m2.688.366a.398.398 0 0 0 .346.199c.096 0 .19-.034.267-.102L13.86.54q.187-.166.378-.324l.006-.005a12 12 0 0 0-1.016-.15.4.4 0 0 0 .004.395M7.454.894a.4.4 0 0 0 .099.382.398.398 0 0 0 .287.121.4.4 0 0 0 .317-.156q.105-.135.212-.269l.112-.137A.4.4 0 0 0 8.565.5q-.569.17-1.111.393m4.28.723c-.236.292-.467.6-.686.914a.4.4 0 0 0 .1.558.399.399 0 0 0 .557-.1q.313-.45.652-.867a.4.4 0 0 0-.06-.564.4.4 0 0 0-.564.06M6.31 2.55a19 19 0 0 0-.523.95.4.4 0 0 0 .173.54q.09.045.183.044a.4.4 0 0 0 .357-.218q.24-.465.5-.91a.4.4 0 0 0-.142-.548.4.4 0 0 0-.548.142m3.564 1.936c-.172.334-.336.68-.49 1.028a.4.4 0 0 0 .206.528.4.4 0 0 0 .528-.205q.22-.503.468-.983a.4.4 0 0 0-.172-.54.4.4 0 0 0-.54.173m-4.97.99c-.128.334-.25.677-.361 1.02a.4.4 0 0 0 .256.504q.063.02.125.02a.4.4 0 0 0 .38-.277c.108-.329.225-.659.348-.98a.4.4 0 0 0-.23-.518.402.402 0 0 0-.518.23m4.032 1.889a.4.4 0 0 0-.343.28c-.11.36-.212.728-.303 1.096a.4.4 0 0 0 .293.485.401.401 0 0 0 .485-.293 20 20 0 0 1 .291-1.052.4.4 0 0 0-.265-.5l-.08-.017zm-4.64.908a.4.4 0 0 0-.317.309c-.076.351-.144.708-.202 1.063a.4.4 0 0 0 .33.46.4.4 0 0 0 .46-.33c.056-.341.122-.685.195-1.023a.4.4 0 0 0-.307-.477l-.08-.01zm3.86 2.365a.4.4 0 0 0-.292.333c-.051.371-.093.751-.125 1.128a.4.4 0 0 0 .366.433h.034a.4.4 0 0 0 .399-.366q.045-.546.12-1.087a.4.4 0 0 0-.343-.451l-.081-.003zm-4.622 1.155c-.022.36-.036.723-.04 1.081a.4.4 0 0 0 .396.406.4.4 0 0 0 .405-.396c.004-.346.017-.696.039-1.04a.4.4 0 0 0-.375-.426h-.025a.4.4 0 0 0-.4.375m4.525 2.165a.4.4 0 0 0-.397.405c.004.382.015.761.032 1.128a.4.4 0 0 0 .4.382h.019a.4.4 0 0 0 .381-.42 30 30 0 0 1-.03-1.098.4.4 0 0 0-.4-.397zm-4.145.642a.4.4 0 0 0-.381.42q.026.55.067 1.072a.4.4 0 0 0 .399.368h.032a.4.4 0 0 0 .367-.432 31 31 0 0 1-.065-1.046.4.4 0 0 0-.4-.382zm4.324 2.694a.4.4 0 0 0-.343.45c.053.384.115.761.185 1.122a.4.4 0 0 0 .392.325q.039 0 .077-.008a.4.4 0 0 0 .317-.47 20 20 0 0 1-.177-1.077.4.4 0 0 0-.37-.345zm-4.05.476a.4.4 0 0 0-.328.462q.023.134.049.267.451.412.946.777a.4.4 0 0 0-.004-.16 18 18 0 0 1-.201-1.017.4.4 0 0 0-.381-.334zm4.722 2.793c-.21.073-.32.3-.249.51l.038.104q.464.132.942.228-.118-.29-.222-.593a.4.4 0 0 0-.379-.27.4.4 0 0 0-.13.021"/><path fill="#f6e3d0" d="M4.07 19.294a.399.399 0 0 0 .48.301.4.4 0 0 0 .305-.32 12 12 0 0 1-.946-.777c.05.272.102.54.16.796m2.093.877c.155.584.345 1.166.583 1.727q.126.298.27.585.148.294.317.576.253.105.512.201l.125.044q.186.067.376.127.105.034.21.065.142.042.287.081l.156.041a.7.7 0 0 0-.123-.217l-.12-.147q-.028-.033-.054-.068l-.011-.015-.044-.06a7.993 7.993 0 0 1-.358-.538v.001a9.302 9.302 0 0 1-.478-.905l-.09-.202-.059-.144a12 12 0 0 1-.211-.581 12 12 0 0 1-1.301-.626zm-1.23.689a.401.401 0 0 0-.222.521l.092.222q.197.146.4.285.114.078.232.155l.048.03a.398.398 0 0 0 .175-.52 10 10 0 0 1-.195-.451l-.009-.02a.4.4 0 0 0-.352-.251h-.021q-.075 0-.148.029m4.148 1.282a.4.4 0 0 0 .529.202.4.4 0 0 0 .203-.53q-.089-.2-.172-.41a12 12 0 0 1-.941-.228c.117.333.244.658.381.966m1.42 1.366a.398.398 0 0 0-.335.349q.458.07.928.105l.025.002a9 9 0 0 1-.235-.3.4.4 0 0 0-.322-.161q-.03 0-.061.005"/><path fill="#c63c4f" d="M12.207.038q-.216.174-.423.356l-.018.016q-.222.195-.434.404-.214.209-.42.428-.21.225-.41.46l-.126.156-.123.157-.116.137c.005-.008-.003 0-.03.036l-.042.055-.09.12q-.089.12-.175.242-.181.255-.352.518-.357.551-.67 1.13-.317.586-.588 1.194-.066.146-.128.294l-.008.019-.025.06-.06.152q-.13.323-.248.651c-.318.888-.571 1.8-.762 2.724q-.075.36-.136.725l-.059.368-.026.174-.012.087-.003.02-.002.016-.002.013-.002.015-.007.057-.011.088-.02.176-.039.354q-.035.369-.06.738a30 30 0 0 0-.009 3.188q.033.737.1 1.472.034.348.075.695l.023.178.002.018.002.014.003.021q.022.154.045.307c.118.772.28 1.538.505 2.286q.06.194.125.385.609.25 1.248.434l-.038-.104a.4.4 0 1 1 .758-.26q.105.301.222.592c.763.152 1.552.233 2.36.233 6.224 0 11.34-4.738 11.941-10.803l-.023-.221q-.012-.106-.027-.211-.074-.55-.197-1.09l-.029-.125a12 12 0 0 0-.086-.338l-.046-.162q-.058-.203-.122-.403a12 12 0 0 0-.12-.354l-.058-.156q-.076-.203-.159-.401l-.03-.071A12.03 12.03 0 0 0 15.379.485a12 12 0 0 0-.44-.121q-.089-.021-.176-.041-.224-.054-.452-.099l-.073-.007q-.191.158-.378.324l-.014.013a.4.4 0 0 1-.566-.032.4.4 0 0 1-.052-.46 12 12 0 0 0-.614-.047q-.185-.008-.372-.009zm-1.06 3.05a.4.4 0 0 1-.1-.557q.33-.474.687-.914a.401.401 0 0 1 .623.505q-.339.417-.652.867a.398.398 0 0 1-.557.1M9.59 6.042a.4.4 0 0 1-.206-.528c.154-.348.318-.694.49-1.028a.4.4 0 0 1 .712.367q-.248.482-.468.984a.4.4 0 0 1-.528.205M8.583 9.225a.4.4 0 0 1-.293-.485c.091-.368.193-.736.303-1.095a.4.4 0 1 1 .766.235c-.106.345-.204.7-.291 1.053a.398.398 0 0 1-.485.293m-.478 3.306a.4.4 0 0 1-.366-.434c.032-.376.074-.756.125-1.128a.4.4 0 1 1 .793.109q-.073.54-.12 1.087a.4.4 0 0 1-.398.367zm-.411 2.959a31 31 0 0 1-.032-1.128.4.4 0 1 1 .801-.008c.004.372.014.742.031 1.098a.4.4 0 0 1-.381.42h-.02a.4.4 0 0 1-.4-.382m.386 3.375c-.07-.361-.132-.738-.185-1.121a.4.4 0 0 1 .343-.451l.08-.003a.4.4 0 0 1 .371.345q.076.555.177 1.077a.4.4 0 0 1-.316.47.4.4 0 0 1-.47-.317M8.565.5a.4.4 0 0 1-.083.334l-.113.137q-.107.134-.212.27a.401.401 0 0 1-.562.072l-.043-.038a.4.4 0 0 1-.099-.382c-.577.236-1.133.515-1.66.834l-.026.016q-.241.145-.473.303l-.011.007a12 12 0 0 0-1.759 1.45l-.02.02q-.192.193-.375.394l-.053.06q-.348.385-.661.801l-.08.108q-.099.134-.194.273-.077.11-.15.22l-.058.09A12.1 12.1 0 0 0 .1 10.462l-.01.068q-.016.146-.03.293a11.97 11.97 0 0 0 3.849 7.674l-.05-.267a.4.4 0 0 1 .329-.462l.08-.005a.4.4 0 0 1 .382.334c.06.35.127.693.201 1.018a.4.4 0 0 1 .004.16q.618.46 1.295.84c-.465-1.783-.628-3.643-.672-5.48-.049-2.095.106-4.182.596-6.224.44-1.83 1.13-3.618 2.088-5.24.442-.749.943-1.469 1.506-2.136q.21-.25.43-.488.218-.235.445-.457-1.019.124-1.978.41M5.96 4.038a.4.4 0 0 1-.173-.54q.25-.485.523-.949a.4.4 0 0 1 .69.407c-.173.294-.341.6-.5.91a.398.398 0 0 1-.54.173M4.8 7a.4.4 0 0 1-.257-.505c.111-.342.233-.685.361-1.02a.401.401 0 0 1 .748.288c-.123.321-.24.651-.348.98a.4.4 0 0 1-.38.277.4.4 0 0 1-.124-.02m-.693 3.105a.4.4 0 0 1-.33-.46q.087-.535.202-1.063a.4.4 0 1 1 .783.17 21 21 0 0 0-.195 1.023.4.4 0 0 1-.394.335.4.4 0 0 1-.066-.005m-.613 2.77q.007-.542.04-1.082a.4.4 0 0 1 .8.05c-.022.345-.035.695-.038 1.04a.4.4 0 1 1-.801-.009M3.6 16.09q-.042-.522-.067-1.073a.402.402 0 0 1 .8-.037q.025.537.065 1.046a.4.4 0 0 1-.367.431l-.032.001a.4.4 0 0 1-.4-.368"/><path fill="#93293b" d="M.056 10.855Q0 11.414 0 11.988v.028q0 .297.015.592v.014q.016.29.044.575l.014.121q.023.197.05.391.016.112.034.225.016.096.035.193.044.249.1.498l.023.102q.057.249.126.496l.04.137q.063.222.137.441l.036.107q.075.218.159.434.054.141.111.281l.048.112q.1.234.21.463 0 .003.003.007.118.244.247.483l.048.088q.108.195.224.389l.052.087q.437.715.966 1.358l.033.04q.167.202.344.397l.042.046q.18.197.367.385l.02.02q.6.596 1.275 1.104l-.092-.221a.401.401 0 0 1 .222-.521.401.401 0 0 1 .52.222h.001l.009.02q.094.232.195.451a.4.4 0 0 1-.175.52l.057.037q.177.114.357.222l.128.073q.16.093.324.182.14.074.283.145.093.048.188.094.253.122.513.233a9.814 9.814 0 0 1-.587-1.16 13 13 0 0 1-.583-1.728l-.013-.056q-.677-.379-1.295-.84a.4.4 0 0 1-.305.32.401.401 0 0 1-.48-.301 19 19 0 0 1-.161-.796 11.97 11.97 0 0 1-3.85-7.674q-.002.015-.003.031M12 21.637c-.808 0-1.597-.081-2.36-.233q.084.21.172.41c.09.203 0 .44-.203.53a.4.4 0 0 1-.529-.202 13 13 0 0 1-.381-.966 12 12 0 0 1-1.249-.434q.098.293.212.581c.017.045.036.09.058.144l.09.202a8.229 8.229 0 0 0 .478.905q.079.129.16.253.096.145.198.285l.044.06.01.014q.028.035.054.068.06.075.121.147.086.102.123.217l.055.015q.218.055.438.1l.113.025q.265.054.533.095l.027.004a.402.402 0 0 1 .336-.349.4.4 0 0 1 .216.026c.064.027.123.07.167.13q.114.154.235.3l.145.011.196.011q.266.013.536.014h.022q.286 0 .567-.015.031 0 .062-.003l.045-.003a12 12 0 0 0 .608-.05l.161-.02q.24-.029.478-.067.099-.016.197-.035.218-.039.433-.085.105-.023.21-.049.206-.048.41-.104l.21-.06q.202-.06.4-.126l.202-.068q.205-.073.406-.153l.18-.07q.222-.094.442-.196.063-.028.125-.057.283-.134.557-.282l.021-.012q.246-.133.485-.279l.009-.005q.072-.044.14-.09.154-.094.304-.194.109-.074.215-.15.113-.078.224-.159l.224-.17.198-.156q.115-.093.227-.188l.178-.154q.115-.102.228-.206l.156-.149q.117-.112.232-.227l.12-.126q.297-.309.572-.639l.036-.043q.154-.189.301-.384l.05-.065q.154-.207.298-.42.052-.077.102-.154.086-.132.169-.265.068-.108.132-.219.063-.105.122-.21.069-.12.134-.242.054-.101.103-.201.114-.222.217-.447.048-.104.094-.208l.108-.254.095-.242q.046-.115.088-.232.08-.22.151-.446l.06-.203q.046-.15.086-.302l.06-.23q.033-.136.063-.274.075-.333.129-.67.031-.195.056-.391l.006-.047q.037-.295.06-.592l.017-.229.008-.187q.008-.202.01-.406v-.154q0-.255-.012-.509l-.011-.172a12 12 0 0 0-.028-.364q-.002-.03-.006-.057c-.6 6.065-5.717 10.803-11.94 10.803"/><use xlink:href="#a" fill="#e6576b"/></g></svg>