<svg xmlns="http://www.w3.org/2000/svg" width="30" height="30" fill="none" viewBox="0 0 30 30"><g fill="#fff"><path d="M5.453 3h7.344a2.454 2.454 0 0 1 2.453 2.453v7.343a2.454 2.454 0 0 1-2.453 2.453H5.453A2.454 2.454 0 0 1 3 12.796V5.453A2.454 2.454 0 0 1 5.453 3M20.256 6.052h4.291A2.454 2.454 0 0 1 27 8.505v4.292a2.454 2.454 0 0 1-2.453 2.453h-4.291a2.454 2.454 0 0 1-2.453-2.453V8.506a2.454 2.454 0 0 1 2.453-2.453zM20.256 17.803h4.291A2.454 2.454 0 0 1 27 20.255v4.292A2.454 2.454 0 0 1 24.548 27h-4.291a2.454 2.454 0 0 1-2.453-2.453v-4.29a2.454 2.454 0 0 1 2.453-2.454zM8.505 17.803h4.291a2.454 2.454 0 0 1 2.454 2.452v4.292A2.454 2.454 0 0 1 12.797 27H8.505a2.454 2.454 0 0 1-2.453-2.453v-4.292a2.454 2.454 0 0 1 2.453-2.453z"/><path d="M20.256 6.052h4.291A2.454 2.454 0 0 1 27 8.505v4.292a2.454 2.454 0 0 1-2.453 2.453h-4.291a2.454 2.454 0 0 1-2.453-2.453V8.506a2.454 2.454 0 0 1 2.453-2.453zM20.256 17.803h4.291A2.454 2.454 0 0 1 27 20.255v4.292A2.454 2.454 0 0 1 24.548 27h-4.291a2.454 2.454 0 0 1-2.453-2.453v-4.29a2.454 2.454 0 0 1 2.453-2.454zM8.505 17.803h4.291a2.454 2.454 0 0 1 2.454 2.452v4.292A2.454 2.454 0 0 1 12.797 27H8.505a2.454 2.454 0 0 1-2.453-2.453v-4.292a2.454 2.454 0 0 1 2.453-2.453z"/></g></svg>