<svg xmlns="http://www.w3.org/2000/svg" width="32" height="28" fill="none" viewBox="0 0 32 28"><path fill="#64adad" fill-rule="evenodd" d="M.407 12.512a2.93 2.93 0 0 0 0 2.976l6.47 11A3.1 3.1 0 0 0 9.557 28h12.885a3.1 3.1 0 0 0 2.681-1.512l6.47-11a2.93 2.93 0 0 0 0-2.976l-6.47-11A3.1 3.1 0 0 0 22.443 0H9.557a3.1 3.1 0 0 0-2.681 1.512zM11.555 7h6.236l.017.017a4.37 4.37 0 0 1 4.363 4.363c0 .98-.344 1.89-.893 2.629.137.175.26.278.369.368.337.282.524.439.524 2.26A4.37 4.37 0 0 1 17.808 21h-6.253a1.73 1.73 0 0 1-1.735-1.735V8.735A1.73 1.73 0 0 1 11.555 7m7.146 4.363a.916.916 0 0 0-.91-.91v.017h-4.518v1.804h4.518c.498 0 .91-.413.91-.91m-.91 4.363h-4.518v1.821h4.518c.498 0 .91-.412.91-.91a.916.916 0 0 0-.91-.91" clip-rule="evenodd"/></svg>