<svg xmlns="http://www.w3.org/2000/svg" width="32" height="28" fill="none" viewBox="0 0 32 28"><path fill="#6482ad" fill-rule="evenodd" d="M.407 15.488a2.93 2.93 0 0 1 0-2.976l6.47-11A3.1 3.1 0 0 1 9.557 0h12.885c1.108 0 2.132.577 2.681 1.512l6.47 11a2.93 2.93 0 0 1 0 2.976l-6.47 11A3.1 3.1 0 0 1 22.443 28H9.557a3.1 3.1 0 0 1-2.681-1.512zM20.446 7h-8.881A1.73 1.73 0 0 0 9.83 8.735a1.73 1.73 0 0 0 1.735 1.735h8.881a1.73 1.73 0 0 0 1.735-1.735c0-.962-.79-1.735-1.735-1.735m-8.881 5.274h8.881a1.73 1.73 0 0 1 1.735 1.735 1.73 1.73 0 0 1-1.735 1.735H13.3v3.538a1.73 1.73 0 0 1-1.735 1.735 1.73 1.73 0 0 1-1.735-1.735V14.01a1.73 1.73 0 0 1 1.735-1.735" clip-rule="evenodd"/></svg>