<svg xmlns="http://www.w3.org/2000/svg" width="32" height="28" fill="none" viewBox="0 0 32 28"><path fill="#64ad6b" fill-rule="evenodd" d="M.407 12.512a2.93 2.93 0 0 0 0 2.976l6.47 11A3.1 3.1 0 0 0 9.557 28h12.885a3.1 3.1 0 0 0 2.681-1.512l6.47-11a2.93 2.93 0 0 0 0-2.976l-6.47-11A3.1 3.1 0 0 0 22.443 0H9.557a3.1 3.1 0 0 0-2.681 1.512zm13.78-.245h3.604l.017.017a4.364 4.364 0 0 1 4.358 4.358A4.364 4.364 0 0 1 17.808 21h-5.559c-.96 0-1.733-.772-1.733-1.733 0-.96.772-1.733 1.733-1.733h5.542c.497 0 .91-.412.91-.909a.915.915 0 0 0-.91-.91h-3.603a4.364 4.364 0 0 1-4.358-4.357A4.364 4.364 0 0 1 14.188 7h5.559a1.724 1.724 0 1 1 0 3.448h-5.56a.915.915 0 0 0-.909.91c0 .497.412.91.91.91" clip-rule="evenodd"/></svg>