<svg xmlns="http://www.w3.org/2000/svg" width="32" height="28" fill="none" viewBox="0 0 32 28"><g fill="#cb6b6b" clip-path="url(#a)"><path d="M18.261 14a2.261 2.261 0 1 1-4.523 0 2.261 2.261 0 0 1 4.523 0"/><path fill-rule="evenodd" d="M30.48 1.52A4.5 4.5 0 0 0 27.288.198H4.711A4.524 4.524 0 0 0 .197 4.711v18.578a4.524 4.524 0 0 0 4.514 4.513H27.29a4.524 4.524 0 0 0 4.514-4.513V4.71a4.5 4.5 0 0 0-1.324-3.19M10.41 19.59a1.126 1.126 0 0 1-1.59 1.59 10.13 10.13 0 0 1 0-14.36 1.127 1.127 0 0 1 1.59 1.59 7.9 7.9 0 0 0 0 11.18M16 18.514A4.514 4.514 0 1 1 20.514 14 4.524 4.524 0 0 1 16 18.514m7.18 2.666a1.127 1.127 0 0 1-1.59-1.59 7.9 7.9 0 0 0 0-11.18 1.126 1.126 0 0 1 1.59-1.59 10.133 10.133 0 0 1 0 14.361" clip-rule="evenodd"/></g><defs><clipPath id="a"><path fill="#fff" d="M0 0h32v28H0z"/></clipPath></defs></svg>