<svg xmlns="http://www.w3.org/2000/svg" width="21" height="19" fill="none" viewBox="0 0 21 19"><path fill="url(#a)" fill-rule="evenodd" d="M4 0h13a4 4 0 0 1 4 4v9a4 4 0 0 1-4 4H4a4 4 0 0 1-4-4V4a4 4 0 0 1 4-4m3 17h7v2H7zM4 2a2 2 0 0 0-2 2v8a2 2 0 0 0 2 2h13a2 2 0 0 0 2-2V4a2 2 0 0 0-2-2zm11 6.024L8 12V4z" clip-rule="evenodd"/><path fill="url(#b)" fill-rule="evenodd" d="M4 2h13a2 2 0 0 1 2 2v8a2 2 0 0 1-2 2H4a2 2 0 0 1-2-2V4a2 2 0 0 1 2-2m11 6.024L8 4v8z" clip-rule="evenodd"/><defs><linearGradient id="a" x1="10.5" x2="10.5" y1="0" y2="19" gradientUnits="userSpaceOnUse"><stop stop-color="#fff"/><stop offset="1" stop-color="#ececec"/></linearGradient><linearGradient id="b" x1="10.5" x2="10.5" y1="2" y2="14" gradientUnits="userSpaceOnUse"><stop stop-color="#279ce6"/><stop offset="1" stop-color="#0b7dc5"/></linearGradient></defs></svg>