<svg xmlns="http://www.w3.org/2000/svg" width="37" height="22" fill="none" viewBox="0 0 37 22"><g filter="url(#a)"><rect width="32" height="14" x="2.501" y="1" fill="#d0021b" rx="3"/><path fill="#fff" d="M14.285 11.5h-1.582l-2.522-4.562V11.5H8.678V4.957h2.017l2.087 3.748V4.957h1.503zm3.766.132q-1.397 0-2.144-.668-.743-.668-.743-1.903 0-1.209.694-1.93t1.943-.72q1.134 0 1.705.611.57.61.571 1.749v.554h-3.37q.021.342.145.575.123.229.325.365.198.136.461.198a2.7 2.7 0 0 0 1.103 0q.26-.062.475-.158.188-.084.347-.18.162-.097.264-.172h.162v1.27l-.347.14a3 3 0 0 1-.426.128q-.25.066-.519.101-.262.04-.646.04m.51-3.235q-.013-.487-.229-.742-.21-.255-.65-.255-.448 0-.703.268-.251.268-.277.73zm9.66-1.832L26.778 11.5h-1.635l-.866-3.19-.87 3.19h-1.635l-1.428-4.935h1.617l.756 3.265.936-3.265h1.358l.883 3.265.743-3.265z"/><path fill="#d0021b" d="m15.251 19 6.5-4h-5.5z"/></g><defs><filter id="a" width="36" height="22" x=".501" y="0" color-interpolation-filters="sRGB" filterUnits="userSpaceOnUse"><feFlood flood-opacity="0" result="BackgroundImageFix"/><feColorMatrix in="SourceAlpha" result="hardAlpha" values="0 0 0 0 0 0 0 0 0 0 0 0 0 0 0 0 0 0 127 0"/><feOffset dy="1"/><feGaussianBlur stdDeviation="1"/><feComposite in2="hardAlpha" operator="out"/><feColorMatrix values="0 0 0 0 0 0 0 0 0 0 0 0 0 0 0 0 0 0 0.35 0"/><feBlend in2="BackgroundImageFix" result="effect1_dropShadow_164_2253"/><feBlend in="SourceGraphic" in2="effect1_dropShadow_164_2253" result="shape"/></filter></defs></svg>