<svg xmlns="http://www.w3.org/2000/svg" width="21" height="19" fill="none" viewBox="0 0 21 19"><path fill="url(#a)" d="M17 2H4a2 2 0 0 0-2 2v8a2 2 0 0 0 2 2h13a2 2 0 0 0 2-2V4a2 2 0 0 0-2-2"/><path fill="url(#b)" d="m14.066 5.614-.93-.93L10.5 7.32 7.864 4.684l-.93.93L9.57 8.25l-2.636 2.636.93.93L10.5 9.18l2.636 2.636.93-.93L11.43 8.25z"/><path fill="url(#c)" fill-rule="evenodd" d="M21 4a4 4 0 0 0-4-4H4a4 4 0 0 0-4 4v9a4 4 0 0 0 4 4h3v2h7v-2h3a4 4 0 0 0 4-4zM4 2h13a2 2 0 0 1 2 2v8a2 2 0 0 1-2 2H4a2 2 0 0 1-2-2V4a2 2 0 0 1 2-2" clip-rule="evenodd"/><defs><linearGradient id="a" x1="10.5" x2="10.5" y1="0" y2="19" gradientUnits="userSpaceOnUse"><stop stop-color="#e07034"/><stop offset="1" stop-color="#d35d25"/></linearGradient><linearGradient id="b" x1="10.5" x2="10.5" y1="0" y2="19" gradientUnits="userSpaceOnUse"><stop stop-color="#fff"/><stop offset="1" stop-color="#efefef"/></linearGradient><linearGradient id="c" x1="10.5" x2="10.5" y1="0" y2="19" gradientUnits="userSpaceOnUse"><stop stop-color="#fff"/><stop offset="1" stop-color="#efefef"/></linearGradient></defs></svg>