<svg xmlns="http://www.w3.org/2000/svg" width="15" height="15" fill="none" viewBox="0 0 15 15"><rect width="15" height="15" fill="#60ba1e" rx="4"/><path fill="#fff" fill-rule="evenodd" d="M7.5 11.923q1.601 0 2.724-1.128a3.71 3.71 0 0 0 1.123-2.718q0-1.59-1.123-2.705Q9.102 4.256 7.5 4.256q-1.601 0-2.724 1.116-1.124 1.115-1.123 2.705 0 1.59 1.123 2.718T7.5 11.923m0-8.77q2.066.001 3.512 1.45 1.446 1.447 1.446 3.474 0 2.026-1.446 3.474T7.5 13t-3.512-1.449q-1.446-1.448-1.446-3.474t1.446-3.474Q5.434 3.154 7.5 3.154m.284 2.206v2.872l2.195 1.282-.413.666-2.608-1.538V5.359zM5.229 2.82 2.697 4.923 2 4.103 4.53 2zM13 4.103l-.697.846-2.53-2.129.696-.82z" clip-rule="evenodd"/></svg>