<svg xmlns="http://www.w3.org/2000/svg" width="32" height="32" fill="none" viewBox="0 0 32 32"><g clip-path="url(#a)"><path fill="#386abd" fill-rule="evenodd" d="M32 2.672C32 1.197 30.8 0 29.328 0H2.672A2.675 2.675 0 0 0 0 2.672v26.656A2.67 2.67 0 0 0 2.672 32h26.656C30.803 32 32 30.8 32 29.328zM18.498 20.324l.065-.004h8.95a6.9 6.9 0 0 1-.94 1.488q-.927 1.124-2.354 1.883-1.433.756-3.264.757H4.933c-1.586 0-2.709-1.453-2.216-2.867l3.174-9.093h7.034l-.605 1.755h7c.453 0 .904-.1 1.304-.296q.747-.372.939-.912l.117-.331a.63.63 0 0 0 .01-.45q-.224-.758-1.41-.758l-16.968.027L4.75 7.4h19.782q1.87 0 3.104.579 1.232.582 1.536 1.6c.127.475.133.974.018 1.453a6.6 6.6 0 0 1-1.602 3.093q-.612.662-1.27.995a3.02 3.02 0 0 1 1.568 1.893c.214.712.206 1.496-.02 2.339h-7.316q.059-.099.094-.208l.138-.379a.94.94 0 0 0 .027-.522q-.204-.685-1.39-.686h-8.234l-.976 2.77h8.221z" clip-rule="evenodd"/></g><defs><clipPath id="a"><path fill="#fff" d="M0 0h32v32H0z"/></clipPath></defs></svg>