<svg xmlns="http://www.w3.org/2000/svg" viewBox="0 0 75 75"><title>in&amp;out/color-black/crypto/btc</title><g fill="none" fill-rule="nonzero"><path fill="#f7931a" d="M73.879 46.572c-5.01 20.09-25.36 32.314-45.454 27.306C8.34 68.869-3.887 48.52 1.123 28.433 6.13 8.34 26.479-3.887 46.567 1.123 66.66 6.13 78.887 26.48 73.877 46.571z"/><path fill="#fff" d="M54.037 32.158c.745-4.99-3.055-7.672-8.25-9.462l1.685-6.76-4.116-1.024-1.64 6.58c-1.081-.269-2.192-.523-3.296-.775l1.652-6.625-4.112-1.025-1.687 6.757c-.895-.204-1.774-.405-2.628-.618l.005-.02-5.675-1.417-1.094 4.394s3.053.7 2.988.743c1.667.416 1.97 1.519 1.918 2.393l-1.92 7.7c.115.03.264.072.428.137l-.434-.107-2.692 10.787c-.204.506-.72 1.265-1.886.977.041.06-2.99-.746-2.99-.746l-2.044 4.71 5.356 1.335c.997.25 1.973.511 2.933.757l-1.703 6.838 4.11 1.026 1.688-6.765c1.121.305 2.211.586 3.278.851l-1.68 6.733 4.114 1.025 1.703-6.824c7.017 1.328 12.294.792 14.513-5.552 1.79-5.11-.088-8.057-3.78-9.98 2.689-.622 4.714-2.39 5.254-6.043zM44.634 45.34c-1.273 5.11-9.876 2.349-12.666 1.655l2.26-9.057c2.789.696 11.732 2.074 10.407 7.402zm1.271-13.256c-1.16 4.648-8.321 2.286-10.645 1.708l2.049-8.215c2.324.579 9.806 1.66 8.596 6.507"/></g></svg>