<svg xmlns="http://www.w3.org/2000/svg" viewBox="0 0 75 75"><title>in&amp;out/color-white/crypto/eth</title><g fill="none" fill-rule="nonzero"><path fill="#e5e5e5" d="M37.5 0C58.21 0 75 16.79 75 37.5S58.209 75 37.5 75 0 58.214 0 37.5 16.788 0 37.5 0"/><path fill="#343434" d="m37.995 10-.371 1.276v37.029l.371.374L54.99 38.52z"/><path fill="#8c8c8c" d="M37.995 10 21 38.52l16.995 10.16V30.706z"/><path fill="#3c3c3b" d="m37.995 51.934-.21.258v13.19l.21.618L55 41.779z"/><path fill="#8c8c8c" d="M37.995 66V51.934L21 41.779z"/><path fill="#141414" d="M37.995 48.68 54.99 38.52l-16.995-7.813z"/><path fill="#393939" d="m21 38.52 16.995 10.16V30.706z"/></g></svg>