<svg xmlns="http://www.w3.org/2000/svg" width="32" height="32" fill="none" viewBox="0 0 32 32"><g clip-path="url(#a)"><path fill="#4290a3" fill-rule="evenodd" d="M29.328 0A2.675 2.675 0 0 1 32 2.672v26.656A2.675 2.675 0 0 1 29.328 32H2.672A2.67 2.67 0 0 1 0 29.328V2.672A2.675 2.675 0 0 1 2.672 0zM4.107 20.323l-1.44 4.128h7.05l1.44-4.128zM29.333 7.4l-1.44 4.12H14.227l-.934 2.678h11.942l-1.206 3.456H12.091l-.595 1.704h-7.05L8.092 8.907A2.325 2.325 0 0 1 10.312 7.4z" clip-rule="evenodd"/></g><defs><clipPath id="a"><path fill="#fff" d="M0 0h32v32H0z"/></clipPath></defs></svg>