<svg xmlns="http://www.w3.org/2000/svg" xml:space="preserve" id="圖層_1" x="0" y="0" viewBox="0 0 25 25"><style>.st0{fill:#333}</style><g id="icon-set最新整理"><g id="images_x2F_h5_x2F_icon-set" transform="translate(-275 -256)"><g id="icon-eye-close-type03" transform="translate(275 256)"><g id="Group-7" transform="translate(3 4)"><path id="Shape" d="M18.9 8.5c0 1.8-3.9 5.6-9.4 5.6-5.4 0-9.4-3.8-9.4-5.6 0-1.9 4-5.6 9.4-5.6 5.6 0 9.4 3.7 9.4 5.6M9.5 3.9C7 3.9 5 6 5 8.5s2 4.6 4.5 4.6S14 11 14 8.5s-2-4.6-4.5-4.6m0 1.7c-1.6 0-2.9 1.3-2.9 2.9s1.3 2.9 2.9 2.9 2.9-1.3 2.9-2.9-1.3-2.9-2.9-2.9" class="st0"/><path id="Rectangle" d="m16 1.7.3.3c.4.4.4 1 0 1.4L4.5 15.3c-.4.4-1 .4-1.4 0l-.4-.3c-.4-.4-.4-1 0-1.4L14.5 1.7c.4-.4 1.1-.4 1.5 0" class="st0"/></g></g></g></g></svg>