<svg xmlns="http://www.w3.org/2000/svg" width="21" height="19" viewBox="0 0 21 19"><title>icon-TV_close</title><defs><linearGradient id="a" x1="50%" x2="50%" y1="0%" y2="100%"><stop offset="0%" stop-color="#fff"/><stop offset="100%" stop-color="#e0e0e0"/></linearGradient><linearGradient id="b" x1="50%" x2="50%" y1="0%" y2="100%"><stop offset="0%" stop-color="#f07b2f"/><stop offset="100%" stop-color="#df5b00"/></linearGradient></defs><g fill="none" fill-rule="evenodd"><path fill="url(#a)" d="M17 0a4 4 0 0 1 4 4v9a4 4 0 0 1-4 4h-3v2H7v-2H4a4 4 0 0 1-4-4V4a4 4 0 0 1 4-4zm0 2H4a2 2 0 0 0-2 2v8a2 2 0 0 0 2 2h13a2 2 0 0 0 2-2V4a2 2 0 0 0-2-2"/><rect width="17" height="12" x="2" y="2" fill="url(#b)" rx="2"/><path fill="#fff" d="m13.136 4.684.93.93L11.43 8.25l2.636 2.636-.93.93L10.5 9.18l-2.636 2.636-.93-.93L9.57 8.25 6.934 5.614l.93-.93L10.5 7.32z"/></g></svg>