<svg xmlns="http://www.w3.org/2000/svg" viewBox="0 0 30 30"><title>leftmenu/my/icon-info</title><path fill="#e9e9e9" fill-rule="nonzero" d="M15.5 3C22.405 3 28 8.595 28 15.5c0 4.415-2.295 8.295-5.75 10.52v.125h-.195A12.45 12.45 0 0 1 15.5 28c-2.405 0-4.65-.68-6.555-1.855H8.75v-.125C5.29 23.795 3 19.915 3 15.5 3 8.595 8.595 3 15.5 3m.005 2.5c-5.515 0-10 4.485-10 10A9.96 9.96 0 0 0 8.9 22.99a6.7 6.7 0 0 1 1.98-3.515c.445-.415 1.105-.54 1.655-.27a6.7 6.7 0 0 0 2.965.69 6.7 6.7 0 0 0 2.965-.69c.545-.27 1.21-.15 1.655.27a6.74 6.74 0 0 1 1.98 3.515c2.08-1.835 3.4-4.51 3.405-7.49 0-5.515-4.485-10-10-10M15.5 8.855c2.49 0 4.51 1.97 4.51 4.4s-2.02 4.4-4.51 4.4-4.51-1.97-4.51-4.4 2.02-4.4 4.51-4.4"/></svg>