<svg xmlns="http://www.w3.org/2000/svg" width="25" height="25" viewBox="0 0 25 25"><title>icon-eye-open-type03</title><path fill="#333" fill-rule="nonzero" d="M21.75 12.622c0 1.797-3.865 5.628-9.375 5.628C7.006 18.25 3 14.482 3 12.622 3 10.763 7.024 7 12.375 7c5.552 0 9.376 3.763 9.375 5.622m-9.367-4.595c-2.495 0-4.517 2.058-4.517 4.597s2.023 4.598 4.517 4.598c2.496 0 4.519-2.059 4.519-4.598s-2.023-4.597-4.519-4.597m-.008 1.663c-1.59 0-2.877 1.311-2.877 2.928 0 1.618 1.288 2.927 2.877 2.927s2.877-1.31 2.877-2.928-1.288-2.927-2.877-2.927"/></svg>