<svg xmlns="http://www.w3.org/2000/svg" width="21.435" height="21.435" viewBox="0 0 21.435 21.435"><title>Icon</title><path fill="#000" fill-rule="nonzero" d="M10.831 3.533 8 6.363l1.36 1.362 2.832-2.831c1.21-1.21 3.174-1.182 4.365.009 1.19 1.19 1.194 3.179.009 4.364L13.735 12.1l1.336 1.336 2.831-2.831c1.936-1.936 1.954-5.112-.015-7.08-1.944-1.945-5.12-1.927-7.056.009M8.414 14.07l5.657-5.657L12.657 7 7 12.657zm-3.548 2.45a3.09 3.09 0 0 1-.001-4.358l2.83-2.831L6.365 8l-2.831 2.831a4.98 4.98 0 0 0 .003 7.068c1.937 1.938 5.108 1.963 7.068.003l2.831-2.83-1.38-1.381-2.831 2.83a3.07 3.07 0 0 1-4.358 0"/></svg>