<svg xmlns="http://www.w3.org/2000/svg" width="32" height="32" fill="none" viewBox="0 0 32 32"><g clip-path="url(#a)"><path fill="#f23b3b" d="M29.093 32H2.907A2.914 2.914 0 0 1 0 29.093V8.725c0-1.6 1.307-2.909 2.907-2.909h8.73l-1.6-3.928a2.02 2.02 0 0 1 0-1.307c.144-.146.435-.437.726-.437h.584a1.09 1.09 0 0 1 1.016.725l2.184 4.947h2.906L19.637.872q.436-.87 1.307-.872c.437 0 .728.293 1.019.581a1.41 1.41 0 0 1 .146 1.31l-1.746 3.928h8.728c1.6 0 2.909 1.306 2.909 2.906v20.366C32 30.69 30.693 32 29.093 32M12.944 13.093h-.293c-.144.144-.291.288-.291.435v9.744c0 .147.147.437.293.437h.291c.144 0 .144 0 .29-.146l7.707-4.944c.147-.147.294-.294.294-.438s-.147-.29-.294-.434L13.384 12.8c-.29.293-.435.293-.435.293z"/></g><defs><clipPath id="a"><path fill="#fff" d="M0 0h32v32H0z"/></clipPath></defs></svg>