<svg xmlns="http://www.w3.org/2000/svg" viewBox="0 0 127.56 27.9"><defs><style>.cls-1{fill:#14a0ff}.cls-2{fill:#fff}</style></defs><title>logo_dark_bg</title><g id="Слой_2" data-name="Слой 2"><g id="Layer_1" data-name="Layer 1"><path d="M73.8 8.37C74.94 3.79 72.16 0 65.35 0H50.59l-5.53 22.4 3.21 5.51h10.5c6.88 0 12.21-3.21 13.58-8.79.69-2.86-.11-4.86-1.91-5.86v-.07a7.78 7.78 0 0 0 3.36-4.82m-9 10.57c-.28 1.17-1.07 2.37-4.34 2.37h-6.7l1.17-4.8h6.67c3.23-.01 3.47 1.22 3.16 2.43Zm1.34-10.42c-.24.9-.93 2-3.75 2h-6l1-3.9h6c2.85-.02 2.99.9 2.75 1.9M83.09 17.1h13.44l1.53-6.6H84.71l1.04-3.9h13.22L100.5 0H78.8l-6.88 27.9H96.5l1.61-6.6H82.1zM102.38 0l-1.54 6.6h8.03l-5.27 21.3h8.43l5.28-21.3h8.6l1.65-6.6z" class="cls-1"/><path d="M8.82 27.9H.32L4 13l.85-2.25L2.6 13 .1 15.53 0 8.09 8.82 0h6.87Z" class="cls-2"/><path d="m39.51 16.34-2.71-4.59L49.95 0H37.7l-5 4.8-16.96 15.55L7.6 27.9h11.59l8.71-7.77 2.93 5c1 1.26 2.41 2.79 8.39 2.79h7l-6.7-11.59ZM31.76 3.26V3.2A7.69 7.69 0 0 0 25.12 0h-9.05l6.75 11.48Z" class="cls-2"/></g></g></svg>