<svg xmlns="http://www.w3.org/2000/svg" width="222" height="53" viewBox="0 0 222 53"><title>logo</title><g fill="#1e1e1e" fill-rule="evenodd"><path d="M7.045 34.209a80 80 0 0 1 1.882-2.85c2.568-3.72 5.55-7.44 8.906-10.908C26.525 11.469 36.049 5.808 46.2 4.853 52.735 9.652 57 17.559 57 26.5 57 41.136 45.572 53 31.474 53c-9.397 0-17.608-5.272-22.039-13.122C6.612 42.067 2.86 45.5 0 50.023.926 46.867 4.628 37.78 7.045 34.21Zm-1.092-7.213c2-2.83 4.189-5.619 6.555-8.275C21.03 9.155 30.266 2.97 40.004 1.516q1.596.588 3.087 1.381c-9.638 1.714-18.638 7.39-26.859 15.884-3.452 3.568-6.512 7.386-9.149 11.206q-.39.566-.753 1.107a27.6 27.6 0 0 1-.377-4.098m.246-4.227C7.946 9.9 18.596 0 31.474 0q1.76.001 3.46.241c-8.546 2.56-16.612 8.485-24.091 16.88a94 94 0 0 0-4.644 5.648m31.253 8.32-1.306 3.255q-1.063 2.647-3.721 4.564t-5.318 1.917h-3.204l-1.307 3.256h4.806q4.655 0 9.326-3.355t6.533-7.994l4.567-11.38q1.062-2.647-.065-4.564-1.129-1.917-3.772-1.917h-6.469q-2.645 0-5.31 1.917-2.666 1.917-3.729 4.564l-2.613 6.511q-1.068 2.663.07 4.572 1.137 1.91 3.767 1.91h3.235q2.856 0 4.51-3.257m-2.548-9.791q.528-1.197 1.873-2.072 1.346-.876 2.684-.876 1.325 0 1.905.869.582.87.048 2.079l-2.63 5.952q-.528 1.196-1.882 2.072t-2.676.876q-1.353 0-1.917-.876t-.035-2.072zM98 15 82.623 46h-6.159l.995-16.68L69.197 46H63l1.874-31h6.235l-1.032 16.68L78.3 15h6.235l-1.033 16.68L91.765 15zM123.695 9.684l.591-1.678h-3.757l.343-.944c.212-.595-.187-1.062-.886-1.062h-2.481c-.71 0-1.434.476-1.643 1.062l-.343.944h-2.505l.343-.944c.212-.595-.187-1.062-.886-1.062h-2.481c-.709 0-1.434.476-1.643 1.062l-.343.944h-3.757l-.592 1.678L90.711 46h5.01l12.756-35.79h2.505L98.226 46h5.01l12.756-35.79h2.505L105.741 46h5.01zM134.453 41.644q-1.53 4.474-10.21 4.353-3.69-.04-5.354-.692-1.89-.732-1.889-2.481 0-.773.315-1.709l7.377-21.762q.72-2.157 3.959-3.336Q131.304 15 134.498 15q6.074 0 8.502 1.302l-3.869 11.47h-7.557l2.16-6.426q.09-.244.09-.448 0-.69-.765-.691-1.08 0-1.485 1.139l-6.387 18.996a.6.6 0 0 0-.09.285q0 .61.855.61 1.035 0 1.349-.895l2.879-8.46h7.557zM166 15l-11.033 14.11h.78c2.11 0 2.473.983 2.473 3.117q0 .674-.264 2.106-.22 1.6-2.813 8.845-.352 1.137.044 2.822h-7.165q-.396-1.263.132-2.822l2.857-9.056q.132-.378.132-.674 0-.968-1.363-.968L145.473 46H138l9.89-31h7.473l-3.429 10.698L160.637 15zM172.753 46H159l10.247-31H183l-1.594 4.844h-6.011l-2.596 7.834h4.873l-1.594 4.844h-4.873l-2.87 8.592h6.058zM201.425 19.844h-4.68L188.436 46H181l8.31-26.156h-4.724L186.161 15H203zM215.533 38.106q-1.107 3.207-1.196 3.33-.886 2.139-2.037 2.92Q209.465 46 204.06 46 199.5 46 196 44.931l3.72-11.306h6.866l-1.86 5.715q-.222.615-.222 1.11 0 1.11 1.063 1.11 1.418 0 2.17-2.2.754-2.199.754-4.173 0-1.274-.355-1.562l-4.34-3.577q-1.418-1.152-1.418-3.454 0-1.233.487-2.138l1.684-5.221q.664-1.48.885-1.81.621-.78 2.082-1.562 2.17-.863 5.98-.863 4.253 0 8.504.863l-3.543 10.731h-6.91l1.506-4.563q.22-.782.221-1.275 0-.822-.664-.822-.975 0-1.24.205-.487.37-.975 1.85-.487 1.48-.487 2.508 0 1.727 1.417 2.878l4.075 3.29q1.063.904 1.063 2.877 0 1.933-.93 4.564"/></g></svg>