<svg xmlns="http://www.w3.org/2000/svg" width="32" height="32" fill="none" viewBox="0 0 32 32"><g clip-path="url(#a)"><path fill="#d45f2b" fill-rule="evenodd" d="M29.328 0A2.675 2.675 0 0 1 32 2.672v26.656A2.675 2.675 0 0 1 29.328 32H2.672A2.67 2.67 0 0 1 0 29.328V2.672A2.675 2.675 0 0 1 2.672 0zm-3.499 20.324v.003H18.53q-.02 0-.038.004l-.042.004H2.664l-.08.23c-.39 1.066-.152 1.973.707 2.703q1.302 1.103 3.733 1.102h12.483q2.434.001 4.045-1.102 1.614-1.101 2.197-2.706l.08-.235h.003zm3.037-8.884.08-.232q.549-1.604-.728-2.704Q26.935 7.4 24.505 7.4H12.197c-1.624 0-3.005.368-4.152 1.104-1.147.733-1.899 1.637-2.267 2.704l-.885 2.6q-.585 1.603.715 2.707 1.296 1.102 3.728 1.1h10.016q.456.001.336.302l-.421 1.206H26.2l.48-1.414q.585-1.604-.715-2.704c-.864-.736-2.11-1.104-3.728-1.104H12.221c-.306 0-.43-.098-.373-.304l.65-1.853q.12-.306.582-.304z" clip-rule="evenodd"/></g><defs><clipPath id="a"><path fill="#fff" d="M0 0h32v32H0z"/></clipPath></defs></svg>