<svg xmlns="http://www.w3.org/2000/svg" viewBox="0 0 75 75"><title>in&amp;out/color-black/crypto/trc20</title><g fill="none" fill-rule="nonzero"><rect width="75" height="75" fill="#ffdede" rx="37.5"/><path fill="#ffdede" d="M52.815 23.815c-.044-.033-.088-.066-.144-.1-.22-.164-.475-.34-.784-.439l-.022-.01c-5.344-1.286-10.777-2.604-16.033-3.878-4.77-1.153-9.53-2.307-14.3-3.46-.12-.033-.242-.066-.375-.099-.43-.12-.927-.252-1.457-.186a1 1 0 0 0-.409.153l-.132.11c-.21.198-.32.45-.376.593l-.033.088v.505l.022.077c3.015 8.403 6.106 16.927 9.088 25.176 2.296 6.348 4.682 12.928 7.011 19.386.144.44.553.725 1.06.769h.11c.476 0 .895-.23 1.105-.604l8.745-12.687c2.132-3.086 4.263-6.183 6.394-9.27.872-1.263 1.744-2.537 2.617-3.8 1.435-2.087 2.915-4.24 4.384-6.338l.077-.11v-.132c.033-.384.044-1.175-.596-1.592-1.91-1.33-3.954-2.746-5.952-4.152"/><path fill="#ee3030" d="M52.648 23.168c-.22-.165-.41-.254-.72-.353q-10.84-2.152-16.096-3.427c-4.77-1.153-9.53-2.307-14.3-3.46-.12-.033-.242-.066-.375-.099-.43-.12-.927-.252-1.457-.186a1 1 0 0 0-.409.153l-.132.11c-.21.198-.32.45-.376.593l-.033.088v.505l.022.077c3.015 8.403 6.106 16.927 9.088 25.176 2.296 6.348 4.682 12.928 7.011 19.386.144.44.553.725 1.06.769h.11c.476 0 .895-.23 1.105-.604l8.745-12.687c2.132-3.086 4.263-6.183 6.394-9.27.872-1.263 1.744-2.537 2.617-3.8 1.435-2.087 2.915-4.24 4.384-6.338l.077-.11v-.132c.033-.384.044-1.175-.596-1.592-1.829-1.411-6.064-4.766-6.119-4.8M42.524 34.744c1.232-1.344 8.677-7.57 8.8-7.717q.82.576 2.687 2.187m-15.622 5.487c-3.67-3.625-12.655-14.098-12.865-14.347q1.282.324 22.677 5.189c-2.134 2.228-7.643 7.345-9.812 9.158m1.279 5.117q.12-.067 14.36-7.46c-2.352 3.435-14.996 21.021-15.875 22.34.11-1.33 1.449-13.894 1.515-14.88m-3.063-.755c-.13 1.128-1.03 14.19-1.128 15.11-.054-.164-7.294-19.354-10.975-29.7 2.932 3.573 11.702 14.14 12.103 14.59"/></g></svg>