<svg xmlns="http://www.w3.org/2000/svg" width="32" height="32" fill="none" viewBox="0 0 32 32"><g clip-path="url(#a)"><path fill="#c73a54" fill-rule="evenodd" d="M32 2.672C32 1.197 30.8 0 29.328 0H2.672A2.675 2.675 0 0 0 0 2.672v26.656A2.67 2.67 0 0 0 2.672 32h26.656C30.803 32 32 30.8 32 29.328zM29.03 8l-4.166 11.962h-7.072L21.978 8zM17.078 20.924H4.301l-.09.248c-.397 1.091-.159 2.014.724 2.757.883.754 2.152 1.121 3.809 1.121h9.505c1.656 0 2.995-.377 4.036-1.12 1.042-.755 1.756-1.667 2.153-2.758l.089-.248zM15.623 8l-4.196 11.962H4.405L8.571 8z" clip-rule="evenodd"/></g><defs><clipPath id="a"><path fill="#fff" d="M0 0h32v32H0z"/></clipPath></defs></svg>