<svg xmlns="http://www.w3.org/2000/svg" width="20" height="16" viewBox="0 0 20 16"><title>Combined Shape</title><path fill="#000" fill-rule="nonzero" d="M16.358 0c.42 0 .736.172.966.525.573.882 1.16 1.77 1.726 2.63l.719 1.093c.334.509.308.899-.091 1.347L10.77 15.59q-.366.409-.775.41c-.265 0-.517-.131-.747-.39l-1.99-2.231c1.908-1.03 3.222-2.926 3.934-5.589l2.147.195a.557.557 0 0 0 .54-.82l-2.903-5.36a.557.557 0 0 0-.904-.108l-4.247 4.71a.557.557 0 0 0 .363.928l2.51.229c-.594 1.918-1.573 3.093-2.945 3.637a1.3 1.3 0 0 0-.29.163l-5.15-5.78C-.07 5.156-.1 4.75.214 4.273l.833-1.265.022-.034C1.6 2.165 2.15 1.33 2.694.498c.215-.33.524-.497.916-.497 1.592.004 3.207.003 4.77.003h3.2c1.568 0 3.186.002 4.778-.004"/></svg>