<svg xmlns="http://www.w3.org/2000/svg" width="13" height="13" viewBox="0 0 13 13"><title>iconmonstr-info-6</title><path fill="#fc6d55" fill-rule="nonzero" d="M6.5 1.083A5.423 5.423 0 0 1 11.917 6.5 5.423 5.423 0 0 1 6.5 11.917 5.423 5.423 0 0 1 1.083 6.5 5.423 5.423 0 0 1 6.5 1.083M6.5 0a6.5 6.5 0 1 0 0 13 6.5 6.5 0 0 0 0-13m0 3.115a.678.678 0 1 1 0 1.355.678.678 0 0 1 0-1.355M7.582 9.75H5.417v-.542c.262-.097.541-.109.541-.398V6.39c0-.289-.28-.334-.541-.431v-.542h1.625v3.394c0 .29.28.302.541.398z"/></svg>