<?xml version="1.0" encoding="UTF-8"?>
<svg width="9px" height="6px" viewBox="0 0 9 6" version="1.1" xmlns="http://www.w3.org/2000/svg" xmlns:xlink="http://www.w3.org/1999/xlink">
    <title>Path</title>
    <g id="Symbols" stroke="none" stroke-width="1" fill="none" fill-rule="evenodd">
        <g id="tips/tip-closed" transform="translate(-325.000000, -8.000000)" fill="#FC6D55" fill-rule="nonzero">
            <g id="iconmonstr-arrow-25" transform="translate(329.500000, 11.000000) rotate(-270.000000) translate(-329.500000, -11.000000) translate(327.000000, 7.000000)">
                <path d="M0.5095,0.5 C0.791466586,0.223290888 1.24388484,0.225958144 1.52256923,0.505972604 L4.29792935,3.29457859 C4.68621181,3.68471421 4.68621181,4.31528579 4.29792935,4.70542141 L1.52256923,7.4940274 C1.24388484,7.77404186 0.791466586,7.77670911 0.5095,7.5 C0.2307465,7.22644406 0.226533043,6.7787088 0.50008898,6.4999553 C0.50164268,6.49837208 0.50320382,6.49679618 0.50477235,6.49522765 L3,4 L3,4 L0.50477235,1.50477235 C0.228605404,1.2286054 0.228605404,0.780850316 0.50477235,0.50468337 C0.506340879,0.50311484 0.50791678,0.5015537 0.5095,0.5 Z" id="Path"></path>
            </g>
        </g>
    </g>
</svg>