<svg xmlns="http://www.w3.org/2000/svg" width="30" height="30" fill="none" viewBox="0 0 30 30"><path fill="#262862" d="M5.33 27.525c-.492 0-.947-.174-1.282-.502-.439-.432-.594-1.05-.427-1.694.236-.913.478-1.841.717-2.756l.004-.014.456-1.653c-1.84-3.044-2.271-6.372-1.278-9.893l.01-.032a12.1 12.1 0 0 1 2.896-4.85 12.2 12.2 0 0 1 4.537-2.933c3.488-1.271 7.296-.855 10.447 1.142 2.424 1.537 4.121 3.747 5.045 6.57l.007.024c.705 2.339.717 4.774.037 7.043-.677 2.26-2.022 4.29-3.889 5.871l-.023.02c-3.389 2.7-7.227 3.424-11.41 2.153-1.849.495-3.614.973-5.251 1.422a2.2 2.2 0 0 1-.596.083zm5.933-1.528h-.002zm-.172-.002h.001zM6.324 23.1l-.59 2.264c1.57-.43 3.248-.883 4.996-1.351.318-.086.655-.08.972.02 3.57 1.105 6.708.53 9.591-1.763 3.159-2.683 4.386-6.793 3.204-10.733-.782-2.385-2.153-4.172-4.188-5.462-2.608-1.653-5.758-1.998-8.643-.946-2.96 1.078-5.208 3.432-6.173 6.458-.86 3.06-.472 5.824 1.184 8.451.219.35.28.772.171 1.164zm-1.456-2.447v.002z"/><g fill="#198b67"><path d="M9.849 17.037a1.725 1.725 0 1 1 0-3.45 1.725 1.725 0 0 1 0 3.45M15.058 17.035a1.723 1.723 0 1 0 0-3.446 1.723 1.723 0 0 0 0 3.446M21.99 15.312a1.725 1.725 0 1 1-3.45 0 1.725 1.725 0 0 1 3.45 0"/></g></svg>