<svg xmlns="http://www.w3.org/2000/svg" viewBox="0 0 35 35"><title>icon-win</title><path fill-rule="nonzero" d="m15.522 9.765 1.323 1.322 2.524-1.661c.417-.276.834-.594 1.259-.92l.028.029a18 18 0 0 0-.92 1.258l-1.661 2.525 1.344 1.343 5.437-3.783-1.018-1.018-2.475 1.824-1.092.86q-.276.219-.556.448l-.028-.028c.424-.594.82-1.188 1.202-1.754l1.683-2.616-.926-.926-2.638 1.662c-.58.381-1.152.784-1.746 1.209l-.028-.029c.46-.558.876-1.103 1.3-1.654l1.846-2.454-1.082-1.082zm5.36 5.36 1.04 1.04 4.61-4.611-1.04-1.04zm2.129 2.128.997.997 1.633-1.633c.545-.545 1.082-1.252 1.534-1.817l.029.028c-.22.502-.432 1.025-.58 1.499l-1.089 3.45 1.089 1.09 4.61-4.61-.997-.998-1.633 1.634c-.545.544-1.096 1.265-1.542 1.81l-.028-.028c.22-.503.438-1.019.587-1.492l1.089-3.451-1.09-1.09z"/></svg>