<svg xmlns="http://www.w3.org/2000/svg" viewBox="0 0 18 18"><title>icon-stake</title><path fill-rule="nonzero" d="M12.251 5.201a4.997 4.997 0 0 0-7.05.547 5 5 0 1 0 7.05-.547m.97 5.25-1.529-.527c.206-.6.204-1.252 0-1.846l1.527-.525a4.48 4.48 0 0 1 .001 2.897m-.858-4.378L11.146 7.13a2.832 2.832 0 0 0-1.598-.923l.306-1.576a4.44 4.44 0 0 1 2.509 1.442M7.483 4.81q.325-.117.664-.182l.307 1.58c-.6.117-1.167.427-1.599.922L5.638 6.07A4.45 4.45 0 0 1 7.483 4.81M4.78 7.549l1.528.527a2.86 2.86 0 0 0 0 1.846l-1.528.526a4.5 4.5 0 0 1 0-2.898m.855 4.38 1.219-1.06q.135.156.295.293c.387.332.837.54 1.303.63l-.308 1.586a4.45 4.45 0 0 1-2.51-1.45m4.882 1.267a4.5 4.5 0 0 1-.663.182l-.308-1.585a2.83 2.83 0 0 0 1.599-.922l1.218 1.059a4.46 4.46 0 0 1-1.846 1.266"/></svg>