<svg xmlns="http://www.w3.org/2000/svg" viewBox="0 0 18 18"><title>icon-turnover</title><path fill-rule="evenodd" d="M8.966 4a4.92 4.92 0 0 1 3.184 1.164l.53-.534a.28.28 0 0 1 .467.118l.84 2.775a.283.283 0 0 1-.182.352.28.28 0 0 1-.168 0l-2.756-.846a.283.283 0 0 1-.117-.47l.508-.51a3.695 3.695 0 0 0-2.306-.804c-2.06-.001-3.73 1.68-3.73 3.755 0 2.074 1.67 3.756 3.73 3.756s3.73-1.682 3.73-3.756q0-.26-.035-.511l.723.221q.166.051.336.051l.103-.005.102-.014q.006.129.006.258c0 2.761-2.223 5-4.965 5S4 11.761 4 9s2.223-5 4.966-5m.408 2.56v.424c.605.158 1.084.624 1.151 1.128l-.895.251c-.1-.283-.308-.576-.714-.576-.354 0-.515.157-.515.309 0 .145.144.235.457.323l.126.034c.984.236 1.625.592 1.625 1.326 0 .771-.531 1.185-1.235 1.285v.477h-.843v-.482c-.734-.12-1.151-.535-1.318-1.164l.995-.305a.84.84 0 0 0 .818.593c.333 0 .479-.11.479-.273 0-.228-.165-.311-.425-.386l-.101-.028c-1.14-.278-1.656-.592-1.656-1.29 0-.613.39-1.106 1.208-1.232V6.56z"/></svg>