<?xml version="1.0" encoding="UTF-8"?>
<svg viewBox="0 0 35 35" version="1.1" xmlns="http://www.w3.org/2000/svg" xmlns:xlink="http://www.w3.org/1999/xlink">
    <title>icon-win</title>
    <g id="icon-win" stroke="none" stroke-width="1" fill-rule="evenodd">
        <path d="M15.7011091,15.8534136 L17.5711091,15.8534136 L18.1811091,12.8934136 C18.2811091,12.4034136 18.3511091,11.8834136 18.4211091,11.3534136 L18.4611091,11.3534136 C18.5211091,11.8834136 18.6011091,12.4034136 18.7011091,12.8934136 L19.3111091,15.8534136 L21.2111091,15.8534136 L22.3811091,9.3334136 L20.9411091,9.3334136 L20.4811091,12.3734136 L20.3166647,13.7526729 C20.289998,13.9867469 20.2644425,14.2234136 20.2411091,14.4634136 L20.2011091,14.4634136 C20.0811091,13.7434136 19.9411091,13.0434136 19.8111091,12.3734136 L19.1511091,9.3334136 L17.8411091,9.3334136 L17.1511091,12.3734136 C17.0111091,13.0534136 16.8911091,13.7434136 16.7711091,14.4634136 L16.7311091,14.4634136 C16.6611091,13.7434136 16.5711091,13.0634136 16.4811091,12.3734136 L16.0511091,9.3334136 L14.5211091,9.3334136 L15.7011091,15.8534136 Z M23.2811091,15.8534136 L24.7511091,15.8534136 L24.7511091,9.3334136 L23.2811091,9.3334136 L23.2811091,15.8534136 Z M26.2911091,15.8534136 L27.7011091,15.8534136 L27.7011091,13.5434136 C27.7011091,12.7734136 27.5811091,11.8934136 27.5011091,11.1734136 L27.5411091,11.1734136 C27.7411091,11.6834136 27.9611091,12.2034136 28.1911091,12.6434136 L29.8611091,15.8534136 L31.4011091,15.8534136 L31.4011091,9.3334136 L29.9911091,9.3334136 L29.9911091,11.6434136 C29.9911091,12.4134136 30.1111091,13.3134136 30.1811091,14.0134136 L30.1411091,14.0134136 C29.9411091,13.5034136 29.7311091,12.9834136 29.5011091,12.5434136 L27.8311091,9.3334136 L26.2911091,9.3334136 L26.2911091,15.8534136 Z" fill-rule="nonzero" transform="translate(22.961109, 12.593414) rotate(-315.000000) translate(-22.961109, -12.593414) "></path>
    </g>
</svg>