<?xml version="1.0" encoding="UTF-8"?>
<svg viewBox="0 0 14 14" version="1.1" xmlns="http://www.w3.org/2000/svg" xmlns:xlink="http://www.w3.org/1999/xlink">
    <title>close</title>
    <g id="Symbols" stroke="none" stroke-width="1" fill="none" fill-rule="evenodd">
        <path d="M2.05025253,0.636038969 L6.99914575,5.58514575 L11.9497475,0.636038969 C12.3402718,0.245514678 12.9734367,0.245514678 13.363961,0.636038969 C13.7544853,1.02656326 13.7544853,1.65972824 13.363961,2.05025253 L8.41414575,6.99914575 L13.363961,11.9497475 C13.7544853,12.3402718 13.7544853,12.9734367 13.363961,13.363961 C12.9734367,13.7544853 12.3402718,13.7544853 11.9497475,13.363961 L6.99914575,8.41414575 L2.05025253,13.363961 C1.65972824,13.7544853 1.02656326,13.7544853 0.636038969,13.363961 C0.245514678,12.9734367 0.245514678,12.3402718 0.636038969,11.9497475 L5.58514575,6.99914575 L0.636038969,2.05025253 C0.245514678,1.65972824 0.245514678,1.02656326 0.636038969,0.636038969 C1.02656326,0.245514678 1.65972824,0.245514678 2.05025253,0.636038969 Z" id="close" fill="#000000"></path>
    </g>
</svg>