<?xml version="1.0" encoding="UTF-8"?>
<svg viewBox="0 0 16 16" version="1.1" xmlns="http://www.w3.org/2000/svg" xmlns:xlink="http://www.w3.org/1999/xlink">
    <title>icon-cricket</title>
    <g id="icon-cricket" stroke="none" stroke-width="1" fill-rule="evenodd">
        <path d="M1.77579693,2.97370726 L11.7104546,15.08933 C10.6014436,15.6709649 9.33914693,16 8,16 C3.581722,16 0,12.418278 0,8 C0,6.09597912 0.665164725,4.34731579 1.77579693,2.97370726 Z M3.9506632,1.09903312 L13.9731256,13.3219433 C13.694291,13.6346742 13.3912639,13.925367 13.0669825,14.1910832 L2.92200424,1.8179574 C3.24471539,1.55257061 3.58857127,1.31195962 3.9506632,1.09903312 Z M8,0 C12.418278,0 16,3.581722 16,8 C16,9.44161274 15.6186858,10.7941648 14.9514149,11.9622985 L5.47547952,0.406482248 C6.2690735,0.142776846 7.11786309,0 8,0 Z"></path>
    </g>
</svg>