<svg xmlns="http://www.w3.org/2000/svg" viewBox="0 0 35 35"><title>icon-lose</title><path fill-rule="nonzero" d="m30.184 15.206 2.885 2.885-.877.877-1.845-1.846-.926.927 1.57 1.57-.87.87-1.57-1.57-1.06 1.06 1.915 1.916-.876.877-2.956-2.955zm-2.32-2.489c.552.552.878 1.301.906 2.065l-1.223.12c-.085-.523-.269-.976-.58-1.287-.36-.36-.743-.431-1.004-.17-.212.213-.15.492-.007.855l.516 1.224c.34.792.311 1.514-.34 2.164-.763.764-2.064.792-3.167-.311-.623-.622-1.026-1.45-1.033-2.376l1.23-.127c.036.615.326 1.23.729 1.633.431.432.813.474 1.089.198.29-.29.12-.643-.113-1.216l-.354-.849c-.276-.671-.332-1.52.34-2.192.763-.763 2.05-.693 3.012.27m-4.49-4.49c1.245 1.245 1.224 2.963-.275 4.462-1.506 1.506-3.26 1.563-4.504.318-1.245-1.244-1.188-2.998.318-4.504s3.217-1.52 4.462-.276m-3.393 1.344c-.927.926-1.118 1.909-.488 2.538.63.63 1.612.438 2.538-.488.92-.92 1.075-1.867.446-2.496-.63-.63-1.577-.474-2.496.446M18.008 3.03l1.04 1.04-3.734 3.733 1.824 1.824-.877.877-2.864-2.864z"/></svg>