<svg xmlns="http://www.w3.org/2000/svg" viewBox="0 0 18 18"><title>icon-profit</title><path fill-rule="evenodd" d="M6.949 10.753c.31 1.054.993 1.786 1.996 2.152H7.318v.594h.444c.168 0 .252.2.133.316l-1.15 1.13a.19.19 0 0 1-.266 0l-1.15-1.13c-.119-.117-.035-.316.132-.316h.444l-.001-.594h-.786a.614.614 0 0 1-.618-.607v-.938c0-.334.278-.607.618-.607zm4.365-6.05v.74c1.07.274 1.919 1.087 2.038 1.964l-1.586.438c-.176-.493-.545-1.005-1.264-1.005-.628 0-.914.274-.914.54 0 .282.323.447 1.034.62 1.743.411 2.878 1.032 2.878 2.311 0 1.343-.94 2.065-2.186 2.238v.831H9.819v-.84c-1.301-.21-2.039-.932-2.334-2.028l1.762-.53a1.485 1.485 0 0 0 1.448 1.033c.59 0 .85-.192.85-.475 0-.448-.37-.576-.933-.722-2.02-.484-2.933-1.032-2.933-2.247 0-1.069.691-1.927 2.14-2.147v-.721zm-4.19 3.262c.12.79.606 1.31 1.255 1.678l-1.578.475H5.118A.614.614 0 0 1 4.5 9.51v-.938c0-.334.278-.608.618-.608zm-.38-4.91 1.151 1.13c.119.117.035.316-.133.316H7.32l-.001.677h1.316q-.501.235-.856.611a2.5 2.5 0 0 0-.673 1.542H5.118a.614.614 0 0 1-.618-.608v-.938c0-.334.278-.607.618-.607h.786v-.677h-.443c-.167 0-.25-.2-.132-.316l1.15-1.13a.19.19 0 0 1 .266 0"/></svg>