<svg fill="none" height="30" viewBox="0 0 30 30" width="30" xmlns="http://www.w3.org/2000/svg"><path d="m5.32947 27.525c-.49159 0-.94671-.1736-1.28112-.5024-.43919-.432-.59484-1.0489-.42738-1.6931.23629-.9138.47772-1.8415.7171-2.7569l.00359-.0133.45666-1.6536c-1.84051-3.044-2.27149-6.3721-1.27803-9.8929l.00925-.0313c.58559-1.84824 1.56004-3.4802 2.89663-4.85069 1.26519-1.29807 2.83396-2.31207 4.53683-2.93259 3.4879-1.27136 7.2958-.85528 10.4467 1.14139 2.424 1.53693 4.1217 3.7478 5.0453 6.57099l.0072.0231c.7043 2.3393.7171 4.7746.037 7.0436-.6776 2.2596-2.0224 4.2897-3.8891 5.8708l-.0236.0195c-3.3882 2.6999-7.2264 3.4242-11.4103 2.1539-1.84775.4941-3.61275.9724-5.25035 1.4213-.20085.0555-.40119.0832-.59587.0832zm5.93353-1.5277s-.0011 0-.0016 0zm-.1721-.0025s.001 0 .0015.0005c-.0005 0-.001 0-.0015-.0005zm-4.76644-2.8951c-.19622.751-.3945 1.5107-.5897 2.2643 1.56929-.4295 3.24696-.8831 4.99504-1.351.3179-.0858.6549-.0791.9718.02 3.5696 1.1055 6.7082.5291 9.5915-1.7634 3.1586-2.6825 4.3857-6.7924 3.2043-10.7323-.7829-2.38503-2.1534-4.17212-4.1886-5.46248-2.6079-1.65251-5.7583-1.9977-8.6426-.9462-2.95981 1.07873-5.2087 3.43189-6.17287 6.45848-.85939 3.0595-.47207 5.8241 1.18403 8.451.21831.3493.27944.7721.17105 1.1635zm-1.45628-2.4462v.0011z" fill="#262862"/><g fill="#198b67"><path d="m9.84896 17.037c-.95288 0-1.72494-.772-1.72494-1.7249s.77206-1.7249 1.72494-1.7249c.95284 0 1.72494.772 1.72494 1.7249s-.7721 1.7249-1.72494 1.7249z"/><path d="m15.0576 17.0351c.9515 0 1.7229-.7713 1.7229-1.7229 0-.9515-.7714-1.7228-1.7229-1.7228s-1.7229.7713-1.7229 1.7228c0 .9516.7714 1.7229 1.7229 1.7229z"/><path d="m21.9897 15.3121c0 .9529-.7721 1.7249-1.725 1.7249-.9528 0-1.7249-.772-1.7249-1.7249s.7721-1.7249 1.7249-1.7249c.9529 0 1.725.772 1.725 1.7249z"/></g></svg>