<svg xmlns="http://www.w3.org/2000/svg" width="15" height="15" viewBox="0 0 15 15"><title>icon-calendar-type02</title><path fill="#888" fill-rule="nonzero" d="M9.4 1.7v1.8c0 .8.7 1.5 1.5 1.5h.9c.8 0 1.5-.7 1.5-1.5V1.7c.7 0 1.3.6 1.3 1.3v10.6c0 .7-.6 1.4-1.3 1.4h-12C.6 15 0 14.4 0 13.6V3c0-.7.6-1.3 1.3-1.3v1.8C1.3 4.3 2 5 2.8 5h.9c.8 0 1.5-.7 1.5-1.5V1.7zm2.9 5.2h-10c-.3 0-.6.3-.6.6V13c0 .3.3.6.6.6h10c.3 0 .6-.3.6-.6V7.5c0-.3-.3-.6-.6-.6m-7.4 4c.2 0 .3.2.3.3v1.2c0 .2-.2.3-.3.3H3.8c-.2 0-.3-.2-.3-.3v-1.2c0-.2.2-.3.3-.3zm3 0c.2 0 .3.2.3.3v1.2c0 .2-.2.3-.3.3H6.7c-.2 0-.3-.2-.3-.3v-1.2c0-.2.2-.3.3-.3zm3 0c.2 0 .3.2.3.3v1.2c0 .2-.2.3-.3.3H9.7c-.2 0-.3-.2-.3-.3v-1.2c0-.2.2-.3.3-.3zm-6-3c.2 0 .3.2.3.3v1.2c0 .2-.2.3-.3.3H3.8c-.2 0-.3-.2-.3-.3V8.3c0-.2.2-.3.3-.3h1.1zm3 0c.2 0 .3.2.3.3v1.2c0 .2-.2.3-.3.3H6.7c-.2 0-.3-.2-.3-.3V8.3c0-.2.2-.3.3-.3h1.2zm3 0c.2 0 .3.2.3.3v1.2c0 .2-.2.3-.3.3H9.7c-.2 0-.3-.2-.3-.3V8.3c0-.2.2-.3.3-.3h1.2zM3.7 0c.3 0 .5.2.5.5v3c0 .3-.2.5-.5.5h-.9c-.3 0-.5-.2-.5-.5v-3c0-.3.2-.5.5-.5zm8.1 0c.3 0 .5.2.5.5v3c0 .3-.2.5-.5.5h-.9c-.3 0-.5-.2-.5-.5v-3c0-.3.2-.5.5-.5z"/></svg>