<svg xmlns="http://www.w3.org/2000/svg" width="14" height="15" fill="none" viewBox="0 0 14 15"><path fill="#222" d="M6.382 1.481c-.282-.281-.847-.281-1.13 0s-.283.75 0 1.126l5.464 5.347c.283.281.848.281 1.13 0 .283-.282.283-.844 0-1.126zM4.97 3.733l5.087 5.065h-.189c-1.413.281-2.826 1.032-3.862 1.97L2.99 7.766q1.414-1.688 1.978-3.94zM5.087 11.727 2.14 8.69.633 10.232c-.47.47-.47 1.313 0 1.782l1.225 1.22c.471.469 1.319.469 1.79 0zM8.307 10.443l-.377-.375c-.105.053-.211.135-.334.23-.095.074-.201.157-.325.239l.565.563q.283.28 0 .563l-.565.562-.942-.844-1.13 1.126 1.883 1.782c.283.281.848.281 1.13 0 .284-.281.284-.844 0-1.126l-.47-.469.565-.562a1.185 1.185 0 0 0 0-1.689"/></svg>