<?xml version="1.0" encoding="UTF-8"?>
<svg width="15px" height="15px" viewBox="0 0 15 15" version="1.1" xmlns="http://www.w3.org/2000/svg" xmlns:xlink="http://www.w3.org/1999/xlink">
    <!-- Generator: Sketch 55.1 (78136) - https://sketchapp.com -->
    <title>Combined Shape</title>
    <desc>Created with Sketch.</desc>
    <g id="Page-1" stroke="none" stroke-width="1" fill="none" fill-rule="evenodd">
        <g id="11.紅版-登入-copy" transform="translate(-345.000000, -448.000000)" fill="#FFFFFF" fill-rule="nonzero">
            <g id="testing" transform="translate(352.500000, 455.500000) scale(-1, 1) translate(-352.500000, -455.500000) translate(345.000000, 448.000000)">
                <path d="M7.50186231,0 C11.6339776,0 15,3.39832571 15,7.5288659 C15,7.61074263 14.9985355,7.69403104 14.9956945,7.77761354 C14.9884014,7.99048129 14.8300924,8.16755738 14.6201754,8.1984082 L13.734582,8.32857575 C13.4575631,8.36924943 13.2146956,8.14355903 13.2320057,7.86454875 C13.2389472,7.75329168 13.2426377,7.64106408 13.2426377,7.52889531 C13.2426377,7.52004297 13.2426377,7.52004297 13.2426377,7.51122005 C13.2338509,4.36143611 10.6388126,1.79399459 7.50192089,1.79399459 C5.68302163,1.79399459 4.02820143,2.65861175 2.98257086,3.99972563 L3.65036854,4.67026787 C3.77335461,4.7937594 3.80853114,4.97021788 3.75581027,5.12903052 C3.7030894,5.28784315 3.57125794,5.40254117 3.40430853,5.42021643 C3.59108685,5.39351238 0.594022617,5.82210062 0.504660745,5.83486445 C0.367908669,5.90353621 -0.0438120263,5.6992267 0.00381249177,5.3407807 L0.425550152,2.42921572 C0.443153065,2.26158016 0.557381614,2.12044278 0.71554422,2.07632816 C0.873677537,2.01456769 1.04944306,2.05868231 1.1636716,2.18220325 L1.72602754,2.73804747 C3.09677012,1.08816065 5.1909309,0 7.50186231,0 Z M14.4956367,9.13960625 C14.7817097,9.09220515 15.0328108,9.35822163 14.9964915,9.62845737 L14.5747483,12.5091872 C14.5571452,12.6750474 14.4429151,12.81469 14.2847505,12.8583374 C14.1438082,12.9143807 13.9520189,12.8809759 13.8366172,12.7535836 L13.3182179,12.2385732 C11.9474574,13.9058755 9.83560763,15 7.4983146,15 C3.43875479,15 0.096793929,11.7409926 -1.65511705e-13,7.73413019 C0.00130933307,7.6459042 -0.003669925,7.45007277 0.00737231201,7.20692754 C0.0168621921,6.99721623 0.175876263,6.82411055 0.385034392,6.79480859 L1.27049293,6.6709954 C1.54760328,6.63220739 1.79284639,6.85940677 1.76967819,7.13939043 C1.75040553,7.37179839 1.76045192,7.49406937 1.75749365,7.55086921 C1.75749365,10.6759955 4.35253651,13.225034 7.49828531,13.225034 C9.34353977,13.225034 11.0159554,12.3433561 12.0528712,10.990286 L11.3498879,10.2919273 C11.2269002,10.1696854 11.1917232,9.9950957 11.2444448,9.83796499 C11.2971663,9.68083427 11.4289995,9.56735098 11.5959511,9.54986291 C11.4091703,9.57628415 14.4062736,9.1522349 14.4956367,9.13960625 Z" id="Combined-Shape"></path>
            </g>
        </g>
    </g>
</svg>