<svg xmlns="http://www.w3.org/2000/svg" width="30" height="30" fill="none" viewBox="0 0 30 30"><g clip-path="url(#a)" filter="url(#b)"><path fill="#222" d="M19.834 5.047C25.059 5.683 29 9.953 29 14.98 29 20.504 24.289 25 18.496 25h-6.99C5.713 25 1 20.504 1 14.98c0-5.027 3.94-9.297 9.167-9.933L10.562 5l.44 1.03c.03.05.239.176.58.176h6.838c.34 0 .55-.125.58-.178L19.44 5zm-8.328 2.787c-4.126 0-7.484 3.2-7.49 7.134.006 3.934 3.364 7.134 7.49 7.134h6.99c4.126 0 7.482-3.2 7.488-7.134-.006-3.935-3.363-7.134-7.488-7.134zm6.99 1.407c3.303 0 5.991 2.564 5.991 5.716s-2.688 5.716-5.992 5.716h-6.99c-3.304 0-5.992-2.564-5.992-5.716S8.2 9.241 11.505 9.241zm-6.991 1.906c-2.202 0-3.994 1.71-3.994 3.81s1.792 3.81 3.994 3.81h6.99c2.202 0 3.994-1.71 3.994-3.81s-1.792-3.81-3.994-3.81zm0 2.2c.551 0 .998.426.998.952v.954c0 .526-.447.952-.998.952s-.998-.426-.998-.952v-.954c0-.526.447-.952.998-.952m3.495 0c.551 0 .998.426.998.952v.954c0 .526-.447.952-.998.952s-.998-.426-.998-.952v-.954c0-.526.447-.952.998-.952m3.495 0c.551 0 .999.426 1 .952v.954c-.001.526-.449.952-1 .952s-.998-.426-.998-.952v-.954c0-.526.447-.952.998-.952"/></g><defs><clipPath id="a"><path fill="#fff" d="M0 0h30v30H0z"/></clipPath><filter id="b" width="32" height="24" x="-1" y="5" color-interpolation-filters="sRGB" filterUnits="userSpaceOnUse"><feFlood flood-opacity="0" result="BackgroundImageFix"/><feColorMatrix in="SourceAlpha" result="hardAlpha" values="0 0 0 0 0 0 0 0 0 0 0 0 0 0 0 0 0 0 127 0"/><feOffset dy="2"/><feGaussianBlur stdDeviation="1"/><feColorMatrix values="0 0 0 0 0 0 0 0 0 0 0 0 0 0 0 0 0 0 0.05 0"/><feBlend in2="BackgroundImageFix" result="effect1_dropShadow_27_1532"/><feBlend in="SourceGraphic" in2="effect1_dropShadow_27_1532" result="shape"/></filter></defs></svg>