<svg xmlns="http://www.w3.org/2000/svg" width="30" height="30" fill="none" viewBox="0 0 30 30"><g clip-path="url(#a)" filter="url(#b)"><path fill="#222" d="M15 2c7.181 0 13 5.819 13 13 0 4.592-2.387 8.626-5.98 10.94v.13h-.203A12.95 12.95 0 0 1 15 28c-2.501 0-4.836-.708-6.817-1.93H7.98v-.13C4.382 23.626 2 19.592 2 15 2 7.819 7.819 2 15 2m.005 2.6c-5.736 0-10.4 4.665-10.4 10.4 0 3.1 1.368 5.882 3.53 7.79a7 7 0 0 1 2.06-3.656c.463-.432 1.15-.561 1.721-.28A7 7 0 0 0 15 19.57a7 7 0 0 0 3.084-.718c.567-.28 1.258-.156 1.72.28a7 7 0 0 1 2.06 3.657c2.163-1.908 3.536-4.69 3.541-7.79 0-5.736-4.664-10.4-10.4-10.4M15 8.089c2.59 0 4.69 2.049 4.69 4.576s-2.1 4.576-4.69 4.576-4.69-2.049-4.69-4.576 2.1-4.576 4.69-4.576"/></g><defs><clipPath id="a"><path fill="#fff" d="M0 0h30v30H0z"/></clipPath><filter id="b" width="30" height="30" x="0" y="2" color-interpolation-filters="sRGB" filterUnits="userSpaceOnUse"><feFlood flood-opacity="0" result="BackgroundImageFix"/><feColorMatrix in="SourceAlpha" result="hardAlpha" values="0 0 0 0 0 0 0 0 0 0 0 0 0 0 0 0 0 0 127 0"/><feOffset dy="2"/><feGaussianBlur stdDeviation="1"/><feColorMatrix values="0 0 0 0 0 0 0 0 0 0 0 0 0 0 0 0 0 0 0.05 0"/><feBlend in2="BackgroundImageFix" result="effect1_dropShadow_27_1758"/><feBlend in="SourceGraphic" in2="effect1_dropShadow_27_1758" result="shape"/></filter></defs></svg>