<svg xmlns="http://www.w3.org/2000/svg" width="30" height="30" fill="none" viewBox="0 0 30 30"><g clip-path="url(#a)" filter="url(#b)"><path fill="#222" fill-rule="evenodd" d="M21.873 17.595c-1.084 3.044-5.585 3.115-6.69.884l-.182-.34-.184.34c-1.105 2.231-5.606 2.16-6.69-.884-1.829-5.134 5.62-6.781 6.874-9.094 1.254 2.313 8.7 3.96 6.872 9.094M15.001 2C12.723 6.41-.8 9.549 2.52 19.335c1.97 5.8 10.14 5.935 12.148 1.683-.853 3.166-3.412 5.69-6.728 6.604l.365.378h13.388l.365-.378c-3.314-.914-5.875-3.438-6.728-6.604 2.008 4.252 10.179 4.118 12.147-1.684C30.798 9.55 17.278 6.41 15.001 2" clip-rule="evenodd"/></g><defs><clipPath id="a"><path fill="#fff" d="M0 0h30v30H0z"/></clipPath><filter id="b" width="30" height="30" x="0" y="2" color-interpolation-filters="sRGB" filterUnits="userSpaceOnUse"><feFlood flood-opacity="0" result="BackgroundImageFix"/><feColorMatrix in="SourceAlpha" result="hardAlpha" values="0 0 0 0 0 0 0 0 0 0 0 0 0 0 0 0 0 0 127 0"/><feOffset dy="2"/><feGaussianBlur stdDeviation="1"/><feColorMatrix values="0 0 0 0 0 0 0 0 0 0 0 0 0 0 0 0 0 0 0.05 0"/><feBlend in2="BackgroundImageFix" result="effect1_dropShadow_27_1519"/><feBlend in="SourceGraphic" in2="effect1_dropShadow_27_1519" result="shape"/></filter></defs></svg>