<svg xmlns="http://www.w3.org/2000/svg" width="30" height="30" fill="none" viewBox="0 0 30 30"><g clip-path="url(#a)" filter="url(#b)"><path fill="#222" d="M15 2c7.18 0 13 5.822 13 13 0 7.18-5.82 13-13 13S2 22.18 2 15C2 7.822 7.82 2 15 2m0 5.307a7.695 7.695 0 1 0 0 15.388 7.695 7.695 0 0 0 0-15.388m-.036 2.35q.949 0 1.73.314t1.256.92.475 1.467q0 .701-.3 1.218-.3.519-.803.861a3.5 3.5 0 0 1-.453.26q.335.135.644.326.576.357.926.934.35.576.351 1.379 0 .701-.314 1.257-.315.555-.847.948a3.9 3.9 0 0 1-1.22.599q-.686.204-1.445.205-.744-.001-1.43-.205a4 4 0 0 1-1.227-.599 2.9 2.9 0 0 1-.847-.948 2.56 2.56 0 0 1-.307-1.257q0-.803.35-1.379.351-.577.92-.934.305-.19.637-.328a3 3 0 0 1-.447-.258 2.65 2.65 0 0 1-.796-.86q-.297-.518-.298-1.219-.001-.862.466-1.467.468-.606 1.256-.92.789-.315 1.723-.314m0 5.97q-.365.002-.679.177a1.31 1.31 0 0 0-.679 1.153q0 .452.183.759.183.306.496.467.315.16.679.16.38 0 .686-.16a1.26 1.26 0 0 0 .496-.467q.19-.307.19-.759 0-.364-.19-.672a1.36 1.36 0 0 0-1.183-.657m0-4.204q-.322.001-.584.146a1 1 0 0 0-.408.417 1.24 1.24 0 0 0-.147.606q0 .35.154.613a1.1 1.1 0 0 0 .985.555q.336 0 .592-.146t.401-.409.145-.613q0-.336-.145-.606a1.05 1.05 0 0 0-.395-.417 1.16 1.16 0 0 0-.598-.146"/></g><defs><clipPath id="a"><path fill="#fff" d="M0 0h30v30H0z"/></clipPath><filter id="b" width="30" height="30" x="0" y="2" color-interpolation-filters="sRGB" filterUnits="userSpaceOnUse"><feFlood flood-opacity="0" result="BackgroundImageFix"/><feColorMatrix in="SourceAlpha" result="hardAlpha" values="0 0 0 0 0 0 0 0 0 0 0 0 0 0 0 0 0 0 127 0"/><feOffset dy="2"/><feGaussianBlur stdDeviation="1"/><feColorMatrix values="0 0 0 0 0 0 0 0 0 0 0 0 0 0 0 0 0 0 0.05 0"/><feBlend in2="BackgroundImageFix" result="effect1_dropShadow_27_1523"/><feBlend in="SourceGraphic" in2="effect1_dropShadow_27_1523" result="shape"/></filter></defs></svg>