<svg xmlns="http://www.w3.org/2000/svg" width="30" height="30" fill="none" viewBox="0 0 30 30"><g filter="url(#a)"><path fill="#222" fill-rule="evenodd" d="M27.844 15.274 15.312 4.12a.47.47 0 0 0-.624 0L2.156 15.274a.46.46 0 0 0-.125.51.47.47 0 0 0 .435.297h3.29v9.454c0 .257.21.465.47.465h5.226c.26 0 .47-.208.47-.465v-6.972h6.156v6.972c0 .257.21.465.47.465h5.225c.26 0 .47-.208.47-.465v-9.454h3.29a.47.47 0 0 0 .436-.297.46.46 0 0 0-.125-.51" clip-rule="evenodd"/></g><defs><filter id="a" width="30" height="26" x="0" y="4" color-interpolation-filters="sRGB" filterUnits="userSpaceOnUse"><feFlood flood-opacity="0" result="BackgroundImageFix"/><feColorMatrix in="SourceAlpha" result="hardAlpha" values="0 0 0 0 0 0 0 0 0 0 0 0 0 0 0 0 0 0 127 0"/><feOffset dy="2"/><feGaussianBlur stdDeviation="1"/><feColorMatrix values="0 0 0 0 0 0 0 0 0 0 0 0 0 0 0 0 0 0 0.05 0"/><feBlend in2="BackgroundImageFix" result="effect1_dropShadow_27_2081"/><feBlend in="SourceGraphic" in2="effect1_dropShadow_27_2081" result="shape"/></filter></defs></svg>