<svg xmlns="http://www.w3.org/2000/svg" width="30" height="30" fill="none" viewBox="0 0 30 30"><path fill="#198b67" d="M20.56 17.382c-.298-.149-1.768-.869-2.04-.967-.273-.098-.473-.148-.674.149-.2.296-.771.966-.946 1.165s-.349.224-.647.076-1.262-.463-2.4-1.477c-.888-.789-1.488-1.762-1.662-2.059-.175-.296-.019-.459.13-.608.135-.133.299-.347.448-.52s.2-.297.298-.497c.098-.199.051-.372-.025-.52-.077-.15-.673-1.611-.92-2.208-.244-.58-.488-.5-.673-.51-.175-.008-.375-.011-.571-.011s-.524.076-.797.372c-.273.297-1.044 1.017-1.044 2.48s1.07 2.876 1.218 3.072c.15.199 2.106 3.199 5.103 4.487.713.308 1.27.489 1.702.626.717.228 1.368.196 1.88.12.575-.087 1.768-.72 2.015-1.412.248-.694.248-1.288.175-1.411s-.273-.195-.571-.347z"/><path fill="#262862" d="M15.109 3C8.522 3 3.158 8.334 3.158 14.892c0 2.095.549 4.143 1.596 5.946L3.06 27l6.335-1.654a11.97 11.97 0 0 0 5.71 1.448h.003c6.587 0 11.948-5.335 11.952-11.892a11.77 11.77 0 0 0-3.496-8.414A11.92 11.92 0 0 0 15.11 3m.003 21.785h-.003a9.94 9.94 0 0 1-5.056-1.379l-.363-.213-3.76.98 1.003-3.647-.236-.373a9.84 9.84 0 0 1-1.52-5.262c.003-5.45 4.458-9.883 9.94-9.883 2.654 0 5.146 1.032 7.022 2.899s2.91 4.353 2.906 6.992c0 5.453-4.459 9.886-9.932 9.886z"/></svg>