<svg xmlns="http://www.w3.org/2000/svg" width="30" height="30" fill="none" viewBox="0 0 30 30"><path fill="#262862" d="M24.392 3.483c-.547-.445-1.34-.591-2.175-.402l-.514.117a2.7 2.7 0 0 0-.571-.061h-9.825c-1.519 0-2.755 1.256-2.755 2.8v1.798h1.272V5.938c0-.831.666-1.508 1.483-1.508h4.964l-.084.02c-1.439.326-2.566 1.54-2.566 2.764V22.74h-2.313c-.818 0-1.483-.677-1.483-1.508v-1.797H8.552v1.797c0 1.544 1.236 2.8 2.756 2.8h2.313v1.062a1.8 1.8 0 0 0 .67 1.422c.39.318.904.484 1.471.484q.343 0 .702-.08l6.031-1.369c1.439-.326 2.566-1.54 2.566-2.764V4.907a1.8 1.8 0 0 0-.669-1.424z"/><path fill="#198b67" d="M8.809 18.026q.152.06.306.06c.218 0 .43-.089.588-.256l3.462-3.67a.84.84 0 0 0 0-1.15L9.703 9.34c-.232-.247-.583-.324-.894-.196s-.512.429-.512.77v1.239H4.939v4.863h3.358v1.239c0 .34.2.643.512.77"/></svg>