<svg xmlns="http://www.w3.org/2000/svg" width="30" height="30" fill="none" viewBox="0 0 30 30"><g clip-path="url(#a)" filter="url(#b)"><path fill="#222" d="M21.716 14.464c3.427 0 6.204 2.79 6.204 6.231 0 3.442-2.777 6.23-6.204 6.23-3.428 0-6.205-2.788-6.205-6.23s2.777-6.231 6.205-6.231M11.49 2.926c1.45 0 2.676.933 3.145 2.221h4.194c1.226 0 2.23 1 2.23 2.221v4.486c-4.567.336-8.181 4.168-8.176 8.841 0 1.813.55 3.5 1.484 4.909H4.151c-1.225 0-2.23-1-2.231-2.221V7.368a2.234 2.234 0 0 1 2.231-2.22h4.194a3.35 3.35 0 0 1 3.145-2.222m9.484 13.202a.145.145 0 0 0-.144.148l.019.727q-.353.073-.66.21c-.417.188-.738.458-.954.808-.21.346-.31.726-.3 1.12q.017.55.305.982c.192.288.48.523.848.706q.418.21 1.417.419c.637.135 1.053.235 1.235.303.263.091.45.206.555.336a.7.7 0 0 1 .163.447.83.83 0 0 1-.148.486 1.1 1.1 0 0 1-.503.38c-.244.1-.536.159-.862.168a2.5 2.5 0 0 1-1-.164q-.431-.174-.633-.456c-.138-.192-.229-.452-.277-.77l-.01-.057a.15.15 0 0 0-.148-.125h-.014l-.986.115a.15.15 0 0 0-.13.154l.005.058q.043.766.46 1.365c.273.4.656.698 1.125.885.215.086.46.15.727.192l.025.803c0 .082.067.144.148.144l1.45-.043a.145.145 0 0 0 .144-.149l-.024-.799c.23-.052.445-.134.646-.23q.648-.325.986-.88c.22-.37.33-.769.33-1.183a2 2 0 0 0-.358-1.11c-.22-.317-.56-.572-1.01-.764-.297-.125-.838-.265-1.609-.418-.943-.188-1.235-.343-1.321-.42a.59.59 0 0 1-.22-.465c-.005-.231.086-.424.292-.597.21-.178.58-.278 1.09-.293q.736-.019 1.102.265.354.275.436.86l.01.058a.15.15 0 0 0 .148.125h.01l1-.106a.145.145 0 0 0 .13-.154l-.005-.058a2.34 2.34 0 0 0-.412-1.206 2.2 2.2 0 0 0-1.034-.794 3 3 0 0 0-.421-.13l-.025-.788a.146.146 0 0 0-.148-.144zM6.052 19.873a1.08 1.08 0 0 0 0 2.163h3.111a1.081 1.081 0 0 0 0-2.163zm0-4.702a1.081 1.081 0 0 0 0 2.163h5.505a1.08 1.08 0 0 0 0-2.163zm0-4.697a1.081 1.081 0 0 0 0 2.164h8.856a1.082 1.082 0 0 0 0-2.164zm5.433-6.139A1.925 1.925 0 0 0 9.57 6.258c0 1.057.862 1.923 1.915 1.923A1.925 1.925 0 0 0 13.4 6.258a1.925 1.925 0 0 0-1.915-1.923"/></g><defs><clipPath id="a"><path fill="#fff" d="M0 0h30v30H0z"/></clipPath><filter id="b" width="30" height="28" x="-.08" y="2.926" color-interpolation-filters="sRGB" filterUnits="userSpaceOnUse"><feFlood flood-opacity="0" result="BackgroundImageFix"/><feColorMatrix in="SourceAlpha" result="hardAlpha" values="0 0 0 0 0 0 0 0 0 0 0 0 0 0 0 0 0 0 127 0"/><feOffset dy="2"/><feGaussianBlur stdDeviation="1"/><feColorMatrix values="0 0 0 0 0 0 0 0 0 0 0 0 0 0 0 0 0 0 0.05 0"/><feBlend in2="BackgroundImageFix" result="effect1_dropShadow_27_1737"/><feBlend in="SourceGraphic" in2="effect1_dropShadow_27_1737" result="shape"/></filter></defs></svg>