<svg xmlns="http://www.w3.org/2000/svg" width="30" height="30" fill="none" viewBox="0 0 30 30"><path fill="#262862" d="M4.549 16.874v7.417a2.71 2.71 0 0 0 2.709 2.71h15.484a2.71 2.71 0 0 0 2.709-2.71v-7.417a2.71 2.71 0 0 0-2.702-2.709H7.251a2.71 2.71 0 0 0-2.702 2.71M20.15 20.92l-1.648-.459.423-1.247 1.573.667-.104-1.713h1.32l-.12 1.699 1.584-.653.427 1.247-1.642.439 1.137 1.283-1.046.815-.99-1.472-1.01 1.472-1.046-.815zm-5.911 0-1.648-.459.423-1.247 1.573.667-.104-1.713h1.32l-.12 1.699 1.584-.653.427 1.247-1.642.439 1.137 1.283-1.046.815-.988-1.472-1.011 1.472-1.046-.815zm-6.606.118-1.527-.425.575-1.698 1.462.621-.096-1.591h1.795l-.112 1.579 1.47-.607.582 1.697-1.524.407 1.055 1.191-1.422 1.107-.939-1.398-.96 1.397-1.421-1.107z"/><path fill="#198b67" d="M20.06 14.165V10.75c0-2.791-2.27-5.062-5.06-5.062s-5.062 2.27-5.062 5.062v3.415H7.25V10.75C7.25 6.476 10.727 3 15 3s7.749 3.476 7.749 7.75v3.415z"/></svg>