<svg xmlns="http://www.w3.org/2000/svg" width="30" height="30" fill="none" viewBox="0 0 30 30"><path fill="#198b67" d="M16.057 8.635c-1.695-.208-3.404.086-4.837 1.047-1.705 1.142-2.656 3.022-2.59 5.075q.02.664.227 1.351c.205.68.64 1.435 1.317 1.704.245.097.65.122.88-.03a.76.76 0 0 0 .248-.264.03.03 0 0 0-.004-.034 3.72 3.72 0 0 1-.88-2.115c-.141-1.487.32-2.926 1.47-3.873.974-.8 2.307-1.088 3.564-.981 1.86.158 3.275 1.34 3.637 3.175q.3 1.52-.218 3.019c-.312.903-.969 1.776-1.908 2.074a2.36 2.36 0 0 1-1.356.036c-1.004-.273-1.31-1.208-1.035-2.149q.116-.394.471-1.555c.153-.496.236-.995.132-1.508-.165-.817-.869-1.203-1.657-.978-.737.211-1.143.958-1.255 1.688-.12.776-.013 1.555.212 2.308a.26.26 0 0 1 .005.131q-.176.787-.709 3.058-.42 1.791-.467 2.193-.135 1.16-.03 2.24l.005.054q.363.146.739.263l.016-.025a9.8 9.8 0 0 0 1.071-2.146q.15-.421.405-1.467.33-1.359.369-1.477l.006-.008a.02.02 0 0 1 .024.003q.274.362.69.641.958.645 2.164.544c2.094-.177 3.685-1.865 4.323-3.769.656-1.96.403-4.23-.854-5.896-1.007-1.335-2.527-2.127-4.175-2.33z"/><path fill="#262862" d="M15 4.983c5.532 0 10.017 4.485 10.017 10.017S20.532 25.017 15 25.017 4.983 20.532 4.983 15 9.468 4.983 15 4.983M15 3a11.96 11.96 0 0 0-8.486 3.515 12 12 0 0 0-2.57 3.813C3.318 11.81 3 13.381 3 15s.318 3.19.944 4.672a12 12 0 0 0 2.57 3.814 12 12 0 0 0 3.814 2.57C11.81 26.682 13.381 27 15 27s3.19-.318 4.672-.944a12 12 0 0 0 3.814-2.57 12 12 0 0 0 2.57-3.814C26.682 18.19 27 16.619 27 15s-.318-3.19-.944-4.672a12 12 0 0 0-2.57-3.814 12 12 0 0 0-3.814-2.57A11.9 11.9 0 0 0 15 3"/></svg>