<svg xmlns="http://www.w3.org/2000/svg" width="30" height="30" fill="none" viewBox="0 0 30 30"><g clip-path="url(#a)" filter="url(#b)"><path fill="#222" d="m24.259 18.728-2.501 3.37-1.706 2.307-.005-.005-.415.56L14.976 27l.76-5.093 1.997-2.685 2.511-3.4zM12.86 3c1.495 0 2.757.977 3.24 2.327h4.322c1.262 0 2.298 1.049 2.298 2.328v1.597a3.74 3.74 0 0 0-1.973 1.34l-.902 1.19c-.054.07-.11.145-.154.22l-.123.162a1.4 1.4 0 0 0-.197.252l-5.786 7.823a2.8 2.8 0 0 0-.518 1.255l-.76 5.088q-.008.06-.01.121l-.004.06H5.299C4.036 26.764 3 25.716 3 24.436V7.656c0-1.28 1.036-2.328 2.299-2.328h4.32C10.098 3.977 11.366 3 12.86 3M7.252 20.753c-.612 0-1.11.509-1.11 1.134s.498 1.133 1.11 1.133h3.206c.611 0 1.11-.509 1.11-1.133 0-.625-.498-1.134-1.11-1.134zm0-4.922c-.612 0-1.11.51-1.11 1.134 0 .625.498 1.134 1.11 1.134h5.672c.611 0 1.11-.51 1.11-1.134 0-.625-.498-1.134-1.11-1.134zm15.636-3.536c.33-.438.927-.54 1.332-.222l2.436 1.904c.405.313.459.928.128 1.366l-.493.65-.543.73-4.005-2.897.252-.338-.01-.005zM7.252 10.909c-.612 0-1.11.51-1.11 1.134 0 .625.498 1.134 1.11 1.134h9.125c.611 0 1.11-.51 1.11-1.134 0-.625-.498-1.134-1.11-1.134zm5.599-6.432c-1.086 0-1.974.906-1.974 2.014 0 1.109.888 2.015 1.974 2.015 1.084 0 1.972-.907 1.972-2.015s-.888-2.014-1.972-2.014"/></g><defs><clipPath id="a"><path fill="#fff" d="M0 0h30v30H0z"/></clipPath><filter id="b" width="28" height="28" x="1" y="3" color-interpolation-filters="sRGB" filterUnits="userSpaceOnUse"><feFlood flood-opacity="0" result="BackgroundImageFix"/><feColorMatrix in="SourceAlpha" result="hardAlpha" values="0 0 0 0 0 0 0 0 0 0 0 0 0 0 0 0 0 0 127 0"/><feOffset dy="2"/><feGaussianBlur stdDeviation="1"/><feColorMatrix values="0 0 0 0 0 0 0 0 0 0 0 0 0 0 0 0 0 0 0.05 0"/><feBlend in2="BackgroundImageFix" result="effect1_dropShadow_27_1727"/><feBlend in="SourceGraphic" in2="effect1_dropShadow_27_1727" result="shape"/></filter></defs></svg>