<svg xmlns="http://www.w3.org/2000/svg" width="30" height="30" fill="none" viewBox="0 0 30 30"><g clip-path="url(#a)" filter="url(#b)"><path fill="#222" fill-rule="evenodd" d="M2.43 20.548a.466.466 0 0 0-.42.465v.903a1.56 1.56 0 0 0 .935 1.443l8.905 3.97a7.74 7.74 0 0 0 6.302 0l8.906-3.97a1.56 1.56 0 0 0 .934-1.443v-.903a.465.465 0 0 0-.653-.425l-9.187 4.093a7.74 7.74 0 0 1-6.304 0l-9.185-4.093a.5.5 0 0 0-.232-.04m4.687-4.07c1.024 0 1.855.477 1.855 1.064s-.83 1.062-1.855 1.062-1.855-.475-1.855-1.062.83-1.063 1.855-1.063m6.8-4.93a7.7 7.7 0 0 0-2.07.583L2.943 16.1c-1.256.56-1.256 2.35 0 2.91l8.906 3.97a7.74 7.74 0 0 0 6.304 0l8.906-3.97c1.256-.56 1.256-2.35 0-2.91l-8.906-3.97a7.7 7.7 0 0 0-2.069-.584v5.855c0 .45-.485.815-1.083.815s-1.083-.365-1.083-.815zM15 3a3.255 3.255 0 0 0-3.25 3.26A3.255 3.255 0 0 0 15 9.523c1.795 0 3.25-1.46 3.25-3.261A3.255 3.255 0 0 0 15 3" clip-rule="evenodd"/></g><defs><clipPath id="a"><path fill="#fff" d="M0 0h30v30H0z"/></clipPath><filter id="b" width="30" height="29" x="0" y="3" color-interpolation-filters="sRGB" filterUnits="userSpaceOnUse"><feFlood flood-opacity="0" result="BackgroundImageFix"/><feColorMatrix in="SourceAlpha" result="hardAlpha" values="0 0 0 0 0 0 0 0 0 0 0 0 0 0 0 0 0 0 127 0"/><feOffset dy="2"/><feGaussianBlur stdDeviation="1"/><feColorMatrix values="0 0 0 0 0 0 0 0 0 0 0 0 0 0 0 0 0 0 0.05 0"/><feBlend in2="BackgroundImageFix" result="effect1_dropShadow_27_1567"/><feBlend in="SourceGraphic" in2="effect1_dropShadow_27_1567" result="shape"/></filter></defs></svg>