<svg xmlns="http://www.w3.org/2000/svg" viewBox="0 0 30 30"><title>leftmenu/sports/color/icon-soccer</title><g fill="none" fill-rule="evenodd"><circle cx="15" cy="15" r="12" fill="#ededed"/><path fill="#344d5c" d="M14.642 26.065c.904.455 5.155-.504 5.63-1.344-.067 0-.13-.018-.175.002-1.44.64-2.94.986-4.52 1.012-.285.004-.567.195-.935.33M5.273 9.473l.102.11c.375-.09.727-.235.983-.566.246-.32.453-.675.73-.966.744-.78 1.52-1.531 2.273-2.305.105-.108.145-.278.215-.42-.116.016-.254-.005-.345.05a11.4 11.4 0 0 0-3.593 3.45c-.137.205-.244.43-.365.647m2.409 13.89c.052-.533.192-.98-.173-1.438-.951-1.193-1.678-2.518-2.235-3.943-.192-.491-.717-.642-1.174-.87-.222 1.377 2.103 5.45 3.582 6.251m18.588-8.366c.051-.868-.23-1.607-.796-2.24-.5-.56-1.03-1.09-1.526-1.653-.284-.324-.542-.335-.893-.101-.648.43-1.31.844-1.987 1.226-.3.17-.447.373-.476.71-.108 1.267-.24 2.533-.334 3.802-.014.19.085.434.214.582a55 55 0 0 0 2.081 2.267c.118.12.442.173.595.1a23 23 0 0 0 1.816-.999c.495-.294.912-.67.996-1.288.109-.8.207-1.603.31-2.406m-3.078-5.21c-.153-.662-.251-1.311-.458-1.924-.238-.702-.431-1.442-1.104-1.917-.984-.696-2.01-1.308-3.172-1.651-.2-.06-.478-.048-.657.048-.905.482-1.79 1-2.679 1.511-.233.135-.326.287-.213.602.349.978.646 1.975.954 2.968.114.366.234.685.646.85 1.125.45 2.23.948 3.354 1.402.168.068.431.076.58-.01.85-.492 1.68-1.015 2.508-1.541.105-.067.157-.217.24-.339m-7.086 15.217c.566.038 1.979-.405 2.936-.71.5-.159 1.049-.448 1.361-.847.617-.788 1.077-1.698 1.617-2.547.227-.359.09-.604-.163-.868-.49-.514-.995-1.017-1.426-1.577-.714-.957-1.858-.554-1.9-.545-.945.21-1.895.398-2.83.647-.25.067-.527.277-.662.5-.628 1.037-1.205 2.105-1.81 3.156-.175.304-.178.572.075.827.466.471.93.944 1.402 1.411.381.378.89.52 1.4.553M11.811 6.07l-.002.025c-.174 0-.347-.003-.521.001-.588.015-1.147 0-1.66.45a16.3 16.3 0 0 0-2.566 2.866c-.15.21-.23.56-.176.81.175.816.417 1.617.654 2.417.089.301.302.426.647.46 1.277.123 2.548.306 3.824.444.16.017.39-.051.492-.166a85 85 0 0 0 2.491-2.89c.143-.175.202-.523.138-.744-.282-.985-.634-1.949-.94-2.927-.124-.402-.38-.606-.78-.64-.533-.044-1.067-.071-1.601-.106m.053 16.179c.32.024.513-.126.66-.39a284 284 0 0 1 1.799-3.161c.158-.273.146-.496-.02-.763-.523-.848-1.02-1.711-1.536-2.563-.31-.51-.548-1.105-1.273-1.169-1.152-.102-2.302-.221-3.454-.299-.18-.012-.458.11-.541.254a37 37 0 0 0-1.315 2.48c-.136.283-.262.678-.172.948.498 1.493 1.285 2.838 2.293 4.047a.9.9 0 0 0 .464.289c.763.15 2.836.307 3.095.327m3.492-19.242c6.569.08 11.753 5.709 11.642 12.127-.118 6.828-5.653 12.052-12.33 11.86-6.666-.19-11.769-5.596-11.666-12.218.103-6.68 5.66-12.002 12.354-11.769"/></g></svg>