<svg xmlns="http://www.w3.org/2000/svg" width="30" height="30" fill="none" viewBox="0 0 30 30"><g clip-path="url(#a)" filter="url(#b)"><path fill="#222" d="M6.42 18.723a22.3 22.3 0 0 0 1.17 6.098l.103.301c.03.086.119.23.119.23l.562.744C7.174 27.313 5.517 28 3.74 28a.73.73 0 0 1-.74-.716v-4.853c0-1.833 1.421-3.422 3.316-3.68a.3.3 0 0 1 .104-.028m11.933 8.933a.84.84 0 0 1-.68.344h-5.375a.86.86 0 0 1-.68-.344l-1.54-2.033h9.816zm5.434-8.905c1.866.3 3.213 1.847 3.213 3.68v4.853a.75.75 0 0 1-.222.501.7.7 0 0 1-.518.215 6.5 6.5 0 0 1-4.634-1.904l.563-.744a1 1 0 0 0 .118-.23h-.015l.31-.901c.608-1.79.993-3.623 1.141-5.47zM20.13 7.956c2.354 4.982 2.68 10.551.903 15.763l-.103.3H9.056c-1.718-5.282-1.244-11.095 1.288-16.063zm-4.871 4.596c-.962 0-1.85.358-2.532 1.016a3.37 3.37 0 0 0-1.051 2.449c0 .93.37 1.79 1.051 2.448a3.6 3.6 0 0 0 2.532 1.016 3.6 3.6 0 0 0 2.532-1.016 3.37 3.37 0 0 0 1.05-2.448c0-.931-.369-1.79-1.05-2.449a3.6 3.6 0 0 0-2.532-1.016m0 1.603a1.9 1.9 0 0 1 1.362.544c.355.358.563.816.563 1.318 0 .5-.193.973-.563 1.317s-.844.544-1.362.544a1.9 1.9 0 0 1-1.361-.544 1.86 1.86 0 0 1-.564-1.317c0-.502.193-.974.564-1.318.37-.343.843-.544 1.36-.544M15.422 2a.93.93 0 0 1 .666.3c1.362 1.576 2.443 2.964 3.169 4.053H11.32c.785-1.103 1.97-2.506 3.436-4.08A.96.96 0 0 1 15.422 2"/></g><defs><clipPath id="a"><path fill="#fff" d="M0 0h30v30H0z"/></clipPath><filter id="b" width="28" height="30" x="1" y="2" color-interpolation-filters="sRGB" filterUnits="userSpaceOnUse"><feFlood flood-opacity="0" result="BackgroundImageFix"/><feColorMatrix in="SourceAlpha" result="hardAlpha" values="0 0 0 0 0 0 0 0 0 0 0 0 0 0 0 0 0 0 127 0"/><feOffset dy="2"/><feGaussianBlur stdDeviation="1"/><feColorMatrix values="0 0 0 0 0 0 0 0 0 0 0 0 0 0 0 0 0 0 0.05 0"/><feBlend in2="BackgroundImageFix" result="effect1_dropShadow_27_1615"/><feBlend in="SourceGraphic" in2="effect1_dropShadow_27_1615" result="shape"/></filter></defs></svg>