<svg xmlns="http://www.w3.org/2000/svg" width="30" height="30" fill="none" viewBox="0 0 30 30"><g clip-path="url(#a)" filter="url(#b)"><path fill="#222" d="M22.83 17.454c.6-.288 1.332-.16 1.822.288C26.096 19.056 27 20.921 27 22.993V27H12.122v-4.007c0-2.067.904-3.937 2.348-5.25.49-.444 1.218-.577 1.824-.289.986.47 2.094.737 3.267.737a7.6 7.6 0 0 0 3.268-.737M4.347 13.341c.49-.443 1.217-.577 1.823-.288.986.47 2.094.736 3.267.736.871 0 1.715-.143 2.492-.416q.332 1.002.92 1.87c-.155.111-.314.224-.457.347a10.04 10.04 0 0 0-3.28 7.009H2v-4.007c0-2.067.904-3.937 2.348-5.251m15.214-6.945c2.743 0 4.97 2.106 4.97 4.702-.001 2.595-2.227 4.7-4.97 4.7-2.744 0-4.977-2.104-4.977-4.7s2.232-4.702 4.976-4.702M9.433 2c2.275 0 4.192 1.448 4.782 3.424-1.593 1.367-2.606 3.328-2.65 5.518a5.15 5.15 0 0 1-2.132.46c-2.744 0-4.976-2.105-4.976-4.7C4.458 4.104 6.689 2 9.434 2"/></g><defs><clipPath id="a"><path fill="#fff" d="M0 0h30v30H0z"/></clipPath><filter id="b" width="29" height="29" x="0" y="2" color-interpolation-filters="sRGB" filterUnits="userSpaceOnUse"><feFlood flood-opacity="0" result="BackgroundImageFix"/><feColorMatrix in="SourceAlpha" result="hardAlpha" values="0 0 0 0 0 0 0 0 0 0 0 0 0 0 0 0 0 0 127 0"/><feOffset dy="2"/><feGaussianBlur stdDeviation="1"/><feColorMatrix values="0 0 0 0 0 0 0 0 0 0 0 0 0 0 0 0 0 0 0.05 0"/><feBlend in2="BackgroundImageFix" result="effect1_dropShadow_27_1770"/><feBlend in="SourceGraphic" in2="effect1_dropShadow_27_1770" result="shape"/></filter></defs></svg>