<svg xmlns="http://www.w3.org/2000/svg" width="30" height="30" fill="none" viewBox="0 0 30 30"><g clip-path="url(#a)" filter="url(#b)"><path fill="#222" fill-rule="evenodd" d="M26.926 16.225a2.045 2.045 0 0 1 0-2.445l.67-.915c.848-1.16.302-2.778-1.096-3.241l-1.102-.36c-.884-.29-1.482-1.081-1.498-1.976l-.015-1.113c-.021-1.415-1.461-2.414-2.87-1.998l-1.118.323c-.894.265-1.866-.037-2.428-.755l-.701-.894c-.89-1.135-2.662-1.135-3.551 0l-.692.894c-.561.718-1.533 1.02-2.427.755l-1.113-.323c-1.409-.416-2.849.583-2.87 1.998L6.1 7.288c-.016.895-.614 1.685-1.498 1.977L3.5 9.624c-1.398.457-1.944 2.075-1.097 3.24l.67.916a2.04 2.04 0 0 1 0 2.445l-.67.916c-.847 1.16-.301 2.778 1.097 3.24l1.102.36c.884.29 1.482 1.082 1.498 1.976l.015 1.114c.021 1.415 1.461 2.413 2.87 1.997l1.113-.328c.894-.265 1.866.037 2.427.755l.702.895c.89 1.134 2.662 1.134 3.551 0l.691-.89c.562-.718 1.534-1.02 2.428-.754l1.113.322c1.409.416 2.849-.582 2.87-1.997l.015-1.114c.016-.894.614-1.685 1.497-1.976l1.103-.36c1.398-.457 1.944-2.075 1.096-3.24zm-5.823-2.663-2.672 2.606.63 3.683a.53.53 0 0 1-.209.51.5.5 0 0 1-.306.099.54.54 0 0 1-.24-.058L15 18.665l-3.306 1.737a.51.51 0 0 1-.546-.041.52.52 0 0 1-.208-.51l.629-3.683-2.672-2.606a.523.523 0 0 1 .29-.89l3.697-.536 1.653-3.35c.177-.354.76-.354.93 0l1.654 3.35 3.697.536a.519.519 0 0 1 .285.89" clip-rule="evenodd"/></g><defs><clipPath id="a"><path fill="#fff" d="M0 0h30v30H0z"/></clipPath><filter id="b" width="30" height="30" x="0" y="2" color-interpolation-filters="sRGB" filterUnits="userSpaceOnUse"><feFlood flood-opacity="0" result="BackgroundImageFix"/><feColorMatrix in="SourceAlpha" result="hardAlpha" values="0 0 0 0 0 0 0 0 0 0 0 0 0 0 0 0 0 0 127 0"/><feOffset dy="2"/><feGaussianBlur stdDeviation="1"/><feColorMatrix values="0 0 0 0 0 0 0 0 0 0 0 0 0 0 0 0 0 0 0.05 0"/><feBlend in2="BackgroundImageFix" result="effect1_dropShadow_27_2055"/><feBlend in="SourceGraphic" in2="effect1_dropShadow_27_2055" result="shape"/></filter></defs></svg>