<svg xmlns="http://www.w3.org/2000/svg" width="30" height="30" fill="none" viewBox="0 0 30 30"><g clip-path="url(#a)" filter="url(#b)"><path fill="#222" d="M15 2c7.181 0 13 5.819 13 13s-5.819 13-13 13S2 22.181 2 15 7.819 2 15 2M9.67 13.44c-.645 0-1.17.526-1.17 1.17v5.46c0 .645.525 1.17 1.17 1.17h.26c.644 0 1.17-.525 1.17-1.17v-5.46c0-.644-.52-1.17-1.17-1.17zm5.2-5.2c-.645 0-1.17.525-1.17 1.17v10.66c0 .645.525 1.17 1.17 1.17h.26c.645 0 1.17-.525 1.17-1.17V9.41c0-.645-.52-1.17-1.17-1.17zm5.2 3.12c-.645 0-1.17.526-1.17 1.17v7.54c0 .645.526 1.17 1.17 1.17h.26c.645 0 1.17-.525 1.17-1.17v-7.54c0-.644-.52-1.17-1.17-1.17z"/></g><defs><clipPath id="a"><path fill="#fff" d="M0 0h30v30H0z"/></clipPath><filter id="b" width="30" height="30" x="0" y="2" color-interpolation-filters="sRGB" filterUnits="userSpaceOnUse"><feFlood flood-opacity="0" result="BackgroundImageFix"/><feColorMatrix in="SourceAlpha" result="hardAlpha" values="0 0 0 0 0 0 0 0 0 0 0 0 0 0 0 0 0 0 127 0"/><feOffset dy="2"/><feGaussianBlur stdDeviation="1"/><feColorMatrix values="0 0 0 0 0 0 0 0 0 0 0 0 0 0 0 0 0 0 0.05 0"/><feBlend in2="BackgroundImageFix" result="effect1_dropShadow_27_1721"/><feBlend in="SourceGraphic" in2="effect1_dropShadow_27_1721" result="shape"/></filter></defs></svg>