<svg xmlns="http://www.w3.org/2000/svg" width="30" height="30" fill="none" viewBox="0 0 30 30"><g clip-path="url(#a)" filter="url(#b)"><path fill="#222" d="M13.85 27H5.912c-.96 0-1.738-.702-1.738-1.568v-7.747h9.676zm11.976-1.568c0 .866-.778 1.568-1.738 1.568H16.15v-9.315h9.676zM13.85 15.372H3.94c-.517 0-.94-.381-.94-.848v-2.651c0-.47.418-.852.94-.848h9.91zm12.21-4.351c.522 0 .945.38.94.847v2.652c0 .466-.418.847-.94.847h-9.91V11.02zM20.353 3c1.44 0 2.766.753 3.381 1.926.882 1.676.089 3.697-1.774 4.493-.537.23-1.363.339-2.589.339h-8.944v-.004c-1.101-.014-1.858-.118-2.359-.335-1.863-.8-2.656-2.817-1.785-4.493C6.903 3.758 8.23 3 9.664 3c.558 0 1.095.109 1.602.325 1.168.504 2.808 2.57 3.742 3.857 1.111-1.526 2.624-3.376 3.741-3.857A4 4 0 0 1 20.352 3M9.675 4.582c-.762 0-1.467.4-1.796 1.022-.47.89-.046 1.96.945 2.388.1.043.534.184 1.837.184.976 0 2.067-.08 2.87-.15-1.001-1.366-2.348-2.986-3.006-3.27a2.1 2.1 0 0 0-.85-.174m10.687-.004c-.297 0-.579.061-.85.174-.658.283-2.005 1.903-3.001 3.264.803.07 1.9.15 2.87.15 1.305 0 1.738-.141 1.837-.184.986-.419 1.409-1.492.94-2.382-.33-.622-1.034-1.022-1.796-1.022"/></g><defs><clipPath id="a"><path fill="#fff" d="M0 0h30v30H0z"/></clipPath><filter id="b" width="28" height="28" x="1" y="3" color-interpolation-filters="sRGB" filterUnits="userSpaceOnUse"><feFlood flood-opacity="0" result="BackgroundImageFix"/><feColorMatrix in="SourceAlpha" result="hardAlpha" values="0 0 0 0 0 0 0 0 0 0 0 0 0 0 0 0 0 0 127 0"/><feOffset dy="2"/><feGaussianBlur stdDeviation="1"/><feColorMatrix values="0 0 0 0 0 0 0 0 0 0 0 0 0 0 0 0 0 0 0.05 0"/><feBlend in2="BackgroundImageFix" result="effect1_dropShadow_27_2065"/><feBlend in="SourceGraphic" in2="effect1_dropShadow_27_2065" result="shape"/></filter></defs></svg>