<svg xmlns="http://www.w3.org/2000/svg" width="30" height="30" fill="none" viewBox="0 0 30 30"><g filter="url(#a)"><path fill="#222" d="M27.358 23.615c-.254.224-.547.385-.813.385H3.433c-.26 0-.56-.16-.814-.385l8.813-7.549c1.205.66 2.084 1.137 2.223 1.212.493.27.836.3 1.312.3s.819-.035 1.311-.3l2.262-1.223zM2 11.562c0-.276-.006-.632.559-.328.426.23 3.44 1.867 6.223 3.384L2 20.433zm25.441-.328c.565-.304.559.052.559.328v8.87l-6.793-5.826zM27.192 6c1.295 0 .631 1.534-.077 1.93l-10.832 6.045c-.365.2-.835.298-1.31.298s-.947-.097-1.312-.298L2.831 7.93C2.121 7.534 1.457 6 2.75 6z"/></g><defs><filter id="a" width="30" height="22" x="0" y="6" color-interpolation-filters="sRGB" filterUnits="userSpaceOnUse"><feFlood flood-opacity="0" result="BackgroundImageFix"/><feColorMatrix in="SourceAlpha" result="hardAlpha" values="0 0 0 0 0 0 0 0 0 0 0 0 0 0 0 0 0 0 127 0"/><feOffset dy="2"/><feGaussianBlur stdDeviation="1"/><feColorMatrix values="0 0 0 0 0 0 0 0 0 0 0 0 0 0 0 0 0 0 0.05 0"/><feBlend in2="BackgroundImageFix" result="effect1_dropShadow_27_1871"/><feBlend in="SourceGraphic" in2="effect1_dropShadow_27_1871" result="shape"/></filter></defs></svg>