<svg xmlns="http://www.w3.org/2000/svg" width="30" height="30" fill="none" viewBox="0 0 30 30"><g clip-path="url(#a)" filter="url(#b)"><path fill="#222" fill-rule="evenodd" d="M23.473 15.934c-.745-.033-1.33-.71-1.31-1.516.023-.824.661-1.471 1.424-1.442.734.028 1.337.727 1.312 1.52-.026.829-.663 1.471-1.426 1.438m-3.2 4.571s-4.347 1.27-8.16-3.001c-.649-.726-1.632-1.91-1.338-2.87.17-.558.787-1.694 1.157-2.143.72-.876 2.752-3.962 8.342-3.716 0 0-3.783 6.019 0 11.73M27 12.152a16.36 16.36 0 0 0-5.204-5.402 1.8 1.8 0 0 1-.483-.432 13.4 13.4 0 0 0-2.935-2.98c-.301-.225-.73-.324-1.103-.336-.562-.018-1.127.08-1.69.148-2.045.248-4.046.698-5.94 1.615-.807.391-.817.474-.166 1.138.807.823 1.534 1.716 2.149 2.765-1.034 1.168-2.04 2.333-3.079 3.462-.498.543-.897.497-1.355-.107-.277-.367-.5-.782-.756-1.169-.974-1.47-2.38-2.05-3.962-2.264-.347-.047-.528.121-.463.498.175 1.023.294 2.068.576 3.057.354 1.242 1.072 2.226 2.191 2.8.018.01.022.052.025.06-.317.237-.669.427-.939.71-1.456 1.517-1.804 3.486-1.841 5.564-.002.096.175.245.292.28.141.043.312.015.461-.023 1.588-.41 2.993-1.126 3.852-2.748.099-.186.217-.361.334-.534.62-.914 1.018-.986 1.804-.257.838.78 1.637 1.61 2.473 2.392 1.605 1.5 3.25 2.933 5.477 3.34-.306 1.022-.71 1.934-1.392 2.686-.11.122-.183.285-.273.429.166.054.334.165.496.155 1.85-.106 3.512-.757 4.923-2.086.63-.593 1.124-1.304 1.348-2.193a.9.9 0 0 1 .457-.606c1.757-1.047 3.29-2.393 4.514-4.13 1.55-2.2 1.6-3.497.209-5.832" clip-rule="evenodd"/></g><defs><clipPath id="a"><path fill="#fff" d="M0 0h30v30H0z"/></clipPath><filter id="b" width="30" height="28" x="0" y="3" color-interpolation-filters="sRGB" filterUnits="userSpaceOnUse"><feFlood flood-opacity="0" result="BackgroundImageFix"/><feColorMatrix in="SourceAlpha" result="hardAlpha" values="0 0 0 0 0 0 0 0 0 0 0 0 0 0 0 0 0 0 127 0"/><feOffset dy="2"/><feGaussianBlur stdDeviation="1"/><feColorMatrix values="0 0 0 0 0 0 0 0 0 0 0 0 0 0 0 0 0 0 0.05 0"/><feBlend in2="BackgroundImageFix" result="effect1_dropShadow_27_1562"/><feBlend in="SourceGraphic" in2="effect1_dropShadow_27_1562" result="shape"/></filter></defs></svg>