<svg xmlns="http://www.w3.org/2000/svg" width="30" height="30" fill="none" viewBox="0 0 30 30"><g clip-path="url(#a)" filter="url(#b)"><path fill="#222" d="M13.01 13.165v6.866h-2.307c-.05 0-.1.04-.116.097a.1.1 0 0 0-.012.05c0 .04.012.079.04.107l4.16 4.456c.05.051.121.051.171 0l4.16-4.456a.2.2 0 0 0 .038-.106.2.2 0 0 0-.01-.051c-.017-.056-.067-.097-.116-.097H16.87v-6.866h4.354V27H8.5V13.165zM24.538 3c1.837 0 3.32 1.52 3.32 3.389v10.728c0 1.87-1.489 3.389-3.32 3.389h-.829V13.73c.918 0 1.66-.758 1.66-1.695s-.742-1.694-1.66-1.694H6.006c-.918 0-1.66.757-1.66 1.694 0 .938.742 1.694 1.66 1.694v6.777h-.83c-1.83 0-3.319-1.52-3.319-3.389V6.39C1.857 4.519 3.346 3 5.177 3zm-4.127 2.541a.56.56 0 0 0-.553.564V7.8c0 .31.25.564.553.564h3.32a.56.56 0 0 0 .553-.564V6.105c0-.31-.25-.564-.553-.564z"/></g><defs><clipPath id="a"><path fill="#fff" d="M0 0h30v30H0z"/></clipPath><filter id="b" width="30" height="28" x="-.143" y="3" color-interpolation-filters="sRGB" filterUnits="userSpaceOnUse"><feFlood flood-opacity="0" result="BackgroundImageFix"/><feColorMatrix in="SourceAlpha" result="hardAlpha" values="0 0 0 0 0 0 0 0 0 0 0 0 0 0 0 0 0 0 127 0"/><feOffset dy="2"/><feGaussianBlur stdDeviation="1"/><feColorMatrix values="0 0 0 0 0 0 0 0 0 0 0 0 0 0 0 0 0 0 0.05 0"/><feBlend in2="BackgroundImageFix" result="effect1_dropShadow_27_1685"/><feBlend in="SourceGraphic" in2="effect1_dropShadow_27_1685" result="shape"/></filter></defs></svg>