<svg xmlns="http://www.w3.org/2000/svg" width="30" height="30" fill="none" viewBox="0 0 30 30"><g clip-path="url(#a)" filter="url(#b)"><path fill="#222" fill-rule="evenodd" d="M24.767 10.64H8.26c-.945 0-1.708-.784-1.708-1.756 0-.971.763-1.756 1.708-1.756h14.798v-.585c0-1.938-1.138-3.46-3.984-3.46l-13.66 2.29C3.531 5.372 2 6.946 2 8.883V23.57c0 1.938 1.531 3.512 3.415 3.512h19.352c1.884 0 3.415-1.574 3.415-3.512v-9.418c0-1.944-1.526-3.513-3.415-3.513M22.49 21.177c-1.258 0-2.277-1.048-2.277-2.341s1.02-2.342 2.277-2.342 2.277 1.048 2.277 2.342c0 1.293-1.019 2.341-2.277 2.341" clip-rule="evenodd"/></g><defs><clipPath id="a"><path fill="#fff" d="M0 0h30v30H0z"/></clipPath><filter id="b" width="30.182" height="28" x="0" y="3.083" color-interpolation-filters="sRGB" filterUnits="userSpaceOnUse"><feFlood flood-opacity="0" result="BackgroundImageFix"/><feColorMatrix in="SourceAlpha" result="hardAlpha" values="0 0 0 0 0 0 0 0 0 0 0 0 0 0 0 0 0 0 127 0"/><feOffset dy="2"/><feGaussianBlur stdDeviation="1"/><feColorMatrix values="0 0 0 0 0 0 0 0 0 0 0 0 0 0 0 0 0 0 0.05 0"/><feBlend in2="BackgroundImageFix" result="effect1_dropShadow_27_1710"/><feBlend in="SourceGraphic" in2="effect1_dropShadow_27_1710" result="shape"/></filter></defs></svg>