<svg xmlns="http://www.w3.org/2000/svg" width="30" height="30" fill="none" viewBox="0 0 30 30"><g filter="url(#a)"><path fill="#222" fill-rule="evenodd" d="M2.006 8.33c0-.885.343-1.73.951-2.354A3.2 3.2 0 0 1 5.253 5h19.5c.863 0 1.687.352 2.296.976S28 7.45 28 8.33v8.334H2V8.331zM20.692 10a.8.8 0 0 0-.575.243.84.84 0 0 0-.238.59v1.669a.84.84 0 0 0 .238.59c.155.159.36.244.575.244h3.253c.216 0 .42-.085.575-.244a.84.84 0 0 0 .238-.59v-1.668a.84.84 0 0 0-.238-.59.8.8 0 0 0-.575-.244zM2.006 20v1.668c0 .886.343 1.731.951 2.355A3.2 3.2 0 0 0 5.253 25h19.5c.863 0 1.687-.352 2.296-.976A3.38 3.38 0 0 0 28 21.67v-1.668z" clip-rule="evenodd"/></g><defs><filter id="a" width="30" height="24" x="0" y="5" color-interpolation-filters="sRGB" filterUnits="userSpaceOnUse"><feFlood flood-opacity="0" result="BackgroundImageFix"/><feColorMatrix in="SourceAlpha" result="hardAlpha" values="0 0 0 0 0 0 0 0 0 0 0 0 0 0 0 0 0 0 127 0"/><feOffset dy="2"/><feGaussianBlur stdDeviation="1"/><feColorMatrix values="0 0 0 0 0 0 0 0 0 0 0 0 0 0 0 0 0 0 0.05 0"/><feBlend in2="BackgroundImageFix" result="effect1_dropShadow_27_1705"/><feBlend in="SourceGraphic" in2="effect1_dropShadow_27_1705" result="shape"/></filter></defs></svg>