<svg xmlns="http://www.w3.org/2000/svg" width="30" height="30" fill="none" viewBox="0 0 30 30"><g clip-path="url(#a)" filter="url(#b)"><path fill="#222" d="M20.682 2c1.41 0 2.555 1.155 2.555 2.58v3.368H21.32V4.58a.64.64 0 0 0-.638-.645H8.68l5.233 1.462.005.003c1.21.557 2.014.926 2.014 2.322v15.05h4.75a.64.64 0 0 0 .638-.645v-3.37h1.917v3.37c-.003 1.422-1.146 2.573-2.555 2.573h-4.75v.857c-.034.68-.3 1.331-.757 1.84-.422.408-.99.626-1.573.602h-.23l-8.203-3.31-.081-.06-.14-.097C4.02 24.147 3 23.616 3 22.126V4.579C3 3.155 4.144 2 5.555 2zm-8.235 12.086c-.708 0-1.245.932-1.245 2.075s.558 2.07 1.245 2.07a.98.98 0 0 0 .757-.434c.13-.13.223-.292.269-.47.144-.372.217-.767.214-1.166 0-1.143-.531-2.075-1.24-2.075m10.79-4.517c.168.002.33.07.45.19l3.124 3.152a.65.65 0 0 1 0 .916l-3.125 3.153a.63.63 0 0 1-.681.122.65.65 0 0 1-.392-.577v-.997H19.5a.64.64 0 0 1-.639-.644v-3.029c0-.356.286-.645.639-.645h3.113v-1.018a.64.64 0 0 1 .381-.569.54.54 0 0 1 .242-.054"/></g><defs><clipPath id="a"><path fill="#fff" d="M0 0h30v30H0z"/></clipPath><filter id="b" width="28" height="30" x="1" y="2" color-interpolation-filters="sRGB" filterUnits="userSpaceOnUse"><feFlood flood-opacity="0" result="BackgroundImageFix"/><feColorMatrix in="SourceAlpha" result="hardAlpha" values="0 0 0 0 0 0 0 0 0 0 0 0 0 0 0 0 0 0 127 0"/><feOffset dy="2"/><feGaussianBlur stdDeviation="1"/><feColorMatrix values="0 0 0 0 0 0 0 0 0 0 0 0 0 0 0 0 0 0 0.05 0"/><feBlend in2="BackgroundImageFix" result="effect1_dropShadow_27_2059"/><feBlend in="SourceGraphic" in2="effect1_dropShadow_27_2059" result="shape"/></filter></defs></svg>