<svg xmlns="http://www.w3.org/2000/svg" width="30" height="30" fill="none" viewBox="0 0 30 30"><g clip-path="url(#a)" filter="url(#b)"><path fill="#222" d="M21 2a7 7 0 0 1 7 7v12a7 7 0 0 1-7 7H9a7 7 0 0 1-7-7V9a7 7 0 0 1 7-7zm-6.003 4.139c-2.405 0-2.707.01-3.652.053-.943.044-1.587.192-2.15.412a4.3 4.3 0 0 0-1.57 1.022 4.35 4.35 0 0 0-1.022 1.57c-.22.563-.37 1.208-.412 2.15-.042.946-.053 1.248-.053 3.655s.01 2.708.053 3.653c.044.944.193 1.588.412 2.152.226.582.53 1.076 1.022 1.569s.986.797 1.568 1.023c.564.22 1.209.368 2.152.412s1.246.053 3.652.053 2.708-.01 3.652-.053c.943-.044 1.588-.192 2.152-.412a4.3 4.3 0 0 0 1.568-1.023 4.35 4.35 0 0 0 1.024-1.57c.217-.563.366-1.208.41-2.15.043-.946.054-1.247.054-3.654s-.01-2.709-.053-3.654c-.045-.943-.194-1.587-.411-2.15a4.35 4.35 0 0 0-1.024-1.571 4.3 4.3 0 0 0-1.568-1.022c-.565-.22-1.21-.368-2.153-.412s-1.245-.053-3.65-.053m-.794 1.596h.795c2.365 0 2.646.01 3.58.052.864.04 1.333.183 1.646.305.413.16.707.353 1.017.663s.502.606.663 1.02c.122.311.267.78.306 1.644.042.934.052 1.215.052 3.58s-.01 2.646-.052 3.58c-.04.864-.184 1.333-.306 1.645-.16.413-.353.708-.663 1.018a2.74 2.74 0 0 1-1.017.663c-.312.122-.782.265-1.646.305-.934.042-1.215.052-3.58.052s-2.646-.01-3.58-.052c-.863-.04-1.332-.184-1.645-.306a2.74 2.74 0 0 1-1.02-.662 2.75 2.75 0 0 1-.662-1.018c-.121-.312-.266-.782-.305-1.646-.042-.934-.05-1.215-.05-3.58 0-2.367.008-2.647.05-3.581.04-.864.184-1.333.305-1.646.16-.413.353-.709.663-1.019s.606-.502 1.02-.663c.312-.122.78-.266 1.644-.306.817-.037 1.134-.048 2.785-.05zm.795 2.715A4.55 4.55 0 1 0 15 19.552a4.55 4.55 0 0 0-.002-9.102m0 1.597a2.954 2.954 0 1 1 0 5.909 2.954 2.954 0 0 1 0-5.91m4.73-2.84a1.064 1.064 0 1 0 .108.006z"/></g><defs><clipPath id="a"><path fill="#fff" d="M0 0h30v30H0z"/></clipPath><filter id="b" width="30" height="30" x="0" y="2" color-interpolation-filters="sRGB" filterUnits="userSpaceOnUse"><feFlood flood-opacity="0" result="BackgroundImageFix"/><feColorMatrix in="SourceAlpha" result="hardAlpha" values="0 0 0 0 0 0 0 0 0 0 0 0 0 0 0 0 0 0 127 0"/><feOffset dy="2"/><feGaussianBlur stdDeviation="1"/><feColorMatrix values="0 0 0 0 0 0 0 0 0 0 0 0 0 0 0 0 0 0 0.05 0"/><feBlend in2="BackgroundImageFix" result="effect1_dropShadow_27_1998"/><feBlend in="SourceGraphic" in2="effect1_dropShadow_27_1998" result="shape"/></filter></defs></svg>