<svg xmlns="http://www.w3.org/2000/svg" width="30" height="30" fill="none" viewBox="0 0 30 30"><g clip-path="url(#a)" filter="url(#b)"><path fill="#222" d="M15 2c7.18 0 13 5.82 13 13s-5.82 13-13 13S2 22.18 2 15 7.82 2 15 2m6.2 8.454c.11-1.264-1.212-.763-1.24-.752 0 0-2.93 1.202-3.795 1.578L7.41 14.888c-1.526.595-.655 1.153-.639 1.164 0 0 1.316.45 2.443.789 1.127.338 1.728-.037 1.728-.037l5.298-3.57c1.879-1.277 1.428-.225.977.226a145 145 0 0 1-3.945 3.757c-.601.526-.3.977-.038 1.202.977.827 3.645 2.517 3.795 2.63.188.15 1.24.827 1.878.677s.714-1.011.714-1.015l.94-5.898c.3-1.991.6-3.832.638-4.359"/></g><defs><clipPath id="a"><path fill="#fff" d="M0 0h30v30H0z"/></clipPath><filter id="b" width="30" height="30" x="0" y="2" color-interpolation-filters="sRGB" filterUnits="userSpaceOnUse"><feFlood flood-opacity="0" result="BackgroundImageFix"/><feColorMatrix in="SourceAlpha" result="hardAlpha" values="0 0 0 0 0 0 0 0 0 0 0 0 0 0 0 0 0 0 127 0"/><feOffset dy="2"/><feGaussianBlur stdDeviation="1"/><feColorMatrix values="0 0 0 0 0 0 0 0 0 0 0 0 0 0 0 0 0 0 0.05 0"/><feBlend in2="BackgroundImageFix" result="effect1_dropShadow_27_1910"/><feBlend in="SourceGraphic" in2="effect1_dropShadow_27_1910" result="shape"/></filter></defs></svg>