<svg xmlns="http://www.w3.org/2000/svg" viewBox="0 0 15 15"><title>Combined Shape</title><path fill="#ffd259" fill-rule="evenodd" d="M10.755 0c.809 0 1.464.666 1.464 1.488v1.944h-1.098V1.488a.37.37 0 0 0-.366-.372H3.88l2.998.844c.695.322 1.157.534 1.157 1.34v8.683h2.721a.37.37 0 0 0 .366-.372V9.667h1.098v1.944a1.476 1.476 0 0 1-1.464 1.485H8.034v.494c-.02.392-.172.768-.434 1.062a1.22 1.22 0 0 1-.901.347h-.132l-4.7-1.91-.046-.034-.08-.056C1.21 12.777.625 12.47.625 11.61V1.488C.625.666 1.28 0 2.089 0ZM6.038 6.973c-.406 0-.714.537-.714 1.197s.32 1.194.714 1.194a.56.56 0 0 0 .433-.25.6.6 0 0 0 .154-.272c.083-.214.124-.442.123-.672 0-.66-.304-1.197-.71-1.197m5.572-2.507a.36.36 0 0 1 .391-.07c.133.056.22.187.224.333v.575h1.784c.202 0 .366.166.366.372v1.747a.37.37 0 0 1-.366.372h-1.784v.587a.366.366 0 0 1-.356.36.37.37 0 0 1-.259-.11L9.82 6.813a.375.375 0 0 1 0-.528Z"/></svg>