<svg xmlns="http://www.w3.org/2000/svg" width="30" height="30" fill="none" viewBox="0 0 30 30"><path fill="#262862" d="m15.717 20.157-10.05 9.451a1.443 1.443 0 0 1-2.009-.03l-3.237-3.24a1.444 1.444 0 0 1-.03-2.008l9.452-10.049 5.874 5.875zm-5.036 1.624c-.23-.202-.53-.21-.735-.012l-4.664 4.507a.52.52 0 0 0-.013.734l.006.006c.2.2.526.204.73.006l4.662-4.506a.52.52 0 0 0 .013-.736zm4.541-13.216a.86.86 0 0 1 1.053-.16l.822.464q.102.058.186.142l3.707 3.707a1 1 0 0 1 .14.186l.467.822a.86.86 0 0 1-.16 1.053l-2.673 2.514-6.056-6.055zm9.55-1.052-1.79 1.64a3.03 3.03 0 0 0-.928 1.657l-.245 1.254-3.872-3.874 1.253-.243a3.03 3.03 0 0 0 1.656-.929l1.641-1.79zm2.287-7.28A.717.717 0 0 1 28.095.21l1.695 1.694a.72.72 0 0 1-.022 1.037l-2.624 2.4-2.485-2.486z"/><g fill="#198b67"><path d="M25.085 27.938c-1.736 1.296-4.198 1.171-5.775-.406-1.577-1.578-1.702-4.04-.407-5.776zM19.808 20.854c1.737-1.295 4.197-1.173 5.775.405 1.577 1.578 1.702 4.039.407 5.775zM18.005 18.005l-1.529 1.439-5.92-5.92 1.438-1.53zM26.554 5.882l-1.191 1.09-2.337-2.336 1.09-1.19z"/></g></svg>