<svg xmlns="http://www.w3.org/2000/svg" width="30" height="30" fill="none" viewBox="0 0 30 30"><g clip-path="url(#a)" filter="url(#b)"><path fill="#222" d="M15 2c7.18 0 13 5.82 13 13s-5.82 13-13 13S2 22.18 2 15 7.82 2 15 2m-1.847 2.377q-.907.159-1.785.47a10.7 10.7 0 0 0-3.663 2.216q-.58.535-1.071 1.138s-.28.297-.609.89a10.7 10.7 0 0 0-1.74 6.927l-.01.082a10.7 10.7 0 0 0 1.142 3.845l.014.006A10.76 10.76 0 0 0 15 25.79a10.76 10.76 0 0 0 9.43-5.575l-.133.18c.91-1.42 1.11-2.616 1.11-2.616.201-.756.329-1.53.363-2.323q.023-.58-.013-1.153c-.14.14-.57.597-.877.903l-3.702-1.85L19.85 9.54l1.494-2.161c.923.384 2.204 1.327 2.774 1.872q-.518-.819-1.183-1.543a10.74 10.74 0 0 0-5.64-3.241c.838.307 1.535.936 2.24 1.488.038.032.37.344.608.58l-1.521 2.197-3.46-.076-3.024-3.024c.346-.425.722-.926 1.014-1.255m3.265 11.975-.16 6.033c-1.297.763-2.815.972-3.121 1.005-3.733-1.345-5.333-3.633-5.357-3.668l-.036.024.143-3.343 5.645-2.19zm7.857.195s.02 3.446-3.715 5.985a7.6 7.6 0 0 1-1.21.494 7.3 7.3 0 0 1-1.625-.602l.156-5.844 2.56-1.95zM14.022 9.593l-1.038 3.256-5.598 2.172-1.257-1.554c.172-4.878 3.94-6.68 4.825-6.94z"/></g><defs><clipPath id="a"><path fill="#fff" d="M0 0h30v30H0z"/></clipPath><filter id="b" width="30" height="30" x="0" y="2" color-interpolation-filters="sRGB" filterUnits="userSpaceOnUse"><feFlood flood-opacity="0" result="BackgroundImageFix"/><feColorMatrix in="SourceAlpha" result="hardAlpha" values="0 0 0 0 0 0 0 0 0 0 0 0 0 0 0 0 0 0 127 0"/><feOffset dy="2"/><feGaussianBlur stdDeviation="1"/><feColorMatrix values="0 0 0 0 0 0 0 0 0 0 0 0 0 0 0 0 0 0 0.05 0"/><feBlend in2="BackgroundImageFix" result="effect1_dropShadow_27_1543"/><feBlend in="SourceGraphic" in2="effect1_dropShadow_27_1543" result="shape"/></filter></defs></svg>