<svg xmlns="http://www.w3.org/2000/svg" width="30" height="30" fill="none" viewBox="0 0 30 30"><g clip-path="url(#a)" filter="url(#b)"><path fill="#222" d="M15 2c7.18 0 13 5.839 13 13.041 0 6.936-5.398 12.607-12.21 13.017q.344-.021.68-.059v-9.311h3.79l.61-3.66h-4.373v-2.672c0-1.005.361-1.615 1.76-1.615h2.612v-3.38a26 26 0 0 0-2.787-.144c-4.217 0-6.049 2.257-6.049 4.708v3.119h-3.1v3.669h3.1v9.028q.348.082.702.144C6.635 26.81 2 21.469 2 15.04 2 7.839 7.82 2 15 2"/></g><defs><clipPath id="a"><path fill="#fff" d="M0 0h30v30H0z"/></clipPath><filter id="b" width="30" height="30.083" x="0" y="2" color-interpolation-filters="sRGB" filterUnits="userSpaceOnUse"><feFlood flood-opacity="0" result="BackgroundImageFix"/><feColorMatrix in="SourceAlpha" result="hardAlpha" values="0 0 0 0 0 0 0 0 0 0 0 0 0 0 0 0 0 0 127 0"/><feOffset dy="2"/><feGaussianBlur stdDeviation="1"/><feColorMatrix values="0 0 0 0 0 0 0 0 0 0 0 0 0 0 0 0 0 0 0.05 0"/><feBlend in2="BackgroundImageFix" result="effect1_dropShadow_27_2042"/><feBlend in="SourceGraphic" in2="effect1_dropShadow_27_2042" result="shape"/></filter></defs></svg>