<svg xmlns="http://www.w3.org/2000/svg" viewBox="0 0 18 15"><title>Combined Shape</title><path fill="#00b5ff" fill-rule="evenodd" d="M7.687.625c3.245 0 6.103 2.1 7.018 5.158a5.5 5.5 0 0 0-1.249-.15c-.112 0-.225.015-.337.015-.907-2.198-3.097-3.622-5.511-3.584S3.05 3.594 2.216 5.819a5.67 5.67 0 0 0 1.623 6.293c.166-.774.57-1.48 1.158-2.02a.88.88 0 0 1 .968-.154c.54.26 1.134.395 1.736.395.135 0 .266-.024.397-.024v.01a5.19 5.19 0 0 0 1.586 4.412 7.42 7.42 0 0 1-5.83-.807H3.74v-.073C1.007 12.129-.242 8.845.67 5.786S4.44.626 7.687.625m5.77 6.587c2.093 0 3.791 1.666 3.793 3.722 0 2.056-1.697 3.723-3.79 3.723s-3.79-1.665-3.791-3.72c-.002-2.056 1.694-3.724 3.787-3.725m.155 1.306H13.3a.563.563 0 0 0-.568.558v1.165h-1.187a.57.57 0 0 0-.403.163.55.55 0 0 0-.165.396v.306c-.001.148.059.29.165.396a.57.57 0 0 0 .403.162h1.187v1.153a.56.56 0 0 0 .164.406.58.58 0 0 0 .41.168h.313a.566.566 0 0 0 .57-.562v-1.165h1.187a.57.57 0 0 0 .413-.164.55.55 0 0 0 .165-.406l-.015-.294a.563.563 0 0 0-.569-.559h-1.186V9.076a.55.55 0 0 0-.168-.396.57.57 0 0 0-.404-.162M7.69 4.014c1.424 0 2.592 1.108 2.64 2.505v.095A5.34 5.34 0 0 0 8.457 8.94q-.37.104-.756.105a2.63 2.63 0 0 1-1.853-.727 2.54 2.54 0 0 1-.788-1.8c.04-1.397 1.207-2.505 2.63-2.505"/></svg>