<svg xmlns="http://www.w3.org/2000/svg" width="30" height="30" fill="none" viewBox="0 0 30 30"><g filter="url(#a)"><path fill="#222" d="M11.023 16.8c.981 0 1.777.796 1.777 1.778v5.244c0 .982-.796 1.777-1.777 1.778H5.777A1.777 1.777 0 0 1 4 23.822v-5.244c0-.982.796-1.778 1.777-1.778zm12.1 0c.98 0 1.777.796 1.777 1.778v5.244c0 .982-.796 1.778-1.778 1.778h-5.244a1.78 1.78 0 0 1-1.778-1.778v-5.244c0-.982.796-1.778 1.778-1.778zM20.84 3.6a1 1 0 0 1 1 1v3.16H25a1 1 0 0 1 1 1v1.12a1 1 0 0 1-1 1h-3.16v3.16a1 1 0 0 1-1 1h-1.12a1 1 0 0 1-1-1v-3.16h-3.16a1 1 0 0 1-1-1V8.76a1 1 0 0 1 1-1h3.16V4.6a1 1 0 0 1 1-1zm-9.817 1.1c.981 0 1.777.796 1.777 1.778v5.245c0 .981-.796 1.777-1.777 1.777H5.777A1.78 1.78 0 0 1 4 11.723V6.478C4 5.496 4.796 4.7 5.777 4.7z"/></g><defs><filter id="a" width="26" height="26" x="2" y="3.6" color-interpolation-filters="sRGB" filterUnits="userSpaceOnUse"><feFlood flood-opacity="0" result="BackgroundImageFix"/><feColorMatrix in="SourceAlpha" result="hardAlpha" values="0 0 0 0 0 0 0 0 0 0 0 0 0 0 0 0 0 0 127 0"/><feOffset dy="2"/><feGaussianBlur stdDeviation="1"/><feColorMatrix values="0 0 0 0 0 0 0 0 0 0 0 0 0 0 0 0 0 0 0.05 0"/><feBlend in2="BackgroundImageFix" result="effect1_dropShadow_27_1625"/><feBlend in="SourceGraphic" in2="effect1_dropShadow_27_1625" result="shape"/></filter></defs></svg>