<svg xmlns="http://www.w3.org/2000/svg" viewBox="0 0 30 30"><title>leftmenu/sports/color/icon-basketball</title><g fill="none" fill-rule="evenodd"><circle cx="15" cy="15" r="12" fill="#3c515a"/><path fill="#ff723f" d="M14.472 7.25v19.447c0 .1.01.202.014.303h-.332l-.98-.149a13.712 13.712 0 0 1-4.077-1.323c-.69-.35-1.167-.95-1.556-1.606-.69-1.163-.839-2.425-.728-3.75.138-1.64.917-2.972 1.93-4.217.779-.954 1.558-1.91 2.274-2.91 1-1.395 1.61-2.947 1.692-4.675.015-.302.002-.606.002-.944zm-2.793.41c-.054.546-.075 1.074-.162 1.59-.253 1.496-1.01 2.762-1.92 3.946-.819 1.062-1.678 2.094-2.483 3.165-.834 1.11-1.235 2.393-1.41 3.753-.107.834-.112 1.665.046 2.493.007.035.001.073-.044.136-.29-.375-.593-.74-.867-1.125-.781-1.103-1.385-2.289-1.663-3.617-.077-.372-.118-.751-.176-1.127v-.703c.069-.399.118-.802.21-1.195.282-1.216.861-2.292 1.661-3.249 1.743-2.083 4.007-3.344 6.622-4.037.038-.01.077-.013.186-.03m-1.373-2.14c.513.204.863.56 1.097 1.08-3.546.932-6.415 2.752-8.3 5.933.057-.225.11-.452.172-.676q.095-.351.21-.695.115-.345.255-.68a12.03 12.03 0 0 1 3.982-5.09.5.5 0 0 1 .227-.11c.8-.076 1.593-.067 2.357.238M14.452 3v3.185l-1.443.14c-.164.017-.36.094-.484.031-.118-.06-.16-.266-.236-.407-.511-.952-1.343-1.46-2.383-1.677l-.247-.054A12.2 12.2 0 0 1 14.452 3m1.092 4.253 1.72.167c.039.572.052 1.102.113 1.627.13 1.123.524 2.163 1.081 3.147.775 1.364 1.819 2.53 2.795 3.748.52.649 1.042 1.301 1.382 2.065.505 1.132.667 2.32.543 3.547-.138 1.365-.706 2.525-1.694 3.491-.548.535-1.253.778-1.938 1.05-1.148.458-2.333.779-3.574.87-.037.002-.073.023-.11.035h-.332c.005-.101.013-.202.013-.303l.001-19.1zm2.772.393c1.023.238 1.912.556 2.765.967 1.567.756 2.95 1.755 4.054 3.102 1.174 1.432 1.881 3.047 1.865 4.916-.012 1.287-.39 2.49-.986 3.628a12.6 12.6 0 0 1-1.587 2.325c-.043.051-.092.097-.164.171.037-.347.085-.653.1-.96.117-2.193-.433-4.19-1.815-5.936-.706-.891-1.434-1.766-2.13-2.666-.854-1.106-1.58-2.287-1.862-3.672-.122-.6-.158-1.216-.24-1.875m3.692-2.382a.4.4 0 0 1 .235.09c2.44 1.826 4.005 4.21 4.663 7.168q0 .007-.012.032c-1.862-3.2-4.737-5.024-8.277-5.953.316-.763.929-1.136 1.691-1.251.558-.084 1.132-.068 1.7-.086m-6.453-2.26c1.672.074 3.244.468 4.794 1.208-.146.036-.238.062-.331.083-1.124.255-1.965.853-2.418 1.93-.027.064-.116.15-.17.145-.62-.055-1.238-.125-1.875-.193z"/></g></svg>