<svg xmlns="http://www.w3.org/2000/svg" width="15" height="15" viewBox="0 0 15 15"><title>icon-refresh-type01</title><path fill="#fff" fill-rule="nonzero" d="M7.498 0C3.366 0 0 3.398 0 7.529q0 .123.004.249a.44.44 0 0 0 .376.42l.885.13a.44.44 0 0 0 .503-.463 5 5 0 0 1-.01-.336V7.51c.008-3.15 2.603-5.717 5.74-5.717 1.819 0 3.474.865 4.52 2.206l-.668.67a.45.45 0 0 0-.106.459.42.42 0 0 0 .352.291l2.9.415c.136.069.548-.136.5-.494l-.422-2.912a.41.41 0 0 0-.29-.353.41.41 0 0 0-.448.106l-.562.556C11.904 1.088 9.809 0 7.498 0M.504 9.14c-.286-.048-.537.218-.5.488l.421 2.881a.4.4 0 0 0 .29.35c.141.055.333.022.448-.105l.519-.515A7.56 7.56 0 0 0 7.502 15c4.06 0 7.401-3.259 7.498-7.266-.001-.088.004-.284-.007-.527a.44.44 0 0 0-.378-.412l-.885-.124a.44.44 0 0 0-.5.468c.02.233.01.355.013.412 0 3.125-2.596 5.674-5.741 5.674a5.76 5.76 0 0 1-4.555-2.235l.703-.698a.44.44 0 0 0 .106-.454.42.42 0 0 0-.352-.288z"/></svg>