<svg xmlns="http://www.w3.org/2000/svg" width="30" height="30" fill="none" viewBox="0 0 30 30"><g clip-path="url(#a)" filter="url(#b)"><path fill="#222" d="M27 5.405C20.555 13.64 19.813 22.814 19.813 27H8.069c0-1.58-.299-3.214 1.67-7.245 1.214-2.487 2.568-4.073 3.95-5.283.302-.131 6.308-2.806 9.005-10.118.936-.235 1.73-.576 2.167-.912zM5.91 5.162c3.721-3.23 9.71-2.189 11.935-1.043.824.426 1.842.562 2.856.524-.683 2.04-2.57 4.816-7.396 7.712-1.696-.314-3.406-.885-4.4-.626-1.798.47-2.953 2.45-2.953 3.493H3V4.068h2.91z"/></g><defs><clipPath id="a"><path fill="#fff" d="M0 0h30v30H0z"/></clipPath><filter id="b" width="28" height="28" x="1" y="3" color-interpolation-filters="sRGB" filterUnits="userSpaceOnUse"><feFlood flood-opacity="0" result="BackgroundImageFix"/><feColorMatrix in="SourceAlpha" result="hardAlpha" values="0 0 0 0 0 0 0 0 0 0 0 0 0 0 0 0 0 0 127 0"/><feOffset dy="2"/><feGaussianBlur stdDeviation="1"/><feColorMatrix values="0 0 0 0 0 0 0 0 0 0 0 0 0 0 0 0 0 0 0.05 0"/><feBlend in2="BackgroundImageFix" result="effect1_dropShadow_27_1551"/><feBlend in="SourceGraphic" in2="effect1_dropShadow_27_1551" result="shape"/></filter></defs></svg>