<svg xmlns="http://www.w3.org/2000/svg" width="30" height="30" fill="none" viewBox="0 0 30 30"><g filter="url(#a)"><path fill="#222" fill-rule="evenodd" d="m2.835 7.93 10.831 6.045c.365.2.835.298 1.311.298s.946-.097 1.311-.298L27.12 7.93c.708-.396 1.372-1.93.078-1.93H2.757c-1.294 0-.624 1.534.078 1.93m24.61 3.304-11.162 6.044c-.493.264-.836.299-1.311.299-.476 0-.819-.029-1.311-.299-.493-.264-10.306-5.607-11.102-6.044-.565-.304-.559.052-.559.328V22.5c0 .632.819 1.5 1.444 1.5h23.111c.625 0 1.444-.867 1.444-1.5V11.562c.005-.276.016-.632-.553-.328" clip-rule="evenodd"/></g><defs><filter id="a" width="30" height="22" x="0" y="6" color-interpolation-filters="sRGB" filterUnits="userSpaceOnUse"><feFlood flood-opacity="0" result="BackgroundImageFix"/><feColorMatrix in="SourceAlpha" result="hardAlpha" values="0 0 0 0 0 0 0 0 0 0 0 0 0 0 0 0 0 0 127 0"/><feOffset dy="2"/><feGaussianBlur stdDeviation="1"/><feColorMatrix values="0 0 0 0 0 0 0 0 0 0 0 0 0 0 0 0 0 0 0.05 0"/><feBlend in2="BackgroundImageFix" result="effect1_dropShadow_27_1754"/><feBlend in="SourceGraphic" in2="effect1_dropShadow_27_1754" result="shape"/></filter></defs></svg>