<svg xmlns="http://www.w3.org/2000/svg" xmlns:xlink="http://www.w3.org/1999/xlink" viewBox="0 0 30 30"><title>leftmenu/sports/color/icon-ic88exchange</title><defs><path id="a" d="M0 0h8.898v9.369H0z"/><path id="c" d="M0 0h19.92v21.197H0z"/><path id="e" d="M0 0h8.898v9.369H0z"/></defs><g fill="none" fill-rule="evenodd"><path fill="#c40500" d="M18.029 25.84a2.983 2.983 0 1 1-5.967 0 2.983 2.983 0 0 1 5.967 0"/><path fill="#8b0404" d="M16.315 23.14a2.983 2.983 0 0 1-3.445 4.74 2.983 2.983 0 1 0 3.445-4.74"/><g transform="translate(20.193 19.631)"><mask id="b" fill="#fff"><use xlink:href="#a"/></mask><path fill="#774900" d="m0 3.004 1.667.754c.46.208.864.522 1.18.916l3.481 4.353a.91.91 0 0 0 1.32.109l.948-.852a.91.91 0 0 0 .037-1.32L4.69 3.004a3.2 3.2 0 0 1-.771-1.256L3.344 0z" mask="url(#b)"/></g><g transform="translate(6.79 1)"><mask id="d" fill="#fff"><use xlink:href="#c"/></mask><path fill="#c99600" d="M19.581 2.976 16.56.262a1.02 1.02 0 0 0-1.426.058L.264 16.042c-.268.284-.341.685-.177.973l.438.77 3.344 3.004.813.354c.303.132.694.016.947-.28L19.676 4.4a1.02 1.02 0 0 0-.095-1.424" mask="url(#d)"/></g><path fill="#e1b20f" d="m9.067 20.359 1.591 1.43.813.354c.303.132.694.016.947-.28L26.465 5.4a1.02 1.02 0 0 0-.095-1.424l-1.728-1.553z"/><path fill="#c99600" d="M14.14 7.634 8.166 1.32a1.02 1.02 0 0 0-1.425-.058L3.72 3.976A1.02 1.02 0 0 0 3.626 5.4l5.988 7.018zM20.527 14.388l-4.616 5.41 1.761 2.064c.253.297.645.413.948.28l.812-.353 3.344-3.004.439-.77c.163-.288.09-.69-.178-.973z"/><g transform="translate(1 19.631)"><mask id="f" fill="#fff"><use xlink:href="#e"/></mask><path fill="#774900" d="m8.898 3.004-1.668.754c-.46.208-.863.522-1.179.916L2.57 9.027a.91.91 0 0 1-1.32.109l-.948-.852a.91.91 0 0 1-.037-1.32l3.943-3.96c.351-.353.615-.783.77-1.256L5.555 0z" mask="url(#f)"/></g></g></svg>